<meta message track_name name='Aragami' time=0>
<meta message text text='By xi' time=0>
<meta message copyright text='Copyright © <Year> by <루카>' time=0>
<meta message copyright text='A' time=0>
<meta message set_tempo tempo=612244 time=0>
<meta message key_signature key='G' time=0>
<meta message time_signature numerator=4 denominator=4 clocks_per_click=24 notated_32nd_notes_per_beat=8 time=0>
<meta message set_tempo tempo=666666 time=2592>
<meta message set_tempo tempo=769230 time=192>
<meta message set_tempo tempo=895522 time=192>
<meta message set_tempo tempo=845070 time=384>
<meta message time_signature numerator=3 denominator=4 clocks_per_click=24 notated_32nd_notes_per_beat=8 time=0>
<meta message set_tempo tempo=306122 time=576>
<meta message time_signature numerator=4 denominator=4 clocks_per_click=24 notated_32nd_notes_per_beat=8 time=33408>
<meta message time_signature numerator=3 denominator=4 clocks_per_click=24 notated_32nd_notes_per_beat=8 time=2304>
<meta message time_signature numerator=4 denominator=4 clocks_per_click=24 notated_32nd_notes_per_beat=8 time=2304>
<meta message time_signature numerator=3 denominator=4 clocks_per_click=24 notated_32nd_notes_per_beat=8 time=768>
<meta message time_signature numerator=5 denominator=4 clocks_per_click=24 notated_32nd_notes_per_beat=8 time=576>
<meta message time_signature numerator=3 denominator=4 clocks_per_click=24 notated_32nd_notes_per_beat=8 time=960>
<meta message set_tempo tempo=312500 time=20736>
<meta message set_tempo tempo=319148 time=576>
<meta message set_tempo tempo=324324 time=576>
<meta message end_of_track time=0>
<meta message midi_port port=1 time=0>
<meta message track_name name='Right Hand' time=0>
program_change channel=0 program=0 time=0
pitchwheel channel=0 pitch=0 time=0
control_change channel=0 control=7 value=127 time=0
control_change channel=0 control=10 value=64 time=0
note_on channel=0 note=81 velocity=92 time=0
note_on channel=0 note=81 velocity=0 time=94
note_on channel=0 note=83 velocity=92 time=2
note_on channel=0 note=83 velocity=0 time=94
note_on channel=0 note=86 velocity=92 time=2
note_on channel=0 note=86 velocity=0 time=46
control_change channel=0 control=64 value=127 time=18
note_on channel=0 note=83 velocity=92 time=0
note_on channel=0 note=83 velocity=0 time=14
note_on channel=0 note=86 velocity=92 time=2
note_on channel=0 note=86 velocity=0 time=14
note_on channel=0 note=88 velocity=92 time=2
note_on channel=0 note=88 velocity=0 time=94
note_on channel=0 note=86 velocity=92 time=2
note_on channel=0 note=86 velocity=0 time=94
note_on channel=0 note=83 velocity=92 time=2
note_on channel=0 note=83 velocity=0 time=94
note_on channel=0 note=81 velocity=92 time=2
note_on channel=0 note=81 velocity=0 time=94
note_on channel=0 note=83 velocity=92 time=2
note_on channel=0 note=83 velocity=0 time=334
control_change channel=0 control=64 value=0 time=2
control_change channel=0 control=64 value=127 time=0
note_on channel=0 note=74 velocity=92 time=16
note_on channel=0 note=74 velocity=0 time=14
note_on channel=0 note=78 velocity=92 time=2
note_on channel=0 note=78 velocity=0 time=14
note_on channel=0 note=81 velocity=92 time=2
note_on channel=0 note=81 velocity=0 time=94
note_on channel=0 note=79 velocity=92 time=2
note_on channel=0 note=79 velocity=0 time=94
note_on channel=0 note=78 velocity=92 time=2
note_on channel=0 note=78 velocity=0 time=94
note_on channel=0 note=74 velocity=92 time=2
note_on channel=0 note=74 velocity=0 time=94
note_on channel=0 note=71 velocity=92 time=2
note_on channel=0 note=71 velocity=0 time=336
control_change channel=0 control=64 value=0 time=48
control_change channel=0 control=64 value=127 time=0
note_on channel=0 note=59 velocity=92 time=0
note_on channel=0 note=64 velocity=92 time=0
note_on channel=0 note=59 velocity=0 time=160
note_on channel=0 note=64 velocity=0 time=0
note_on channel=0 note=69 velocity=92 time=32
note_on channel=0 note=69 velocity=0 time=160
note_on channel=0 note=71 velocity=92 time=32
note_on channel=0 note=71 velocity=0 time=160
note_on channel=0 note=74 velocity=92 time=32
note_on channel=0 note=74 velocity=0 time=160
note_on channel=0 note=76 velocity=92 time=32
note_on channel=0 note=76 velocity=0 time=160
note_on channel=0 note=81 velocity=92 time=32
note_on channel=0 note=81 velocity=0 time=160
note_on channel=0 note=83 velocity=92 time=32
note_on channel=0 note=83 velocity=0 time=160
note_on channel=0 note=93 velocity=92 time=32
note_on channel=0 note=93 velocity=0 time=160
note_on channel=0 note=69 velocity=60 time=80
note_on channel=0 note=69 velocity=0 time=46
note_on channel=0 note=71 velocity=64 time=2
note_on channel=0 note=71 velocity=0 time=46
note_on channel=0 note=74 velocity=68 time=2
note_on channel=0 note=74 velocity=0 time=46
note_on channel=0 note=78 velocity=72 time=2
note_on channel=0 note=78 velocity=0 time=46
note_on channel=0 note=81 velocity=76 time=2
note_on channel=0 note=81 velocity=0 time=46
note_on channel=0 note=83 velocity=80 time=2
note_on channel=0 note=83 velocity=0 time=46
note_on channel=0 note=86 velocity=84 time=2
note_on channel=0 note=86 velocity=0 time=94
note_on channel=0 note=91 velocity=92 time=2
note_on channel=0 note=91 velocity=0 time=142
control_change channel=0 control=64 value=127 time=2
note_on channel=0 note=64 velocity=108 time=0
note_on channel=0 note=64 velocity=0 time=46
note_on channel=0 note=69 velocity=108 time=2
note_on channel=0 note=69 velocity=0 time=46
note_on channel=0 note=71 velocity=108 time=2
note_on channel=0 note=71 velocity=0 time=46
note_on channel=0 note=74 velocity=108 time=2
note_on channel=0 note=74 velocity=0 time=46
note_on channel=0 note=76 velocity=108 time=2
note_on channel=0 note=76 velocity=0 time=46
note_on channel=0 note=81 velocity=108 time=2
note_on channel=0 note=81 velocity=0 time=46
note_on channel=0 note=71 velocity=108 time=2
note_on channel=0 note=71 velocity=0 time=46
note_on channel=0 note=69 velocity=108 time=2
note_on channel=0 note=69 velocity=0 time=46
note_on channel=0 note=71 velocity=108 time=2
note_on channel=0 note=71 velocity=0 time=46
note_on channel=0 note=74 velocity=108 time=2
note_on channel=0 note=74 velocity=0 time=46
note_on channel=0 note=76 velocity=108 time=2
note_on channel=0 note=76 velocity=0 time=46
note_on channel=0 note=81 velocity=108 time=2
note_on channel=0 note=81 velocity=0 time=46
note_on channel=0 note=65 velocity=108 time=2
note_on channel=0 note=65 velocity=0 time=46
note_on channel=0 note=69 velocity=108 time=2
note_on channel=0 note=69 velocity=0 time=46
note_on channel=0 note=71 velocity=108 time=2
note_on channel=0 note=71 velocity=0 time=46
note_on channel=0 note=74 velocity=108 time=2
note_on channel=0 note=74 velocity=0 time=46
note_on channel=0 note=76 velocity=108 time=2
note_on channel=0 note=76 velocity=0 time=46
note_on channel=0 note=81 velocity=108 time=2
note_on channel=0 note=81 velocity=0 time=46
note_on channel=0 note=83 velocity=108 time=2
note_on channel=0 note=83 velocity=0 time=46
note_on channel=0 note=81 velocity=108 time=2
note_on channel=0 note=81 velocity=0 time=46
note_on channel=0 note=74 velocity=108 time=2
note_on channel=0 note=74 velocity=0 time=46
note_on channel=0 note=71 velocity=108 time=2
note_on channel=0 note=71 velocity=0 time=46
note_on channel=0 note=69 velocity=108 time=2
note_on channel=0 note=69 velocity=0 time=46
note_on channel=0 note=65 velocity=108 time=2
note_on channel=0 note=65 velocity=0 time=46
control_change channel=0 control=64 value=0 time=2
control_change channel=0 control=64 value=127 time=0
note_on channel=0 note=66 velocity=108 time=0
note_on channel=0 note=66 velocity=0 time=46
note_on channel=0 note=69 velocity=108 time=2
note_on channel=0 note=69 velocity=0 time=46
note_on channel=0 note=71 velocity=108 time=2
note_on channel=0 note=71 velocity=0 time=46
note_on channel=0 note=74 velocity=108 time=2
note_on channel=0 note=74 velocity=0 time=46
note_on channel=0 note=76 velocity=108 time=2
note_on channel=0 note=76 velocity=0 time=46
note_on channel=0 note=81 velocity=108 time=2
note_on channel=0 note=81 velocity=0 time=46
note_on channel=0 note=88 velocity=108 time=2
note_on channel=0 note=88 velocity=0 time=46
note_on channel=0 note=86 velocity=108 time=2
note_on channel=0 note=86 velocity=0 time=46
note_on channel=0 note=81 velocity=108 time=2
note_on channel=0 note=81 velocity=0 time=46
note_on channel=0 note=88 velocity=108 time=2
note_on channel=0 note=88 velocity=0 time=46
note_on channel=0 note=86 velocity=108 time=2
note_on channel=0 note=86 velocity=0 time=46
note_on channel=0 note=81 velocity=108 time=2
note_on channel=0 note=81 velocity=0 time=46
note_on channel=0 note=88 velocity=108 time=2
note_on channel=0 note=88 velocity=0 time=46
note_on channel=0 note=86 velocity=108 time=2
note_on channel=0 note=86 velocity=0 time=46
note_on channel=0 note=88 velocity=108 time=2
note_on channel=0 note=88 velocity=0 time=30
note_on channel=0 note=86 velocity=108 time=2
note_on channel=0 note=86 velocity=0 time=30
note_on channel=0 note=88 velocity=108 time=2
note_on channel=0 note=88 velocity=0 time=30
note_on channel=0 note=86 velocity=108 time=2
note_on channel=0 note=86 velocity=0 time=30
note_on channel=0 note=88 velocity=108 time=2
note_on channel=0 note=88 velocity=0 time=30
note_on channel=0 note=86 velocity=108 time=2
note_on channel=0 note=86 velocity=0 time=30
note_on channel=0 note=81 velocity=108 time=2
note_on channel=0 note=81 velocity=0 time=30
note_on channel=0 note=77 velocity=108 time=2
note_on channel=0 note=77 velocity=0 time=30
note_on channel=0 note=76 velocity=108 time=2
note_on channel=0 note=76 velocity=0 time=30
note_on channel=0 note=74 velocity=108 time=2
note_on channel=0 note=74 velocity=0 time=46
note_on channel=0 note=71 velocity=108 time=2
note_on channel=0 note=71 velocity=0 time=46
note_on channel=0 note=69 velocity=108 time=2
note_on channel=0 note=69 velocity=0 time=94
control_change channel=0 control=64 value=0 time=2
control_change channel=0 control=64 value=127 time=0
note_on channel=0 note=71 velocity=108 time=0
note_on channel=0 note=71 velocity=0 time=46
note_on channel=0 note=69 velocity=108 time=2
note_on channel=0 note=69 velocity=0 time=46
note_on channel=0 note=71 velocity=108 time=2
note_on channel=0 note=71 velocity=0 time=46
note_on channel=0 note=74 velocity=108 time=2
note_on channel=0 note=74 velocity=0 time=46
note_on channel=0 note=71 velocity=108 time=2
note_on channel=0 note=71 velocity=0 time=46
note_on channel=0 note=69 velocity=108 time=2
note_on channel=0 note=69 velocity=0 time=46
note_on channel=0 note=64 velocity=108 time=2
note_on channel=0 note=64 velocity=0 time=46
note_on channel=0 note=74 velocity=108 time=2
note_on channel=0 note=74 velocity=0 time=46
note_on channel=0 note=67 velocity=108 time=2
note_on channel=0 note=67 velocity=0 time=46
note_on channel=0 note=69 velocity=108 time=2
note_on channel=0 note=69 velocity=0 time=46
note_on channel=0 note=71 velocity=108 time=2
note_on channel=0 note=71 velocity=0 time=46
note_on channel=0 note=69 velocity=108 time=2
note_on channel=0 note=69 velocity=0 time=46
note_on channel=0 note=64 velocity=108 time=2
note_on channel=0 note=64 velocity=0 time=46
note_on channel=0 note=74 velocity=108 time=2
note_on channel=0 note=74 velocity=0 time=46
note_on channel=0 note=67 velocity=108 time=2
note_on channel=0 note=67 velocity=0 time=46
note_on channel=0 note=69 velocity=108 time=2
note_on channel=0 note=69 velocity=0 time=46
note_on channel=0 note=71 velocity=108 time=2
note_on channel=0 note=71 velocity=0 time=46
note_on channel=0 note=74 velocity=108 time=2
note_on channel=0 note=74 velocity=0 time=46
note_on channel=0 note=76 velocity=108 time=2
note_on channel=0 note=76 velocity=0 time=46
note_on channel=0 note=74 velocity=108 time=2
note_on channel=0 note=74 velocity=0 time=46
note_on channel=0 note=71 velocity=108 time=2
note_on channel=0 note=71 velocity=0 time=46
note_on channel=0 note=81 velocity=108 time=2
note_on channel=0 note=81 velocity=0 time=46
note_on channel=0 note=76 velocity=108 time=2
note_on channel=0 note=76 velocity=0 time=46
note_on channel=0 note=69 velocity=108 time=2
note_on channel=0 note=69 velocity=0 time=46
control_change channel=0 control=64 value=0 time=2
control_change channel=0 control=64 value=127 time=0
note_on channel=0 note=65 velocity=108 time=0
note_on channel=0 note=65 velocity=0 time=46
note_on channel=0 note=69 velocity=108 time=2
note_on channel=0 note=69 velocity=0 time=46
note_on channel=0 note=71 velocity=108 time=2
note_on channel=0 note=71 velocity=0 time=46
note_on channel=0 note=74 velocity=108 time=2
note_on channel=0 note=74 velocity=0 time=46
note_on channel=0 note=77 velocity=108 time=2
note_on channel=0 note=77 velocity=0 time=46
note_on channel=0 note=81 velocity=108 time=2
note_on channel=0 note=81 velocity=0 time=46
note_on channel=0 note=83 velocity=108 time=2
note_on channel=0 note=83 velocity=0 time=46
note_on channel=0 note=86 velocity=108 time=2
note_on channel=0 note=86 velocity=0 time=46
note_on channel=0 note=89 velocity=108 time=2
note_on channel=0 note=89 velocity=0 time=30
note_on channel=0 note=95 velocity=108 time=2
note_on channel=0 note=95 velocity=0 time=30
note_on channel=0 note=98 velocity=108 time=2
note_on channel=0 note=98 velocity=0 time=30
note_on channel=0 note=89 velocity=108 time=2
note_on channel=0 note=89 velocity=0 time=30
note_on channel=0 note=95 velocity=108 time=2
note_on channel=0 note=95 velocity=0 time=30
note_on channel=0 note=98 velocity=108 time=2
note_on channel=0 note=98 velocity=0 time=30
note_on channel=0 note=100 velocity=108 time=2
note_on channel=0 note=100 velocity=0 time=30
note_on channel=0 note=98 velocity=108 time=2
note_on channel=0 note=98 velocity=0 time=30
note_on channel=0 note=95 velocity=108 time=2
note_on channel=0 note=95 velocity=0 time=30
note_on channel=0 note=93 velocity=108 time=2
note_on channel=0 note=93 velocity=0 time=30
note_on channel=0 note=88 velocity=108 time=2
note_on channel=0 note=88 velocity=0 time=30
note_on channel=0 note=86 velocity=108 time=2
note_on channel=0 note=86 velocity=0 time=30
note_on channel=0 note=83 velocity=108 time=2
note_on channel=0 note=83 velocity=0 time=30
note_on channel=0 note=81 velocity=108 time=2
note_on channel=0 note=81 velocity=0 time=30
note_on channel=0 note=77 velocity=108 time=2
note_on channel=0 note=77 velocity=0 time=30
note_on channel=0 note=74 velocity=108 time=2
note_on channel=0 note=74 velocity=0 time=30
note_on channel=0 note=71 velocity=108 time=2
note_on channel=0 note=71 velocity=0 time=30
note_on channel=0 note=69 velocity=108 time=2
note_on channel=0 note=69 velocity=0 time=30
note_on channel=0 note=65 velocity=108 time=2
note_on channel=0 note=65 velocity=0 time=30
note_on channel=0 note=64 velocity=108 time=2
note_on channel=0 note=64 velocity=0 time=30
note_on channel=0 note=62 velocity=108 time=2
note_on channel=0 note=62 velocity=0 time=30
note_on channel=0 note=59 velocity=108 time=2
note_on channel=0 note=59 velocity=0 time=46
note_on channel=0 note=57 velocity=108 time=2
note_on channel=0 note=57 velocity=0 time=46
control_change channel=0 control=64 value=127 time=2
note_on channel=0 note=59 velocity=127 time=0
note_on channel=0 note=59 velocity=0 time=1104
control_change channel=0 control=64 value=0 time=48
control_change channel=0 control=64 value=127 time=0
note_on channel=0 note=71 velocity=75 time=192
note_on channel=0 note=71 velocity=0 time=160
note_on channel=0 note=69 velocity=75 time=32
note_on channel=0 note=69 velocity=0 time=94
note_on channel=0 note=74 velocity=75 time=2
note_on channel=0 note=74 velocity=0 time=94
control_change channel=0 control=64 value=0 time=2
control_change channel=0 control=64 value=127 time=0
note_on channel=0 note=62 velocity=75 time=0
note_on channel=0 note=64 velocity=75 time=0
note_on channel=0 note=62 velocity=0 time=160
note_on channel=0 note=64 velocity=0 time=0
note_on channel=0 note=71 velocity=75 time=32
note_on channel=0 note=71 velocity=0 time=160
control_change channel=0 control=64 value=0 time=32
note_on channel=0 note=71 velocity=92 time=0
note_on channel=0 note=76 velocity=92 time=0
note_on channel=0 note=79 velocity=92 time=0
note_on channel=0 note=71 velocity=0 time=94
note_on channel=0 note=76 velocity=0 time=0
note_on channel=0 note=79 velocity=0 time=0
note_on channel=0 note=71 velocity=92 time=2
note_on channel=0 note=74 velocity=92 time=0
note_on channel=0 note=71 velocity=0 time=94
note_on channel=0 note=74 velocity=0 time=0
control_change channel=0 control=64 value=127 time=2
note_on channel=0 note=71 velocity=75 time=192
note_on channel=0 note=74 velocity=75 time=0
note_on channel=0 note=71 velocity=0 time=160
note_on channel=0 note=74 velocity=0 time=0
note_on channel=0 note=69 velocity=75 time=32
note_on channel=0 note=69 velocity=0 time=94
note_on channel=0 note=74 velocity=75 time=2
note_on channel=0 note=74 velocity=0 time=94
control_change channel=0 control=64 value=0 time=2
control_change channel=0 control=64 value=127 time=0
note_on channel=0 note=71 velocity=92 time=192
note_on channel=0 note=74 velocity=92 time=0
note_on channel=0 note=71 velocity=0 time=160
note_on channel=0 note=74 velocity=0 time=0
note_on channel=0 note=69 velocity=75 time=32
note_on channel=0 note=76 velocity=75 time=0
note_on channel=0 note=69 velocity=0 time=94
note_on channel=0 note=71 velocity=75 time=2
note_on channel=0 note=71 velocity=0 time=46
note_on channel=0 note=69 velocity=75 time=2
note_on channel=0 note=76 velocity=0 time=16
note_on channel=0 note=69 velocity=0 time=30
control_change channel=0 control=64 value=0 time=2
control_change channel=0 control=64 value=127 time=0
note_on channel=0 note=71 velocity=75 time=192
note_on channel=0 note=71 velocity=0 time=94
note_on channel=0 note=67 velocity=92 time=2
note_on channel=0 note=69 velocity=92 time=0
note_on channel=0 note=71 velocity=92 time=0
note_on channel=0 note=74 velocity=92 time=0
note_on channel=0 note=67 velocity=0 time=160
note_on channel=0 note=69 velocity=0 time=0
note_on channel=0 note=71 velocity=0 time=0
note_on channel=0 note=74 velocity=0 time=0
note_on channel=0 note=71 velocity=92 time=32
note_on channel=0 note=71 velocity=0 time=94
control_change channel=0 control=64 value=127 time=2
note_on channel=0 note=64 velocity=92 time=0
note_on channel=0 note=67 velocity=92 time=0
note_on channel=0 note=71 velocity=92 time=0
note_on channel=0 note=64 velocity=0 time=160
note_on channel=0 note=67 velocity=0 time=0
note_on channel=0 note=71 velocity=0 time=0
note_on channel=0 note=71 velocity=75 time=32
note_on channel=0 note=71 velocity=0 time=94
note_on channel=0 note=69 velocity=75 time=2
note_on channel=0 note=69 velocity=0 time=94
note_on channel=0 note=69 velocity=75 time=2
note_on channel=0 note=69 velocity=0 time=94
note_on channel=0 note=74 velocity=75 time=2
note_on channel=0 note=74 velocity=0 time=46
note_on channel=0 note=76 velocity=75 time=2
control_change channel=0 control=64 value=0 time=48
note_on channel=0 note=76 velocity=0 time=36
note_on channel=0 note=79 velocity=92 time=60
note_on channel=0 note=79 velocity=0 time=94
note_on channel=0 note=78 velocity=92 time=2
note_on channel=0 note=78 velocity=0 time=30
note_on channel=0 note=79 velocity=92 time=2
note_on channel=0 note=79 velocity=0 time=30
note_on channel=0 note=78 velocity=92 time=2
note_on channel=0 note=78 velocity=0 time=30
note_on channel=0 note=74 velocity=92 time=2
note_on channel=0 note=74 velocity=0 time=94
note_on channel=0 note=71 velocity=92 time=2
note_on channel=0 note=71 velocity=0 time=94
note_on channel=0 note=69 velocity=92 time=2
note_on channel=0 note=69 velocity=0 time=46
note_on channel=0 note=71 velocity=92 time=2
note_on channel=0 note=71 velocity=0 time=46
note_on channel=0 note=74 velocity=92 time=2
note_on channel=0 note=74 velocity=0 time=94
note_on channel=0 note=64 velocity=92 time=2
note_on channel=0 note=64 velocity=0 time=30
note_on channel=0 note=66 velocity=92 time=2
note_on channel=0 note=66 velocity=0 time=30
note_on channel=0 note=67 velocity=92 time=2
note_on channel=0 note=67 velocity=0 time=30
note_on channel=0 note=71 velocity=92 time=2
note_on channel=0 note=71 velocity=0 time=94
note_on channel=0 note=64 velocity=92 time=2
note_on channel=0 note=64 velocity=0 time=94
note_on channel=0 note=69 velocity=92 time=2
note_on channel=0 note=69 velocity=0 time=94
note_on channel=0 note=74 velocity=92 time=2
note_on channel=0 note=74 velocity=0 time=46
note_on channel=0 note=69 velocity=92 time=2
note_on channel=0 note=69 velocity=0 time=46
control_change channel=0 control=64 value=127 time=2
note_on channel=0 note=71 velocity=92 time=192
note_on channel=0 note=71 velocity=0 time=160
note_on channel=0 note=69 velocity=92 time=32
note_on channel=0 note=69 velocity=0 time=94
note_on channel=0 note=74 velocity=92 time=2
note_on channel=0 note=74 velocity=0 time=94
control_change channel=0 control=64 value=0 time=2
control_change channel=0 control=64 value=127 time=0
note_on channel=0 note=71 velocity=92 time=192
note_on channel=0 note=71 velocity=0 time=160
note_on channel=0 note=69 velocity=92 time=32
note_on channel=0 note=69 velocity=0 time=94
note_on channel=0 note=74 velocity=92 time=2
note_on channel=0 note=74 velocity=0 time=46
note_on channel=0 note=69 velocity=92 time=2
note_on channel=0 note=69 velocity=0 time=46
control_change channel=0 control=64 value=0 time=2
control_change channel=0 control=64 value=127 time=0
note_on channel=0 note=71 velocity=75 time=192
note_on channel=0 note=71 velocity=0 time=160
note_on channel=0 note=69 velocity=75 time=32
note_on channel=0 note=69 velocity=0 time=94
note_on channel=0 note=74 velocity=75 time=2
note_on channel=0 note=74 velocity=0 time=94
control_change channel=0 control=64 value=0 time=2
note_on channel=0 note=60 velocity=75 time=0
note_on channel=0 note=60 velocity=0 time=94
note_on channel=0 note=60 velocity=75 time=2
note_on channel=0 note=60 velocity=0 time=46
note_on channel=0 note=64 velocity=75 time=2
note_on channel=0 note=64 velocity=0 time=46
note_on channel=0 note=59 velocity=92 time=2
note_on channel=0 note=71 velocity=92 time=0
note_on channel=0 note=59 velocity=0 time=36
note_on channel=0 note=71 velocity=0 time=0
note_on channel=0 note=64 velocity=92 time=60
note_on channel=0 note=76 velocity=92 time=0
note_on channel=0 note=64 velocity=0 time=36
note_on channel=0 note=76 velocity=0 time=0
note_on channel=0 note=69 velocity=92 time=60
note_on channel=0 note=81 velocity=92 time=0
note_on channel=0 note=69 velocity=0 time=36
note_on channel=0 note=81 velocity=0 time=0
note_on channel=0 note=72 velocity=92 time=60
note_on channel=0 note=84 velocity=92 time=0
note_on channel=0 note=72 velocity=0 time=36
note_on channel=0 note=84 velocity=0 time=0
note_on channel=0 note=69 velocity=92 time=60
note_on channel=0 note=76 velocity=92 time=0
note_on channel=0 note=69 velocity=0 time=94
note_on channel=0 note=76 velocity=0 time=0
note_on channel=0 note=60 velocity=92 time=2
note_on channel=0 note=72 velocity=92 time=0
note_on channel=0 note=60 velocity=0 time=94
note_on channel=0 note=72 velocity=0 time=0
note_on channel=0 note=69 velocity=92 time=2
note_on channel=0 note=81 velocity=92 time=0
note_on channel=0 note=69 velocity=0 time=94
note_on channel=0 note=81 velocity=0 time=0
note_on channel=0 note=64 velocity=92 time=2
note_on channel=0 note=76 velocity=92 time=0
note_on channel=0 note=64 velocity=0 time=94
note_on channel=0 note=76 velocity=0 time=0
note_on channel=0 note=65 velocity=92 time=2
note_on channel=0 note=77 velocity=92 time=0
note_on channel=0 note=65 velocity=0 time=94
note_on channel=0 note=77 velocity=0 time=0
note_on channel=0 note=72 velocity=108 time=2
note_on channel=0 note=84 velocity=108 time=0
note_on channel=0 note=72 velocity=0 time=46
note_on channel=0 note=84 velocity=0 time=0
note_on channel=0 note=72 velocity=108 time=2
note_on channel=0 note=84 velocity=108 time=0
note_on channel=0 note=72 velocity=0 time=46
note_on channel=0 note=84 velocity=0 time=0
note_on channel=0 note=60 velocity=92 time=98
note_on channel=0 note=72 velocity=92 time=0
note_on channel=0 note=60 velocity=0 time=94
note_on channel=0 note=72 velocity=0 time=0
note_on channel=0 note=69 velocity=92 time=2
note_on channel=0 note=81 velocity=92 time=0
note_on channel=0 note=69 velocity=0 time=94
note_on channel=0 note=81 velocity=0 time=0
note_on channel=0 note=64 velocity=92 time=2
note_on channel=0 note=76 velocity=92 time=0
note_on channel=0 note=64 velocity=0 time=94
note_on channel=0 note=76 velocity=0 time=0
note_on channel=0 note=65 velocity=92 time=2
note_on channel=0 note=77 velocity=92 time=0
note_on channel=0 note=65 velocity=0 time=94
note_on channel=0 note=77 velocity=0 time=0
note_on channel=0 note=74 velocity=92 time=2
note_on channel=0 note=86 velocity=92 time=0
note_on channel=0 note=74 velocity=0 time=94
note_on channel=0 note=86 velocity=0 time=0
note_on channel=0 note=63 velocity=108 time=2
note_on channel=0 note=66 velocity=108 time=0
note_on channel=0 note=69 velocity=108 time=0
note_on channel=0 note=72 velocity=108 time=0
note_on channel=0 note=63 velocity=0 time=94
note_on channel=0 note=66 velocity=0 time=0
note_on channel=0 note=69 velocity=0 time=0
note_on channel=0 note=72 velocity=0 time=0
note_on channel=0 note=63 velocity=108 time=2
note_on channel=0 note=66 velocity=108 time=0
note_on channel=0 note=69 velocity=108 time=0
note_on channel=0 note=72 velocity=108 time=0
note_on channel=0 note=63 velocity=0 time=73
note_on channel=0 note=66 velocity=0 time=0
note_on channel=0 note=69 velocity=0 time=0
note_on channel=0 note=72 velocity=0 time=0
note_on channel=0 note=63 velocity=108 time=119
note_on channel=0 note=66 velocity=108 time=0
note_on channel=0 note=69 velocity=108 time=0
note_on channel=0 note=72 velocity=108 time=0
note_on channel=0 note=63 velocity=0 time=73
note_on channel=0 note=66 velocity=0 time=0
note_on channel=0 note=69 velocity=0 time=0
note_on channel=0 note=72 velocity=0 time=0
note_on channel=0 note=63 velocity=108 time=119
note_on channel=0 note=66 velocity=108 time=0
note_on channel=0 note=69 velocity=108 time=0
note_on channel=0 note=72 velocity=108 time=0
note_on channel=0 note=63 velocity=0 time=94
note_on channel=0 note=66 velocity=0 time=0
note_on channel=0 note=69 velocity=0 time=0
note_on channel=0 note=72 velocity=0 time=0
note_on channel=0 note=59 velocity=108 time=2
note_on channel=0 note=63 velocity=108 time=0
note_on channel=0 note=66 velocity=108 time=0
note_on channel=0 note=71 velocity=108 time=0
note_on channel=0 note=59 velocity=0 time=73
note_on channel=0 note=63 velocity=0 time=0
note_on channel=0 note=66 velocity=0 time=0
note_on channel=0 note=71 velocity=0 time=0
note_on channel=0 note=59 velocity=108 time=119
note_on channel=0 note=63 velocity=108 time=0
note_on channel=0 note=66 velocity=108 time=0
note_on channel=0 note=71 velocity=108 time=0
note_on channel=0 note=59 velocity=0 time=73
note_on channel=0 note=63 velocity=0 time=0
note_on channel=0 note=66 velocity=0 time=0
note_on channel=0 note=71 velocity=0 time=0
note_on channel=0 note=59 velocity=108 time=119
note_on channel=0 note=63 velocity=108 time=0
note_on channel=0 note=66 velocity=108 time=0
note_on channel=0 note=71 velocity=108 time=0
note_on channel=0 note=59 velocity=0 time=73
note_on channel=0 note=63 velocity=0 time=0
note_on channel=0 note=66 velocity=0 time=0
note_on channel=0 note=71 velocity=0 time=0
note_on channel=0 note=55 velocity=92 time=119
note_on channel=0 note=57 velocity=92 time=0
note_on channel=0 note=60 velocity=92 time=0
note_on channel=0 note=64 velocity=92 time=0
note_on channel=0 note=55 velocity=0 time=94
note_on channel=0 note=57 velocity=0 time=0
note_on channel=0 note=60 velocity=0 time=0
note_on channel=0 note=64 velocity=0 time=0
note_on channel=0 note=55 velocity=92 time=2
note_on channel=0 note=57 velocity=92 time=0
note_on channel=0 note=60 velocity=92 time=0
note_on channel=0 note=64 velocity=92 time=0
note_on channel=0 note=55 velocity=0 time=73
note_on channel=0 note=57 velocity=0 time=0
note_on channel=0 note=60 velocity=0 time=0
note_on channel=0 note=64 velocity=0 time=0
note_on channel=0 note=55 velocity=92 time=119
note_on channel=0 note=57 velocity=92 time=0
note_on channel=0 note=60 velocity=92 time=0
note_on channel=0 note=64 velocity=92 time=0
note_on channel=0 note=55 velocity=0 time=73
note_on channel=0 note=57 velocity=0 time=0
note_on channel=0 note=60 velocity=0 time=0
note_on channel=0 note=64 velocity=0 time=0
note_on channel=0 note=55 velocity=92 time=119
note_on channel=0 note=57 velocity=92 time=0
note_on channel=0 note=60 velocity=92 time=0
note_on channel=0 note=64 velocity=92 time=0
note_on channel=0 note=55 velocity=0 time=94
note_on channel=0 note=57 velocity=0 time=0
note_on channel=0 note=60 velocity=0 time=0
note_on channel=0 note=64 velocity=0 time=0
note_on channel=0 note=55 velocity=92 time=2
note_on channel=0 note=57 velocity=92 time=0
note_on channel=0 note=60 velocity=92 time=0
note_on channel=0 note=64 velocity=92 time=0
note_on channel=0 note=55 velocity=0 time=160
note_on channel=0 note=57 velocity=0 time=0
note_on channel=0 note=60 velocity=0 time=0
note_on channel=0 note=64 velocity=0 time=0
note_on channel=0 note=71 velocity=92 time=32
note_on channel=0 note=71 velocity=0 time=94
note_on channel=0 note=64 velocity=92 time=2
note_on channel=0 note=64 velocity=0 time=94
note_on channel=0 note=69 velocity=92 time=2
note_on channel=0 note=69 velocity=0 time=94
note_on channel=0 note=74 velocity=92 time=2
note_on channel=0 note=74 velocity=0 time=94
note_on channel=0 note=54 velocity=92 time=2
note_on channel=0 note=57 velocity=92 time=0
note_on channel=0 note=62 velocity=92 time=0
note_on channel=0 note=66 velocity=92 time=0
note_on channel=0 note=54 velocity=0 time=94
note_on channel=0 note=57 velocity=0 time=0
note_on channel=0 note=62 velocity=0 time=0
note_on channel=0 note=66 velocity=0 time=0
note_on channel=0 note=54 velocity=92 time=2
note_on channel=0 note=57 velocity=92 time=0
note_on channel=0 note=62 velocity=92 time=0
note_on channel=0 note=66 velocity=92 time=0
note_on channel=0 note=54 velocity=0 time=73
note_on channel=0 note=57 velocity=0 time=0
note_on channel=0 note=62 velocity=0 time=0
note_on channel=0 note=66 velocity=0 time=0
note_on channel=0 note=54 velocity=92 time=119
note_on channel=0 note=57 velocity=92 time=0
note_on channel=0 note=62 velocity=92 time=0
note_on channel=0 note=66 velocity=92 time=0
note_on channel=0 note=54 velocity=0 time=73
note_on channel=0 note=57 velocity=0 time=0
note_on channel=0 note=62 velocity=0 time=0
note_on channel=0 note=66 velocity=0 time=0
note_on channel=0 note=54 velocity=92 time=119
note_on channel=0 note=57 velocity=92 time=0
note_on channel=0 note=62 velocity=92 time=0
note_on channel=0 note=66 velocity=92 time=0
note_on channel=0 note=54 velocity=0 time=94
note_on channel=0 note=57 velocity=0 time=0
note_on channel=0 note=62 velocity=0 time=0
note_on channel=0 note=66 velocity=0 time=0
note_on channel=0 note=54 velocity=92 time=2
note_on channel=0 note=57 velocity=92 time=0
note_on channel=0 note=62 velocity=92 time=0
note_on channel=0 note=66 velocity=92 time=0
note_on channel=0 note=54 velocity=0 time=160
note_on channel=0 note=57 velocity=0 time=0
note_on channel=0 note=62 velocity=0 time=0
note_on channel=0 note=66 velocity=0 time=0
note_on channel=0 note=71 velocity=92 time=32
note_on channel=0 note=71 velocity=0 time=94
note_on channel=0 note=66 velocity=92 time=2
note_on channel=0 note=66 velocity=0 time=94
note_on channel=0 note=69 velocity=92 time=2
note_on channel=0 note=69 velocity=0 time=46
note_on channel=0 note=71 velocity=92 time=2
note_on channel=0 note=71 velocity=0 time=46
note_on channel=0 note=75 velocity=92 time=2
note_on channel=0 note=75 velocity=0 time=46
note_on channel=0 note=76 velocity=92 time=2
note_on channel=0 note=76 velocity=0 time=46
note_on channel=0 note=59 velocity=92 time=2
note_on channel=0 note=63 velocity=92 time=0
note_on channel=0 note=66 velocity=92 time=0
note_on channel=0 note=69 velocity=92 time=0
note_on channel=0 note=59 velocity=0 time=94
note_on channel=0 note=63 velocity=0 time=0
note_on channel=0 note=66 velocity=0 time=0
note_on channel=0 note=69 velocity=0 time=0
note_on channel=0 note=59 velocity=92 time=2
note_on channel=0 note=63 velocity=92 time=0
note_on channel=0 note=66 velocity=92 time=0
note_on channel=0 note=69 velocity=92 time=0
note_on channel=0 note=59 velocity=0 time=73
note_on channel=0 note=63 velocity=0 time=0
note_on channel=0 note=66 velocity=0 time=0
note_on channel=0 note=69 velocity=0 time=0
note_on channel=0 note=59 velocity=92 time=119
note_on channel=0 note=63 velocity=92 time=0
note_on channel=0 note=66 velocity=92 time=0
note_on channel=0 note=69 velocity=92 time=0
note_on channel=0 note=59 velocity=0 time=73
note_on channel=0 note=63 velocity=0 time=0
note_on channel=0 note=66 velocity=0 time=0
note_on channel=0 note=69 velocity=0 time=0
note_on channel=0 note=59 velocity=92 time=119
note_on channel=0 note=63 velocity=92 time=0
note_on channel=0 note=66 velocity=92 time=0
note_on channel=0 note=69 velocity=92 time=0
note_on channel=0 note=59 velocity=0 time=94
note_on channel=0 note=63 velocity=0 time=0
note_on channel=0 note=66 velocity=0 time=0
note_on channel=0 note=69 velocity=0 time=0
note_on channel=0 note=59 velocity=92 time=2
note_on channel=0 note=63 velocity=92 time=0
note_on channel=0 note=66 velocity=92 time=0
note_on channel=0 note=69 velocity=92 time=0
note_on channel=0 note=59 velocity=0 time=160
note_on channel=0 note=63 velocity=0 time=0
note_on channel=0 note=66 velocity=0 time=0
note_on channel=0 note=69 velocity=0 time=0
note_on channel=0 note=71 velocity=92 time=32
note_on channel=0 note=71 velocity=0 time=94
note_on channel=0 note=63 velocity=92 time=2
note_on channel=0 note=63 velocity=0 time=46
note_on channel=0 note=66 velocity=92 time=2
note_on channel=0 note=66 velocity=0 time=46
note_on channel=0 note=69 velocity=92 time=2
note_on channel=0 note=69 velocity=0 time=94
note_on channel=0 note=71 velocity=92 time=2
note_on channel=0 note=71 velocity=0 time=94
note_on channel=0 note=55 velocity=92 time=2
note_on channel=0 note=59 velocity=92 time=0
note_on channel=0 note=64 velocity=92 time=0
note_on channel=0 note=67 velocity=92 time=0
note_on channel=0 note=55 velocity=0 time=94
note_on channel=0 note=59 velocity=0 time=0
note_on channel=0 note=64 velocity=0 time=0
note_on channel=0 note=67 velocity=0 time=0
note_on channel=0 note=52 velocity=92 time=2
note_on channel=0 note=55 velocity=92 time=0
note_on channel=0 note=59 velocity=92 time=0
note_on channel=0 note=64 velocity=92 time=0
note_on channel=0 note=52 velocity=0 time=94
note_on channel=0 note=55 velocity=0 time=0
note_on channel=0 note=59 velocity=0 time=0
note_on channel=0 note=64 velocity=0 time=0
note_on channel=0 note=52 velocity=92 time=194
note_on channel=0 note=55 velocity=92 time=0
note_on channel=0 note=59 velocity=92 time=0
note_on channel=0 note=64 velocity=92 time=0
note_on channel=0 note=52 velocity=0 time=160
note_on channel=0 note=55 velocity=0 time=0
note_on channel=0 note=59 velocity=0 time=0
note_on channel=0 note=64 velocity=0 time=0
note_on channel=0 note=54 velocity=92 time=32
note_on channel=0 note=59 velocity=92 time=0
note_on channel=0 note=62 velocity=92 time=0
note_on channel=0 note=66 velocity=92 time=0
note_on channel=0 note=54 velocity=0 time=160
note_on channel=0 note=59 velocity=0 time=0
note_on channel=0 note=62 velocity=0 time=0
note_on channel=0 note=66 velocity=0 time=0
note_on channel=0 note=59 velocity=92 time=32
note_on channel=0 note=59 velocity=0 time=46
note_on channel=0 note=62 velocity=92 time=2
note_on channel=0 note=62 velocity=0 time=46
note_on channel=0 note=66 velocity=92 time=2
note_on channel=0 note=66 velocity=0 time=46
note_on channel=0 note=69 velocity=92 time=2
note_on channel=0 note=69 velocity=0 time=46
note_on channel=0 note=71 velocity=92 time=2
note_on channel=0 note=71 velocity=0 time=94
note_on channel=0 note=74 velocity=92 time=2
note_on channel=0 note=74 velocity=0 time=94
control_change channel=0 control=64 value=127 time=2
note_on channel=0 note=43 velocity=92 time=0
note_on channel=0 note=48 velocity=92 time=0
note_on channel=0 note=52 velocity=92 time=0
note_on channel=0 note=43 velocity=0 time=94
note_on channel=0 note=48 velocity=0 time=0
note_on channel=0 note=52 velocity=0 time=0
note_on channel=0 note=57 velocity=92 time=2
note_on channel=0 note=57 velocity=0 time=94
note_on channel=0 note=60 velocity=92 time=2
note_on channel=0 note=60 velocity=0 time=46
note_on channel=0 note=64 velocity=92 time=2
note_on channel=0 note=64 velocity=0 time=46
note_on channel=0 note=69 velocity=92 time=2
note_on channel=0 note=69 velocity=0 time=46
note_on channel=0 note=72 velocity=92 time=2
note_on channel=0 note=72 velocity=0 time=46
note_on channel=0 note=76 velocity=92 time=2
note_on channel=0 note=76 velocity=0 time=46
note_on channel=0 note=81 velocity=92 time=2
note_on channel=0 note=81 velocity=0 time=46
note_on channel=0 note=84 velocity=92 time=2
note_on channel=0 note=84 velocity=0 time=46
note_on channel=0 note=88 velocity=92 time=2
note_on channel=0 note=88 velocity=0 time=46
note_on channel=0 note=93 velocity=92 time=2
note_on channel=0 note=93 velocity=0 time=46
note_on channel=0 note=88 velocity=92 time=2
note_on channel=0 note=88 velocity=0 time=46
note_on channel=0 note=84 velocity=92 time=2
note_on channel=0 note=84 velocity=0 time=46
note_on channel=0 note=81 velocity=92 time=2
note_on channel=0 note=81 velocity=0 time=46
note_on channel=0 note=76 velocity=92 time=2
note_on channel=0 note=76 velocity=0 time=46
note_on channel=0 note=72 velocity=92 time=2
note_on channel=0 note=72 velocity=0 time=46
note_on channel=0 note=69 velocity=92 time=2
note_on channel=0 note=69 velocity=0 time=46
note_on channel=0 note=64 velocity=92 time=2
note_on channel=0 note=64 velocity=0 time=46
note_on channel=0 note=60 velocity=92 time=2
note_on channel=0 note=60 velocity=0 time=94
note_on channel=0 note=57 velocity=92 time=2
note_on channel=0 note=57 velocity=0 time=94
control_change channel=0 control=64 value=0 time=2
control_change channel=0 control=64 value=127 time=0
note_on channel=0 note=49 velocity=92 time=0
note_on channel=0 note=52 velocity=92 time=0
note_on channel=0 note=54 velocity=92 time=0
note_on channel=0 note=49 velocity=0 time=94
note_on channel=0 note=52 velocity=0 time=0
note_on channel=0 note=54 velocity=0 time=0
note_on channel=0 note=58 velocity=92 time=2
note_on channel=0 note=58 velocity=0 time=94
note_on channel=0 note=61 velocity=92 time=2
note_on channel=0 note=61 velocity=0 time=46
note_on channel=0 note=66 velocity=92 time=2
note_on channel=0 note=66 velocity=0 time=46
note_on channel=0 note=70 velocity=92 time=2
note_on channel=0 note=70 velocity=0 time=46
note_on channel=0 note=73 velocity=92 time=2
note_on channel=0 note=73 velocity=0 time=46
note_on channel=0 note=78 velocity=92 time=2
note_on channel=0 note=78 velocity=0 time=46
note_on channel=0 note=82 velocity=92 time=2
note_on channel=0 note=82 velocity=0 time=46
note_on channel=0 note=85 velocity=92 time=2
note_on channel=0 note=85 velocity=0 time=46
note_on channel=0 note=90 velocity=92 time=2
note_on channel=0 note=90 velocity=0 time=46
note_on channel=0 note=94 velocity=92 time=2
note_on channel=0 note=94 velocity=0 time=46
note_on channel=0 note=90 velocity=93 time=2
note_on channel=0 note=90 velocity=0 time=46
note_on channel=0 note=85 velocity=94 time=2
note_on channel=0 note=85 velocity=0 time=46
note_on channel=0 note=82 velocity=95 time=2
note_on channel=0 note=82 velocity=0 time=46
note_on channel=0 note=78 velocity=96 time=2
note_on channel=0 note=78 velocity=0 time=46
note_on channel=0 note=73 velocity=97 time=2
note_on channel=0 note=73 velocity=0 time=46
note_on channel=0 note=70 velocity=98 time=2
note_on channel=0 note=70 velocity=0 time=46
note_on channel=0 note=66 velocity=99 time=2
note_on channel=0 note=66 velocity=0 time=46
note_on channel=0 note=61 velocity=100 time=2
note_on channel=0 note=61 velocity=0 time=94
note_on channel=0 note=58 velocity=104 time=2
note_on channel=0 note=58 velocity=0 time=94
control_change channel=0 control=64 value=0 time=2
control_change channel=0 control=64 value=127 time=0
note_on channel=0 note=54 velocity=108 time=0
note_on channel=0 note=54 velocity=0 time=94
note_on channel=0 note=59 velocity=108 time=2
note_on channel=0 note=59 velocity=0 time=94
note_on channel=0 note=63 velocity=108 time=2
note_on channel=0 note=63 velocity=0 time=46
note_on channel=0 note=66 velocity=108 time=2
note_on channel=0 note=66 velocity=0 time=46
note_on channel=0 note=71 velocity=108 time=2
note_on channel=0 note=71 velocity=0 time=46
note_on channel=0 note=75 velocity=108 time=2
note_on channel=0 note=75 velocity=0 time=46
note_on channel=0 note=78 velocity=108 time=2
note_on channel=0 note=78 velocity=0 time=46
note_on channel=0 note=83 velocity=108 time=2
note_on channel=0 note=83 velocity=0 time=46
note_on channel=0 note=87 velocity=108 time=2
note_on channel=0 note=87 velocity=0 time=46
note_on channel=0 note=90 velocity=108 time=2
note_on channel=0 note=90 velocity=0 time=46
note_on channel=0 note=95 velocity=108 time=2
note_on channel=0 note=95 velocity=0 time=46
note_on channel=0 note=90 velocity=108 time=2
note_on channel=0 note=90 velocity=0 time=46
note_on channel=0 note=87 velocity=108 time=2
note_on channel=0 note=87 velocity=0 time=46
note_on channel=0 note=83 velocity=108 time=2
note_on channel=0 note=83 velocity=0 time=46
note_on channel=0 note=78 velocity=108 time=2
note_on channel=0 note=78 velocity=0 time=46
note_on channel=0 note=75 velocity=108 time=2
note_on channel=0 note=75 velocity=0 time=46
note_on channel=0 note=71 velocity=108 time=2
note_on channel=0 note=71 velocity=0 time=46
note_on channel=0 note=66 velocity=108 time=2
note_on channel=0 note=66 velocity=0 time=46
note_on channel=0 note=63 velocity=108 time=2
note_on channel=0 note=63 velocity=0 time=94
note_on channel=0 note=59 velocity=108 time=2
note_on channel=0 note=59 velocity=0 time=94
control_change channel=0 control=64 value=0 time=2
note_on channel=0 note=71 velocity=108 time=0
note_on channel=0 note=75 velocity=108 time=0
note_on channel=0 note=71 velocity=0 time=94
note_on channel=0 note=75 velocity=0 time=0
note_on channel=0 note=71 velocity=108 time=2
note_on channel=0 note=75 velocity=108 time=0
note_on channel=0 note=71 velocity=0 time=94
note_on channel=0 note=75 velocity=0 time=0
note_on channel=0 note=71 velocity=108 time=98
note_on channel=0 note=75 velocity=108 time=0
note_on channel=0 note=71 velocity=0 time=94
note_on channel=0 note=75 velocity=0 time=0
note_on channel=0 note=78 velocity=108 time=2
note_on channel=0 note=78 velocity=0 time=46
note_on channel=0 note=83 velocity=108 time=2
note_on channel=0 note=83 velocity=0 time=46
note_on channel=0 note=87 velocity=108 time=2
note_on channel=0 note=87 velocity=0 time=46
note_on channel=0 note=90 velocity=108 time=2
note_on channel=0 note=90 velocity=0 time=46
note_on channel=0 note=90 velocity=108 time=2
note_on channel=0 note=90 velocity=0 time=94
control_change channel=0 control=64 value=127 time=2
note_on channel=0 note=95 velocity=92 time=0
note_on channel=0 note=95 velocity=0 time=46
note_on channel=0 note=90 velocity=92 time=2
note_on channel=0 note=90 velocity=0 time=46
note_on channel=0 note=87 velocity=92 time=2
note_on channel=0 note=87 velocity=0 time=46
note_on channel=0 note=83 velocity=92 time=2
note_on channel=0 note=83 velocity=0 time=46
note_on channel=0 note=78 velocity=92 time=2
note_on channel=0 note=78 velocity=0 time=46
note_on channel=0 note=75 velocity=92 time=2
note_on channel=0 note=75 velocity=0 time=46
note_on channel=0 note=69 velocity=92 time=2
note_on channel=0 note=69 velocity=0 time=46
note_on channel=0 note=71 velocity=92 time=2
note_on channel=0 note=71 velocity=0 time=46
note_on channel=0 note=76 velocity=92 time=2
note_on channel=0 note=76 velocity=0 time=46
note_on channel=0 note=78 velocity=92 time=2
note_on channel=0 note=78 velocity=0 time=46
control_change channel=0 control=64 value=0 time=2
control_change channel=0 control=64 value=127 time=0
note_on channel=0 note=71 velocity=92 time=0
note_on channel=0 note=72 velocity=92 time=0
note_on channel=0 note=76 velocity=92 time=0
note_on channel=0 note=79 velocity=92 time=0
note_on channel=0 note=71 velocity=0 time=336
note_on channel=0 note=72 velocity=0 time=0
note_on channel=0 note=76 velocity=0 time=0
note_on channel=0 note=79 velocity=0 time=0
note_on channel=0 note=78 velocity=92 time=48
note_on channel=0 note=78 velocity=0 time=94
note_on channel=0 note=76 velocity=92 time=2
note_on channel=0 note=76 velocity=0 time=94
control_change channel=0 control=64 value=0 time=2
control_change channel=0 control=64 value=127 time=0
note_on channel=0 note=71 velocity=92 time=0
note_on channel=0 note=74 velocity=92 time=0
note_on channel=0 note=78 velocity=92 time=0
note_on channel=0 note=71 velocity=0 time=336
note_on channel=0 note=74 velocity=0 time=0
note_on channel=0 note=78 velocity=0 time=0
note_on channel=0 note=74 velocity=92 time=48
note_on channel=0 note=74 velocity=0 time=160
control_change channel=0 control=64 value=0 time=32
control_change channel=0 control=64 value=127 time=0
note_on channel=0 note=60 velocity=92 time=0
note_on channel=0 note=65 velocity=92 time=0
note_on channel=0 note=69 velocity=92 time=0
note_on channel=0 note=60 velocity=0 time=336
note_on channel=0 note=65 velocity=0 time=0
note_on channel=0 note=69 velocity=0 time=0
note_on channel=0 note=74 velocity=92 time=48
note_on channel=0 note=74 velocity=0 time=160
control_change channel=0 control=64 value=0 time=32
control_change channel=0 control=64 value=127 time=0
note_on channel=0 note=63 velocity=92 time=0
note_on channel=0 note=66 velocity=92 time=0
note_on channel=0 note=71 velocity=92 time=0
note_on channel=0 note=63 velocity=0 time=336
note_on channel=0 note=66 velocity=0 time=0
note_on channel=0 note=71 velocity=0 time=0
note_on channel=0 note=69 velocity=92 time=48
note_on channel=0 note=69 velocity=0 time=46
note_on channel=0 note=71 velocity=92 time=2
note_on channel=0 note=71 velocity=0 time=46
note_on channel=0 note=72 velocity=92 time=2
note_on channel=0 note=72 velocity=0 time=46
note_on channel=0 note=74 velocity=92 time=2
note_on channel=0 note=74 velocity=0 time=46
control_change channel=0 control=64 value=0 time=2
control_change channel=0 control=64 value=127 time=0
note_on channel=0 note=68 velocity=92 time=0
note_on channel=0 note=69 velocity=92 time=0
note_on channel=0 note=73 velocity=92 time=0
note_on channel=0 note=76 velocity=92 time=0
note_on channel=0 note=68 velocity=0 time=336
note_on channel=0 note=69 velocity=0 time=0
note_on channel=0 note=73 velocity=0 time=0
note_on channel=0 note=76 velocity=0 time=0
note_on channel=0 note=75 velocity=92 time=48
note_on channel=0 note=75 velocity=0 time=94
note_on channel=0 note=73 velocity=92 time=2
note_on channel=0 note=73 velocity=0 time=94
control_change channel=0 control=64 value=0 time=2
control_change channel=0 control=64 value=127 time=0
note_on channel=0 note=68 velocity=92 time=0
note_on channel=0 note=71 velocity=92 time=0
note_on channel=0 note=75 velocity=92 time=0
note_on channel=0 note=68 velocity=0 time=336
note_on channel=0 note=71 velocity=0 time=0
note_on channel=0 note=75 velocity=0 time=0
note_on channel=0 note=71 velocity=92 time=48
note_on channel=0 note=71 velocity=0 time=160
control_change channel=0 control=64 value=0 time=32
control_change channel=0 control=64 value=127 time=0
note_on channel=0 note=57 velocity=92 time=0
note_on channel=0 note=62 velocity=92 time=0
note_on channel=0 note=66 velocity=92 time=0
note_on channel=0 note=57 velocity=0 time=336
note_on channel=0 note=62 velocity=0 time=0
note_on channel=0 note=66 velocity=0 time=0
note_on channel=0 note=71 velocity=92 time=48
note_on channel=0 note=71 velocity=0 time=160
control_change channel=0 control=64 value=0 time=32
control_change channel=0 control=64 value=127 time=0
note_on channel=0 note=60 velocity=92 time=0
note_on channel=0 note=63 velocity=92 time=0
note_on channel=0 note=68 velocity=92 time=0
note_on channel=0 note=60 velocity=0 time=336
note_on channel=0 note=63 velocity=0 time=0
note_on channel=0 note=68 velocity=0 time=0
note_on channel=0 note=66 velocity=92 time=48
note_on channel=0 note=66 velocity=0 time=46
note_on channel=0 note=68 velocity=92 time=2
note_on channel=0 note=68 velocity=0 time=46
note_on channel=0 note=69 velocity=92 time=2
note_on channel=0 note=69 velocity=0 time=46
note_on channel=0 note=71 velocity=92 time=2
note_on channel=0 note=71 velocity=0 time=46
control_change channel=0 control=64 value=0 time=2
control_change channel=0 control=64 value=127 time=0
note_on channel=0 note=62 velocity=92 time=0
note_on channel=0 note=65 velocity=92 time=0
note_on channel=0 note=69 velocity=92 time=0
note_on channel=0 note=62 velocity=0 time=1104
note_on channel=0 note=65 velocity=0 time=0
note_on channel=0 note=69 velocity=0 time=0
note_on channel=0 note=65 velocity=70 time=48
note_on channel=0 note=65 velocity=0 time=256
note_on channel=0 note=69 velocity=75 time=32
note_on channel=0 note=69 velocity=0 time=256
note_on channel=0 note=71 velocity=80 time=32
note_on channel=0 note=71 velocity=0 time=256
note_on channel=0 note=77 velocity=86 time=32
note_on channel=0 note=77 velocity=0 time=256
note_on channel=0 note=89 velocity=92 time=32
note_on channel=0 note=89 velocity=0 time=160
control_change channel=0 control=64 value=0 time=416
control_change channel=0 control=64 value=127 time=0
note_on channel=0 note=62 velocity=108 time=0
note_on channel=0 note=64 velocity=108 time=0
note_on channel=0 note=69 velocity=108 time=0
note_on channel=0 note=62 velocity=0 time=94
note_on channel=0 note=64 velocity=0 time=0
note_on channel=0 note=69 velocity=0 time=0
note_on channel=0 note=62 velocity=92 time=2
note_on channel=0 note=64 velocity=92 time=0
note_on channel=0 note=69 velocity=92 time=0
note_on channel=0 note=62 velocity=0 time=46
note_on channel=0 note=64 velocity=0 time=0
note_on channel=0 note=69 velocity=0 time=0
note_on channel=0 note=71 velocity=92 time=2
note_on channel=0 note=71 velocity=0 time=46
note_on channel=0 note=74 velocity=92 time=2
note_on channel=0 note=74 velocity=0 time=46
note_on channel=0 note=71 velocity=92 time=2
note_on channel=0 note=71 velocity=0 time=46
note_on channel=0 note=64 velocity=92 time=2
note_on channel=0 note=64 velocity=0 time=46
note_on channel=0 note=66 velocity=92 time=2
note_on channel=0 note=66 velocity=0 time=46
note_on channel=0 note=69 velocity=92 time=2
note_on channel=0 note=69 velocity=0 time=46
note_on channel=0 note=71 velocity=92 time=2
note_on channel=0 note=71 velocity=0 time=46
note_on channel=0 note=74 velocity=92 time=2
note_on channel=0 note=74 velocity=0 time=46
note_on channel=0 note=76 velocity=92 time=2
note_on channel=0 note=76 velocity=0 time=46
control_change channel=0 control=64 value=0 time=2
control_change channel=0 control=64 value=127 time=0
note_on channel=0 note=79 velocity=92 time=0
note_on channel=0 note=79 velocity=0 time=46
note_on channel=0 note=78 velocity=92 time=2
note_on channel=0 note=78 velocity=0 time=46
note_on channel=0 note=74 velocity=92 time=2
note_on channel=0 note=74 velocity=0 time=46
note_on channel=0 note=76 velocity=92 time=2
note_on channel=0 note=76 velocity=0 time=46
note_on channel=0 note=71 velocity=92 time=2
note_on channel=0 note=71 velocity=0 time=46
note_on channel=0 note=67 velocity=92 time=2
note_on channel=0 note=67 velocity=0 time=46
note_on channel=0 note=69 velocity=92 time=2
note_on channel=0 note=69 velocity=0 time=46
note_on channel=0 note=74 velocity=92 time=2
note_on channel=0 note=74 velocity=0 time=46
note_on channel=0 note=71 velocity=92 time=2
note_on channel=0 note=71 velocity=0 time=46
note_on channel=0 note=67 velocity=92 time=2
note_on channel=0 note=67 velocity=0 time=46
note_on channel=0 note=69 velocity=92 time=2
note_on channel=0 note=69 velocity=0 time=46
note_on channel=0 note=62 velocity=92 time=2
note_on channel=0 note=62 velocity=0 time=46
control_change channel=0 control=64 value=0 time=2
control_change channel=0 control=64 value=127 time=0
note_on channel=0 note=64 velocity=92 time=0
note_on channel=0 note=64 velocity=0 time=46
note_on channel=0 note=71 velocity=92 time=2
note_on channel=0 note=71 velocity=0 time=46
note_on channel=0 note=64 velocity=92 time=2
note_on channel=0 note=64 velocity=0 time=46
note_on channel=0 note=69 velocity=92 time=2
note_on channel=0 note=69 velocity=0 time=46
note_on channel=0 note=59 velocity=92 time=2
note_on channel=0 note=59 velocity=0 time=46
note_on channel=0 note=58 velocity=92 time=2
note_on channel=0 note=58 velocity=0 time=46
note_on channel=0 note=62 velocity=92 time=2
note_on channel=0 note=62 velocity=0 time=46
note_on channel=0 note=69 velocity=92 time=2
note_on channel=0 note=69 velocity=0 time=46
note_on channel=0 note=66 velocity=92 time=2
note_on channel=0 note=66 velocity=0 time=46
note_on channel=0 note=71 velocity=92 time=2
note_on channel=0 note=71 velocity=0 time=46
note_on channel=0 note=78 velocity=92 time=2
note_on channel=0 note=78 velocity=0 time=46
note_on channel=0 note=81 velocity=92 time=2
note_on channel=0 note=81 velocity=0 time=46
control_change channel=0 control=64 value=0 time=2
control_change channel=0 control=64 value=127 time=0
note_on channel=0 note=88 velocity=92 time=0
note_on channel=0 note=88 velocity=0 time=46
note_on channel=0 note=86 velocity=92 time=2
note_on channel=0 note=86 velocity=0 time=46
note_on channel=0 note=83 velocity=92 time=2
note_on channel=0 note=83 velocity=0 time=46
note_on channel=0 note=78 velocity=92 time=2
note_on channel=0 note=78 velocity=0 time=46
note_on channel=0 note=81 velocity=92 time=2
note_on channel=0 note=81 velocity=0 time=46
note_on channel=0 note=74 velocity=92 time=2
note_on channel=0 note=74 velocity=0 time=46
note_on channel=0 note=77 velocity=92 time=2
note_on channel=0 note=77 velocity=0 time=46
note_on channel=0 note=74 velocity=92 time=2
note_on channel=0 note=74 velocity=0 time=46
note_on channel=0 note=71 velocity=92 time=2
note_on channel=0 note=71 velocity=0 time=46
note_on channel=0 note=65 velocity=92 time=2
note_on channel=0 note=65 velocity=0 time=46
note_on channel=0 note=69 velocity=92 time=2
note_on channel=0 note=69 velocity=0 time=46
note_on channel=0 note=62 velocity=92 time=2
note_on channel=0 note=62 velocity=0 time=46
note_on channel=0 note=64 velocity=92 time=2
note_on channel=0 note=64 velocity=0 time=46
note_on channel=0 note=66 velocity=92 time=2
note_on channel=0 note=66 velocity=0 time=46
note_on channel=0 note=69 velocity=92 time=2
note_on channel=0 note=69 velocity=0 time=46
note_on channel=0 note=71 velocity=92 time=2
note_on channel=0 note=71 velocity=0 time=46
control_change channel=0 control=64 value=0 time=2
control_change channel=0 control=64 value=127 time=0
note_on channel=0 note=67 velocity=127 time=0
note_on channel=0 note=69 velocity=127 time=0
note_on channel=0 note=74 velocity=127 time=0
note_on channel=0 note=67 velocity=0 time=94
note_on channel=0 note=69 velocity=0 time=0
note_on channel=0 note=74 velocity=0 time=0
note_on channel=0 note=64 velocity=92 time=2
note_on channel=0 note=64 velocity=0 time=46
note_on channel=0 note=66 velocity=92 time=2
note_on channel=0 note=66 velocity=0 time=46
note_on channel=0 note=69 velocity=92 time=2
note_on channel=0 note=69 velocity=0 time=46
note_on channel=0 note=71 velocity=92 time=2
note_on channel=0 note=71 velocity=0 time=46
note_on channel=0 note=74 velocity=92 time=2
note_on channel=0 note=74 velocity=0 time=46
note_on channel=0 note=76 velocity=92 time=2
note_on channel=0 note=76 velocity=0 time=46
note_on channel=0 note=79 velocity=92 time=2
note_on channel=0 note=79 velocity=0 time=46
note_on channel=0 note=78 velocity=92 time=2
note_on channel=0 note=78 velocity=0 time=46
note_on channel=0 note=74 velocity=92 time=2
note_on channel=0 note=74 velocity=0 time=46
note_on channel=0 note=76 velocity=92 time=2
note_on channel=0 note=76 velocity=0 time=46
note_on channel=0 note=71 velocity=92 time=2
note_on channel=0 note=71 velocity=0 time=46
note_on channel=0 note=67 velocity=92 time=2
note_on channel=0 note=67 velocity=0 time=46
note_on channel=0 note=69 velocity=92 time=2
note_on channel=0 note=69 velocity=0 time=46
note_on channel=0 note=74 velocity=92 time=2
note_on channel=0 note=74 velocity=0 time=46
control_change channel=0 control=64 value=0 time=2
control_change channel=0 control=64 value=127 time=0
note_on channel=0 note=71 velocity=92 time=0
note_on channel=0 note=71 velocity=0 time=46
note_on channel=0 note=67 velocity=92 time=2
note_on channel=0 note=67 velocity=0 time=46
note_on channel=0 note=69 velocity=92 time=2
note_on channel=0 note=69 velocity=0 time=46
note_on channel=0 note=64 velocity=92 time=2
note_on channel=0 note=64 velocity=0 time=46
note_on channel=0 note=79 velocity=92 time=2
note_on channel=0 note=79 velocity=0 time=46
note_on channel=0 note=67 velocity=92 time=2
note_on channel=0 note=67 velocity=0 time=46
note_on channel=0 note=64 velocity=92 time=2
note_on channel=0 note=64 velocity=0 time=46
note_on channel=0 note=69 velocity=92 time=2
note_on channel=0 note=69 velocity=0 time=46
note_on channel=0 note=59 velocity=92 time=2
note_on channel=0 note=59 velocity=0 time=46
note_on channel=0 note=58 velocity=92 time=2
note_on channel=0 note=58 velocity=0 time=46
note_on channel=0 note=59 velocity=92 time=2
note_on channel=0 note=59 velocity=0 time=46
note_on channel=0 note=70 velocity=92 time=2
note_on channel=0 note=70 velocity=0 time=46
note_on channel=0 note=59 velocity=92 time=2
note_on channel=0 note=59 velocity=0 time=46
note_on channel=0 note=58 velocity=92 time=2
note_on channel=0 note=58 velocity=0 time=46
note_on channel=0 note=71 velocity=92 time=2
note_on channel=0 note=71 velocity=0 time=46
note_on channel=0 note=81 velocity=92 time=2
note_on channel=0 note=81 velocity=0 time=46
control_change channel=0 control=64 value=0 time=2
control_change channel=0 control=64 value=127 time=0
note_on channel=0 note=74 velocity=92 time=0
note_on channel=0 note=74 velocity=0 time=30
note_on channel=0 note=86 velocity=92 time=2
note_on channel=0 note=86 velocity=0 time=30
note_on channel=0 note=88 velocity=92 time=2
note_on channel=0 note=88 velocity=0 time=30
note_on channel=0 note=86 velocity=92 time=2
note_on channel=0 note=86 velocity=0 time=46
note_on channel=0 note=74 velocity=92 time=2
note_on channel=0 note=74 velocity=0 time=46
note_on channel=0 note=81 velocity=92 time=2
note_on channel=0 note=81 velocity=0 time=46
note_on channel=0 note=74 velocity=92 time=2
note_on channel=0 note=74 velocity=0 time=46
note_on channel=0 note=69 velocity=92 time=2
note_on channel=0 note=69 velocity=0 time=46
note_on channel=0 note=77 velocity=92 time=2
note_on channel=0 note=77 velocity=0 time=46
note_on channel=0 note=88 velocity=92 time=2
note_on channel=0 note=88 velocity=0 time=30
note_on channel=0 note=86 velocity=92 time=2
note_on channel=0 note=86 velocity=0 time=30
note_on channel=0 note=83 velocity=92 time=2
note_on channel=0 note=83 velocity=0 time=30
note_on channel=0 note=81 velocity=92 time=2
note_on channel=0 note=81 velocity=0 time=30
note_on channel=0 note=77 velocity=92 time=2
note_on channel=0 note=77 velocity=0 time=30
note_on channel=0 note=74 velocity=92 time=2
note_on channel=0 note=74 velocity=0 time=30
note_on channel=0 note=64 velocity=92 time=2
note_on channel=0 note=64 velocity=0 time=46
note_on channel=0 note=66 velocity=92 time=2
note_on channel=0 note=66 velocity=0 time=46
note_on channel=0 note=69 velocity=92 time=2
note_on channel=0 note=69 velocity=0 time=46
note_on channel=0 note=71 velocity=92 time=2
note_on channel=0 note=71 velocity=0 time=46
control_change channel=0 control=64 value=0 time=2
control_change channel=0 control=64 value=127 time=0
note_on channel=0 note=67 velocity=127 time=0
note_on channel=0 note=69 velocity=127 time=0
note_on channel=0 note=74 velocity=127 time=0
note_on channel=0 note=67 velocity=0 time=94
note_on channel=0 note=69 velocity=0 time=0
note_on channel=0 note=74 velocity=0 time=0
note_on channel=0 note=64 velocity=92 time=2
note_on channel=0 note=64 velocity=0 time=46
note_on channel=0 note=66 velocity=92 time=2
note_on channel=0 note=66 velocity=0 time=46
note_on channel=0 note=69 velocity=92 time=2
note_on channel=0 note=69 velocity=0 time=46
note_on channel=0 note=71 velocity=92 time=2
note_on channel=0 note=71 velocity=0 time=46
note_on channel=0 note=74 velocity=92 time=2
note_on channel=0 note=74 velocity=0 time=46
note_on channel=0 note=76 velocity=92 time=2
note_on channel=0 note=76 velocity=0 time=46
control_change channel=0 control=64 value=0 time=2
control_change channel=0 control=64 value=127 time=0
note_on channel=0 note=79 velocity=92 time=0
note_on channel=0 note=79 velocity=0 time=46
note_on channel=0 note=78 velocity=92 time=2
note_on channel=0 note=78 velocity=0 time=46
note_on channel=0 note=74 velocity=92 time=2
note_on channel=0 note=74 velocity=0 time=46
note_on channel=0 note=76 velocity=92 time=2
note_on channel=0 note=76 velocity=0 time=46
note_on channel=0 note=71 velocity=92 time=2
note_on channel=0 note=71 velocity=0 time=46
note_on channel=0 note=67 velocity=92 time=2
note_on channel=0 note=67 velocity=0 time=46
note_on channel=0 note=69 velocity=92 time=2
note_on channel=0 note=69 velocity=0 time=46
note_on channel=0 note=74 velocity=92 time=2
note_on channel=0 note=74 velocity=0 time=46
note_on channel=0 note=71 velocity=92 time=2
note_on channel=0 note=71 velocity=0 time=46
note_on channel=0 note=67 velocity=92 time=2
note_on channel=0 note=67 velocity=0 time=46
note_on channel=0 note=69 velocity=92 time=2
note_on channel=0 note=69 velocity=0 time=46
note_on channel=0 note=62 velocity=92 time=2
note_on channel=0 note=62 velocity=0 time=46
control_change channel=0 control=64 value=127 time=2
note_on channel=0 note=64 velocity=92 time=0
note_on channel=0 note=64 velocity=0 time=46
note_on channel=0 note=71 velocity=92 time=2
note_on channel=0 note=71 velocity=0 time=46
note_on channel=0 note=64 velocity=92 time=2
note_on channel=0 note=64 velocity=0 time=46
note_on channel=0 note=69 velocity=92 time=2
note_on channel=0 note=69 velocity=0 time=46
note_on channel=0 note=59 velocity=92 time=2
note_on channel=0 note=59 velocity=0 time=46
note_on channel=0 note=58 velocity=92 time=2
note_on channel=0 note=58 velocity=0 time=46
note_on channel=0 note=62 velocity=92 time=2
note_on channel=0 note=62 velocity=0 time=46
note_on channel=0 note=69 velocity=92 time=2
note_on channel=0 note=69 velocity=0 time=46
note_on channel=0 note=66 velocity=92 time=2
note_on channel=0 note=66 velocity=0 time=46
note_on channel=0 note=71 velocity=92 time=2
note_on channel=0 note=71 velocity=0 time=46
note_on channel=0 note=78 velocity=92 time=2
note_on channel=0 note=78 velocity=0 time=46
note_on channel=0 note=81 velocity=92 time=2
note_on channel=0 note=81 velocity=0 time=46
control_change channel=0 control=64 value=0 time=2
control_change channel=0 control=64 value=127 time=0
note_on channel=0 note=88 velocity=92 time=0
note_on channel=0 note=88 velocity=0 time=46
note_on channel=0 note=86 velocity=92 time=2
note_on channel=0 note=86 velocity=0 time=46
note_on channel=0 note=83 velocity=92 time=2
note_on channel=0 note=83 velocity=0 time=46
note_on channel=0 note=78 velocity=92 time=2
note_on channel=0 note=78 velocity=0 time=46
note_on channel=0 note=81 velocity=92 time=2
note_on channel=0 note=81 velocity=0 time=46
note_on channel=0 note=74 velocity=92 time=2
note_on channel=0 note=74 velocity=0 time=46
note_on channel=0 note=77 velocity=92 time=2
note_on channel=0 note=77 velocity=0 time=46
note_on channel=0 note=74 velocity=92 time=2
note_on channel=0 note=74 velocity=0 time=46
note_on channel=0 note=71 velocity=92 time=2
note_on channel=0 note=71 velocity=0 time=46
note_on channel=0 note=65 velocity=92 time=2
note_on channel=0 note=65 velocity=0 time=46
note_on channel=0 note=69 velocity=92 time=2
note_on channel=0 note=69 velocity=0 time=46
note_on channel=0 note=62 velocity=92 time=2
note_on channel=0 note=62 velocity=0 time=46
note_on channel=0 note=64 velocity=92 time=2
note_on channel=0 note=64 velocity=0 time=46
note_on channel=0 note=66 velocity=92 time=2
note_on channel=0 note=66 velocity=0 time=46
note_on channel=0 note=69 velocity=92 time=2
note_on channel=0 note=69 velocity=0 time=46
note_on channel=0 note=71 velocity=92 time=2
note_on channel=0 note=71 velocity=0 time=46
control_change channel=0 control=64 value=0 time=2
control_change channel=0 control=64 value=127 time=0
note_on channel=0 note=67 velocity=108 time=0
note_on channel=0 note=69 velocity=108 time=0
note_on channel=0 note=74 velocity=108 time=0
note_on channel=0 note=67 velocity=0 time=94
note_on channel=0 note=69 velocity=0 time=0
note_on channel=0 note=74 velocity=0 time=0
note_on channel=0 note=64 velocity=92 time=2
note_on channel=0 note=64 velocity=0 time=46
note_on channel=0 note=66 velocity=92 time=2
note_on channel=0 note=66 velocity=0 time=46
note_on channel=0 note=69 velocity=92 time=2
note_on channel=0 note=69 velocity=0 time=46
note_on channel=0 note=71 velocity=92 time=2
note_on channel=0 note=71 velocity=0 time=46
note_on channel=0 note=74 velocity=92 time=2
note_on channel=0 note=74 velocity=0 time=46
note_on channel=0 note=76 velocity=92 time=2
note_on channel=0 note=76 velocity=0 time=46
note_on channel=0 note=64 velocity=92 time=2
note_on channel=0 note=64 velocity=0 time=46
note_on channel=0 note=66 velocity=92 time=2
note_on channel=0 note=66 velocity=0 time=46
note_on channel=0 note=69 velocity=92 time=2
note_on channel=0 note=69 velocity=0 time=46
note_on channel=0 note=71 velocity=92 time=2
note_on channel=0 note=71 velocity=0 time=46
control_change channel=0 control=64 value=0 time=2
control_change channel=0 control=64 value=127 time=0
note_on channel=0 note=67 velocity=108 time=0
note_on channel=0 note=69 velocity=108 time=0
note_on channel=0 note=74 velocity=108 time=0
note_on channel=0 note=67 velocity=0 time=94
note_on channel=0 note=69 velocity=0 time=0
note_on channel=0 note=74 velocity=0 time=0
note_on channel=0 note=64 velocity=92 time=2
note_on channel=0 note=64 velocity=0 time=46
note_on channel=0 note=66 velocity=92 time=2
note_on channel=0 note=66 velocity=0 time=46
note_on channel=0 note=69 velocity=92 time=2
note_on channel=0 note=69 velocity=0 time=30
note_on channel=0 note=71 velocity=92 time=2
note_on channel=0 note=71 velocity=0 time=30
note_on channel=0 note=74 velocity=92 time=2
note_on channel=0 note=74 velocity=0 time=30
note_on channel=0 note=76 velocity=92 time=2
note_on channel=0 note=76 velocity=0 time=30
note_on channel=0 note=78 velocity=92 time=2
note_on channel=0 note=78 velocity=0 time=30
note_on channel=0 note=81 velocity=92 time=2
note_on channel=0 note=81 velocity=0 time=30
control_change channel=0 control=64 value=0 time=2
control_change channel=0 control=64 value=127 time=0
note_on channel=0 note=69 velocity=108 time=0
note_on channel=0 note=71 velocity=108 time=0
note_on channel=0 note=74 velocity=108 time=0
note_on channel=0 note=78 velocity=108 time=0
note_on channel=0 note=69 velocity=0 time=94
note_on channel=0 note=71 velocity=0 time=0
note_on channel=0 note=74 velocity=0 time=0
note_on channel=0 note=78 velocity=0 time=0
note_on channel=0 note=69 velocity=92 time=2
note_on channel=0 note=69 velocity=0 time=30
note_on channel=0 note=71 velocity=93 time=2
note_on channel=0 note=71 velocity=0 time=30
note_on channel=0 note=74 velocity=94 time=2
note_on channel=0 note=74 velocity=0 time=30
note_on channel=0 note=76 velocity=95 time=2
note_on channel=0 note=76 velocity=0 time=30
note_on channel=0 note=78 velocity=96 time=2
note_on channel=0 note=78 velocity=0 time=30
note_on channel=0 note=81 velocity=97 time=2
note_on channel=0 note=81 velocity=0 time=30
note_on channel=0 note=86 velocity=98 time=2
note_on channel=0 note=86 velocity=0 time=46
note_on channel=0 note=88 velocity=99 time=2
note_on channel=0 note=88 velocity=0 time=46
note_on channel=0 note=90 velocity=100 time=2
note_on channel=0 note=90 velocity=0 time=62
note_on channel=0 note=93 velocity=102 time=2
note_on channel=0 note=93 velocity=0 time=62
note_on channel=0 note=95 velocity=105 time=2
note_on channel=0 note=95 velocity=0 time=62
control_change channel=0 control=64 value=0 time=2
control_change channel=0 control=64 value=127 time=0
note_on channel=0 note=102 velocity=108 time=0
note_on channel=0 note=102 velocity=0 time=46
note_on channel=0 note=99 velocity=108 time=2
note_on channel=0 note=99 velocity=0 time=46
note_on channel=0 note=93 velocity=108 time=2
note_on channel=0 note=93 velocity=0 time=46
note_on channel=0 note=95 velocity=108 time=2
note_on channel=0 note=95 velocity=0 time=46
note_on channel=0 note=90 velocity=108 time=2
note_on channel=0 note=90 velocity=0 time=46
note_on channel=0 note=93 velocity=108 time=2
note_on channel=0 note=93 velocity=0 time=46
note_on channel=0 note=87 velocity=108 time=2
note_on channel=0 note=87 velocity=0 time=30
note_on channel=0 note=83 velocity=108 time=2
note_on channel=0 note=83 velocity=0 time=30
note_on channel=0 note=81 velocity=108 time=2
note_on channel=0 note=81 velocity=0 time=30
note_on channel=0 note=78 velocity=108 time=2
note_on channel=0 note=78 velocity=0 time=30
note_on channel=0 note=75 velocity=108 time=2
note_on channel=0 note=75 velocity=0 time=30
note_on channel=0 note=71 velocity=108 time=2
note_on channel=0 note=71 velocity=0 time=30
note_on channel=0 note=69 velocity=108 time=2
note_on channel=0 note=69 velocity=0 time=624
note_on channel=0 note=66 velocity=127 time=240
note_on channel=0 note=71 velocity=127 time=0
note_on channel=0 note=66 velocity=0 time=160
note_on channel=0 note=71 velocity=0 time=0
note_on channel=0 note=79 velocity=127 time=32
note_on channel=0 note=79 velocity=0 time=160
control_change channel=0 control=64 value=0 time=32
control_change channel=0 control=64 value=127 time=0
note_on channel=0 note=64 velocity=127 time=0
note_on channel=0 note=64 velocity=0 time=46
note_on channel=0 note=69 velocity=108 time=2
note_on channel=0 note=69 velocity=0 time=46
note_on channel=0 note=71 velocity=108 time=2
note_on channel=0 note=71 velocity=0 time=46
note_on channel=0 note=74 velocity=108 time=2
note_on channel=0 note=74 velocity=0 time=46
note_on channel=0 note=76 velocity=108 time=2
note_on channel=0 note=76 velocity=0 time=46
note_on channel=0 note=81 velocity=108 time=2
note_on channel=0 note=81 velocity=0 time=46
note_on channel=0 note=71 velocity=108 time=2
note_on channel=0 note=71 velocity=0 time=46
note_on channel=0 note=69 velocity=108 time=2
note_on channel=0 note=69 velocity=0 time=46
note_on channel=0 note=71 velocity=108 time=2
note_on channel=0 note=71 velocity=0 time=46
note_on channel=0 note=74 velocity=108 time=2
note_on channel=0 note=74 velocity=0 time=46
note_on channel=0 note=76 velocity=108 time=2
note_on channel=0 note=76 velocity=0 time=46
note_on channel=0 note=81 velocity=108 time=2
note_on channel=0 note=81 velocity=0 time=46
note_on channel=0 note=65 velocity=108 time=2
note_on channel=0 note=65 velocity=0 time=46
note_on channel=0 note=69 velocity=108 time=2
note_on channel=0 note=69 velocity=0 time=46
note_on channel=0 note=71 velocity=108 time=2
note_on channel=0 note=71 velocity=0 time=46
note_on channel=0 note=74 velocity=108 time=2
note_on channel=0 note=74 velocity=0 time=46
note_on channel=0 note=76 velocity=108 time=2
note_on channel=0 note=76 velocity=0 time=46
note_on channel=0 note=81 velocity=108 time=2
note_on channel=0 note=81 velocity=0 time=46
note_on channel=0 note=83 velocity=108 time=2
note_on channel=0 note=83 velocity=0 time=46
note_on channel=0 note=81 velocity=108 time=2
note_on channel=0 note=81 velocity=0 time=46
note_on channel=0 note=74 velocity=108 time=2
note_on channel=0 note=74 velocity=0 time=46
note_on channel=0 note=71 velocity=108 time=2
note_on channel=0 note=71 velocity=0 time=46
note_on channel=0 note=69 velocity=108 time=2
note_on channel=0 note=69 velocity=0 time=46
note_on channel=0 note=65 velocity=108 time=2
note_on channel=0 note=65 velocity=0 time=46
control_change channel=0 control=64 value=0 time=2
control_change channel=0 control=64 value=127 time=0
note_on channel=0 note=66 velocity=108 time=0
note_on channel=0 note=66 velocity=0 time=46
note_on channel=0 note=69 velocity=108 time=2
note_on channel=0 note=69 velocity=0 time=46
note_on channel=0 note=71 velocity=108 time=2
note_on channel=0 note=71 velocity=0 time=46
note_on channel=0 note=74 velocity=108 time=2
note_on channel=0 note=74 velocity=0 time=46
note_on channel=0 note=76 velocity=108 time=2
note_on channel=0 note=76 velocity=0 time=46
note_on channel=0 note=81 velocity=108 time=2
note_on channel=0 note=81 velocity=0 time=46
note_on channel=0 note=88 velocity=108 time=2
note_on channel=0 note=88 velocity=0 time=46
note_on channel=0 note=86 velocity=108 time=2
note_on channel=0 note=86 velocity=0 time=46
note_on channel=0 note=81 velocity=108 time=2
note_on channel=0 note=81 velocity=0 time=46
note_on channel=0 note=88 velocity=108 time=2
note_on channel=0 note=88 velocity=0 time=46
note_on channel=0 note=86 velocity=108 time=2
note_on channel=0 note=86 velocity=0 time=46
note_on channel=0 note=81 velocity=108 time=2
note_on channel=0 note=81 velocity=0 time=46
note_on channel=0 note=88 velocity=108 time=2
note_on channel=0 note=88 velocity=0 time=46
note_on channel=0 note=86 velocity=108 time=2
note_on channel=0 note=86 velocity=0 time=46
note_on channel=0 note=88 velocity=108 time=2
note_on channel=0 note=88 velocity=0 time=30
note_on channel=0 note=86 velocity=108 time=2
note_on channel=0 note=86 velocity=0 time=30
note_on channel=0 note=88 velocity=108 time=2
note_on channel=0 note=88 velocity=0 time=30
note_on channel=0 note=86 velocity=108 time=2
note_on channel=0 note=86 velocity=0 time=30
note_on channel=0 note=88 velocity=108 time=2
note_on channel=0 note=88 velocity=0 time=30
note_on channel=0 note=86 velocity=108 time=2
note_on channel=0 note=86 velocity=0 time=30
note_on channel=0 note=81 velocity=108 time=2
note_on channel=0 note=81 velocity=0 time=30
note_on channel=0 note=77 velocity=108 time=2
note_on channel=0 note=77 velocity=0 time=30
note_on channel=0 note=76 velocity=108 time=2
note_on channel=0 note=76 velocity=0 time=30
note_on channel=0 note=74 velocity=108 time=2
note_on channel=0 note=74 velocity=0 time=46
note_on channel=0 note=71 velocity=108 time=2
note_on channel=0 note=71 velocity=0 time=46
note_on channel=0 note=69 velocity=108 time=2
note_on channel=0 note=69 velocity=0 time=94
control_change channel=0 control=64 value=0 time=2
control_change channel=0 control=64 value=127 time=0
note_on channel=0 note=71 velocity=108 time=0
note_on channel=0 note=71 velocity=0 time=46
note_on channel=0 note=69 velocity=108 time=2
note_on channel=0 note=69 velocity=0 time=46
note_on channel=0 note=71 velocity=108 time=2
note_on channel=0 note=71 velocity=0 time=46
note_on channel=0 note=74 velocity=108 time=2
note_on channel=0 note=74 velocity=0 time=46
note_on channel=0 note=71 velocity=108 time=2
note_on channel=0 note=71 velocity=0 time=46
note_on channel=0 note=69 velocity=108 time=2
note_on channel=0 note=69 velocity=0 time=46
note_on channel=0 note=64 velocity=108 time=2
note_on channel=0 note=64 velocity=0 time=46
note_on channel=0 note=74 velocity=108 time=2
note_on channel=0 note=74 velocity=0 time=46
note_on channel=0 note=67 velocity=108 time=2
note_on channel=0 note=67 velocity=0 time=46
note_on channel=0 note=69 velocity=108 time=2
note_on channel=0 note=69 velocity=0 time=46
note_on channel=0 note=71 velocity=108 time=2
note_on channel=0 note=71 velocity=0 time=46
note_on channel=0 note=69 velocity=108 time=2
note_on channel=0 note=69 velocity=0 time=46
control_change channel=0 control=64 value=0 time=2
control_change channel=0 control=64 value=127 time=0
note_on channel=0 note=64 velocity=108 time=0
note_on channel=0 note=64 velocity=0 time=46
note_on channel=0 note=74 velocity=108 time=2
note_on channel=0 note=74 velocity=0 time=46
note_on channel=0 note=67 velocity=108 time=2
note_on channel=0 note=67 velocity=0 time=46
note_on channel=0 note=69 velocity=108 time=2
note_on channel=0 note=69 velocity=0 time=46
note_on channel=0 note=71 velocity=108 time=2
note_on channel=0 note=71 velocity=0 time=46
note_on channel=0 note=74 velocity=108 time=2
note_on channel=0 note=74 velocity=0 time=46
note_on channel=0 note=76 velocity=108 time=2
note_on channel=0 note=76 velocity=0 time=46
note_on channel=0 note=74 velocity=108 time=2
note_on channel=0 note=74 velocity=0 time=46
note_on channel=0 note=71 velocity=108 time=2
note_on channel=0 note=71 velocity=0 time=46
note_on channel=0 note=81 velocity=108 time=2
note_on channel=0 note=81 velocity=0 time=46
note_on channel=0 note=76 velocity=108 time=2
note_on channel=0 note=76 velocity=0 time=46
note_on channel=0 note=69 velocity=108 time=2
note_on channel=0 note=69 velocity=0 time=46
control_change channel=0 control=64 value=0 time=2
control_change channel=0 control=64 value=127 time=0
note_on channel=0 note=65 velocity=108 time=0
note_on channel=0 note=65 velocity=0 time=46
note_on channel=0 note=69 velocity=108 time=2
note_on channel=0 note=69 velocity=0 time=46
note_on channel=0 note=71 velocity=108 time=2
note_on channel=0 note=71 velocity=0 time=46
note_on channel=0 note=74 velocity=108 time=2
note_on channel=0 note=74 velocity=0 time=46
note_on channel=0 note=77 velocity=108 time=2
note_on channel=0 note=77 velocity=0 time=46
note_on channel=0 note=81 velocity=108 time=2
note_on channel=0 note=81 velocity=0 time=46
note_on channel=0 note=83 velocity=108 time=2
note_on channel=0 note=83 velocity=0 time=46
note_on channel=0 note=86 velocity=108 time=2
note_on channel=0 note=86 velocity=0 time=46
note_on channel=0 note=89 velocity=108 time=2
note_on channel=0 note=89 velocity=0 time=30
note_on channel=0 note=95 velocity=108 time=2
note_on channel=0 note=95 velocity=0 time=30
note_on channel=0 note=98 velocity=108 time=2
note_on channel=0 note=98 velocity=0 time=30
note_on channel=0 note=89 velocity=108 time=2
note_on channel=0 note=89 velocity=0 time=30
note_on channel=0 note=95 velocity=108 time=2
note_on channel=0 note=95 velocity=0 time=30
note_on channel=0 note=98 velocity=108 time=2
note_on channel=0 note=98 velocity=0 time=30
control_change channel=0 control=64 value=0 time=2
control_change channel=0 control=64 value=127 time=0
note_on channel=0 note=100 velocity=108 time=0
note_on channel=0 note=100 velocity=0 time=30
note_on channel=0 note=98 velocity=108 time=2
note_on channel=0 note=98 velocity=0 time=30
note_on channel=0 note=95 velocity=108 time=2
note_on channel=0 note=95 velocity=0 time=30
note_on channel=0 note=93 velocity=108 time=2
note_on channel=0 note=93 velocity=0 time=30
note_on channel=0 note=91 velocity=108 time=2
note_on channel=0 note=91 velocity=0 time=30
note_on channel=0 note=86 velocity=108 time=2
note_on channel=0 note=86 velocity=0 time=30
note_on channel=0 note=95 velocity=108 time=2
note_on channel=0 note=95 velocity=0 time=30
note_on channel=0 note=93 velocity=108 time=2
note_on channel=0 note=93 velocity=0 time=30
note_on channel=0 note=91 velocity=108 time=2
note_on channel=0 note=91 velocity=0 time=30
note_on channel=0 note=88 velocity=108 time=2
note_on channel=0 note=88 velocity=0 time=30
note_on channel=0 note=86 velocity=108 time=2
note_on channel=0 note=86 velocity=0 time=30
note_on channel=0 note=83 velocity=108 time=2
note_on channel=0 note=83 velocity=0 time=30
note_on channel=0 note=79 velocity=108 time=2
note_on channel=0 note=79 velocity=0 time=46
note_on channel=0 note=74 velocity=108 time=2
note_on channel=0 note=74 velocity=0 time=142
control_change channel=0 control=64 value=0 time=2
control_change channel=0 control=64 value=127 time=0
note_on channel=0 note=64 velocity=127 time=0
note_on channel=0 note=64 velocity=0 time=46
note_on channel=0 note=69 velocity=108 time=2
note_on channel=0 note=69 velocity=0 time=46
note_on channel=0 note=71 velocity=108 time=2
note_on channel=0 note=71 velocity=0 time=46
note_on channel=0 note=69 velocity=108 time=2
note_on channel=0 note=69 velocity=0 time=46
note_on channel=0 note=71 velocity=108 time=2
note_on channel=0 note=71 velocity=0 time=46
note_on channel=0 note=74 velocity=108 time=2
note_on channel=0 note=74 velocity=0 time=46
note_on channel=0 note=74 velocity=108 time=2
note_on channel=0 note=74 velocity=0 time=46
note_on channel=0 note=71 velocity=108 time=2
note_on channel=0 note=71 velocity=0 time=46
note_on channel=0 note=76 velocity=108 time=2
note_on channel=0 note=76 velocity=0 time=46
note_on channel=0 note=71 velocity=108 time=2
note_on channel=0 note=71 velocity=0 time=142
control_change channel=0 control=64 value=0 time=2
control_change channel=0 control=64 value=127 time=0
note_on channel=0 note=79 velocity=108 time=0
note_on channel=0 note=79 velocity=0 time=46
note_on channel=0 note=78 velocity=108 time=2
note_on channel=0 note=78 velocity=0 time=46
note_on channel=0 note=79 velocity=108 time=2
note_on channel=0 note=79 velocity=0 time=46
note_on channel=0 note=81 velocity=108 time=2
note_on channel=0 note=81 velocity=0 time=46
note_on channel=0 note=83 velocity=108 time=2
note_on channel=0 note=83 velocity=0 time=46
note_on channel=0 note=81 velocity=108 time=2
note_on channel=0 note=81 velocity=0 time=46
note_on channel=0 note=86 velocity=108 time=2
note_on channel=0 note=86 velocity=0 time=46
note_on channel=0 note=95 velocity=108 time=2
note_on channel=0 note=95 velocity=0 time=46
note_on channel=0 note=93 velocity=108 time=2
note_on channel=0 note=93 velocity=0 time=46
note_on channel=0 note=91 velocity=108 time=2
note_on channel=0 note=91 velocity=0 time=46
note_on channel=0 note=90 velocity=108 time=2
note_on channel=0 note=90 velocity=0 time=46
note_on channel=0 note=86 velocity=108 time=2
note_on channel=0 note=86 velocity=0 time=46
control_change channel=0 control=64 value=0 time=2
control_change channel=0 control=64 value=127 time=0
note_on channel=0 note=91 velocity=108 time=0
note_on channel=0 note=91 velocity=0 time=46
note_on channel=0 note=90 velocity=108 time=2
note_on channel=0 note=90 velocity=0 time=46
note_on channel=0 note=83 velocity=108 time=2
note_on channel=0 note=83 velocity=0 time=46
note_on channel=0 note=91 velocity=108 time=2
note_on channel=0 note=91 velocity=0 time=46
note_on channel=0 note=90 velocity=108 time=2
note_on channel=0 note=90 velocity=0 time=46
note_on channel=0 note=86 velocity=108 time=2
note_on channel=0 note=86 velocity=0 time=46
note_on channel=0 note=83 velocity=108 time=2
note_on channel=0 note=83 velocity=0 time=46
note_on channel=0 note=79 velocity=108 time=2
note_on channel=0 note=79 velocity=0 time=46
note_on channel=0 note=71 velocity=108 time=2
note_on channel=0 note=71 velocity=0 time=46
note_on channel=0 note=74 velocity=108 time=2
note_on channel=0 note=74 velocity=0 time=46
note_on channel=0 note=76 velocity=108 time=2
note_on channel=0 note=76 velocity=0 time=46
note_on channel=0 note=79 velocity=108 time=2
note_on channel=0 note=79 velocity=0 time=46
control_change channel=0 control=64 value=0 time=2
control_change channel=0 control=64 value=127 time=0
note_on channel=0 note=81 velocity=108 time=0
note_on channel=0 note=81 velocity=0 time=46
note_on channel=0 note=83 velocity=108 time=2
note_on channel=0 note=83 velocity=0 time=46
note_on channel=0 note=86 velocity=108 time=2
note_on channel=0 note=86 velocity=0 time=30
note_on channel=0 note=88 velocity=108 time=2
note_on channel=0 note=88 velocity=0 time=30
note_on channel=0 note=86 velocity=108 time=2
note_on channel=0 note=86 velocity=0 time=30
note_on channel=0 note=83 velocity=108 time=2
note_on channel=0 note=83 velocity=0 time=46
note_on channel=0 note=79 velocity=108 time=2
note_on channel=0 note=79 velocity=0 time=46
note_on channel=0 note=76 velocity=108 time=2
note_on channel=0 note=76 velocity=0 time=46
note_on channel=0 note=71 velocity=108 time=2
note_on channel=0 note=71 velocity=0 time=46
note_on channel=0 note=69 velocity=108 time=2
note_on channel=0 note=69 velocity=0 time=30
note_on channel=0 note=71 velocity=108 time=2
note_on channel=0 note=71 velocity=0 time=30
note_on channel=0 note=74 velocity=108 time=2
note_on channel=0 note=74 velocity=0 time=30
note_on channel=0 note=76 velocity=108 time=2
note_on channel=0 note=76 velocity=0 time=30
note_on channel=0 note=79 velocity=108 time=2
note_on channel=0 note=79 velocity=0 time=30
note_on channel=0 note=83 velocity=108 time=2
note_on channel=0 note=83 velocity=0 time=30
control_change channel=0 control=64 value=0 time=2
control_change channel=0 control=64 value=127 time=0
note_on channel=0 note=76 velocity=108 time=0
note_on channel=0 note=76 velocity=0 time=46
note_on channel=0 note=81 velocity=108 time=2
note_on channel=0 note=81 velocity=0 time=46
note_on channel=0 note=83 velocity=108 time=2
note_on channel=0 note=83 velocity=0 time=46
note_on channel=0 note=86 velocity=108 time=2
note_on channel=0 note=86 velocity=0 time=46
note_on channel=0 note=88 velocity=108 time=2
note_on channel=0 note=88 velocity=0 time=46
note_on channel=0 note=93 velocity=108 time=2
note_on channel=0 note=93 velocity=0 time=46
note_on channel=0 note=95 velocity=108 time=2
note_on channel=0 note=95 velocity=0 time=30
note_on channel=0 note=91 velocity=108 time=2
note_on channel=0 note=91 velocity=0 time=30
note_on channel=0 note=88 velocity=108 time=2
note_on channel=0 note=88 velocity=0 time=30
note_on channel=0 note=76 velocity=108 time=2
note_on channel=0 note=76 velocity=0 time=46
note_on channel=0 note=79 velocity=108 time=2
note_on channel=0 note=79 velocity=0 time=46
note_on channel=0 note=76 velocity=108 time=2
note_on channel=0 note=76 velocity=0 time=46
note_on channel=0 note=71 velocity=108 time=2
note_on channel=0 note=71 velocity=0 time=46
control_change channel=0 control=64 value=0 time=2
control_change channel=0 control=64 value=127 time=0
note_on channel=0 note=69 velocity=108 time=0
note_on channel=0 note=69 velocity=0 time=46
note_on channel=0 note=76 velocity=108 time=2
note_on channel=0 note=76 velocity=0 time=46
note_on channel=0 note=81 velocity=108 time=2
note_on channel=0 note=81 velocity=0 time=46
note_on channel=0 note=84 velocity=108 time=2
note_on channel=0 note=84 velocity=0 time=46
note_on channel=0 note=88 velocity=108 time=2
note_on channel=0 note=88 velocity=0 time=46
note_on channel=0 note=93 velocity=108 time=2
note_on channel=0 note=93 velocity=0 time=46
note_on channel=0 note=95 velocity=108 time=2
note_on channel=0 note=95 velocity=0 time=30
note_on channel=0 note=91 velocity=108 time=2
note_on channel=0 note=91 velocity=0 time=30
note_on channel=0 note=88 velocity=108 time=2
note_on channel=0 note=88 velocity=0 time=30
note_on channel=0 note=76 velocity=108 time=2
note_on channel=0 note=76 velocity=0 time=30
note_on channel=0 note=81 velocity=108 time=2
note_on channel=0 note=81 velocity=0 time=30
note_on channel=0 note=76 velocity=108 time=2
note_on channel=0 note=76 velocity=0 time=30
note_on channel=0 note=72 velocity=108 time=2
note_on channel=0 note=72 velocity=0 time=46
note_on channel=0 note=69 velocity=108 time=2
note_on channel=0 note=69 velocity=0 time=46
control_change channel=0 control=64 value=0 time=2
control_change channel=0 control=64 value=127 time=0
note_on channel=0 note=76 velocity=108 time=0
note_on channel=0 note=76 velocity=0 time=46
note_on channel=0 note=77 velocity=108 time=2
note_on channel=0 note=77 velocity=0 time=46
note_on channel=0 note=81 velocity=108 time=2
note_on channel=0 note=81 velocity=0 time=46
note_on channel=0 note=76 velocity=108 time=2
note_on channel=0 note=76 velocity=0 time=46
note_on channel=0 note=77 velocity=108 time=2
note_on channel=0 note=77 velocity=0 time=46
note_on channel=0 note=84 velocity=108 time=2
note_on channel=0 note=84 velocity=0 time=46
note_on channel=0 note=76 velocity=108 time=2
note_on channel=0 note=76 velocity=0 time=46
note_on channel=0 note=81 velocity=108 time=2
note_on channel=0 note=81 velocity=0 time=46
note_on channel=0 note=77 velocity=108 time=2
note_on channel=0 note=77 velocity=0 time=46
note_on channel=0 note=84 velocity=108 time=2
note_on channel=0 note=84 velocity=0 time=46
note_on channel=0 note=96 velocity=108 time=2
note_on channel=0 note=96 velocity=0 time=46
note_on channel=0 note=100 velocity=108 time=2
note_on channel=0 note=100 velocity=0 time=46
control_change channel=0 control=64 value=0 time=2
control_change channel=0 control=64 value=127 time=0
note_on channel=0 note=102 velocity=108 time=0
note_on channel=0 note=102 velocity=0 time=30
note_on channel=0 note=98 velocity=108 time=2
note_on channel=0 note=98 velocity=0 time=30
note_on channel=0 note=93 velocity=108 time=2
note_on channel=0 note=93 velocity=0 time=30
note_on channel=0 note=98 velocity=108 time=2
note_on channel=0 note=98 velocity=0 time=30
note_on channel=0 note=93 velocity=108 time=2
note_on channel=0 note=93 velocity=0 time=30
note_on channel=0 note=90 velocity=108 time=2
note_on channel=0 note=90 velocity=0 time=30
note_on channel=0 note=86 velocity=108 time=2
note_on channel=0 note=86 velocity=0 time=46
note_on channel=0 note=81 velocity=108 time=2
note_on channel=0 note=81 velocity=0 time=46
note_on channel=0 note=103 velocity=108 time=2
note_on channel=0 note=103 velocity=0 time=30
note_on channel=0 note=100 velocity=108 time=2
note_on channel=0 note=100 velocity=0 time=30
note_on channel=0 note=95 velocity=108 time=2
note_on channel=0 note=95 velocity=0 time=30
note_on channel=0 note=100 velocity=108 time=2
note_on channel=0 note=100 velocity=0 time=30
note_on channel=0 note=95 velocity=108 time=2
note_on channel=0 note=95 velocity=0 time=30
note_on channel=0 note=91 velocity=108 time=2
note_on channel=0 note=91 velocity=0 time=30
note_on channel=0 note=88 velocity=108 time=2
note_on channel=0 note=88 velocity=0 time=46
note_on channel=0 note=83 velocity=108 time=2
note_on channel=0 note=83 velocity=0 time=46
control_change channel=0 control=64 value=0 time=2
control_change channel=0 control=64 value=127 time=0
note_on channel=0 note=64 velocity=108 time=0
note_on channel=0 note=64 velocity=0 time=46
note_on channel=0 note=69 velocity=108 time=2
note_on channel=0 note=69 velocity=0 time=46
note_on channel=0 note=71 velocity=108 time=2
note_on channel=0 note=71 velocity=0 time=46
note_on channel=0 note=74 velocity=108 time=2
note_on channel=0 note=74 velocity=0 time=46
note_on channel=0 note=76 velocity=108 time=2
note_on channel=0 note=76 velocity=0 time=46
note_on channel=0 note=81 velocity=108 time=2
note_on channel=0 note=81 velocity=0 time=46
note_on channel=0 note=69 velocity=108 time=2
note_on channel=0 note=69 velocity=0 time=46
note_on channel=0 note=71 velocity=108 time=2
note_on channel=0 note=71 velocity=0 time=46
note_on channel=0 note=74 velocity=108 time=2
note_on channel=0 note=74 velocity=0 time=46
note_on channel=0 note=76 velocity=108 time=2
note_on channel=0 note=76 velocity=0 time=46
note_on channel=0 note=81 velocity=108 time=2
note_on channel=0 note=81 velocity=0 time=30
note_on channel=0 note=83 velocity=108 time=2
note_on channel=0 note=83 velocity=0 time=30
note_on channel=0 note=86 velocity=108 time=2
note_on channel=0 note=86 velocity=0 time=30
control_change channel=0 control=64 value=0 time=2
control_change channel=0 control=64 value=127 time=0
note_on channel=0 note=88 velocity=108 time=0
note_on channel=0 note=88 velocity=0 time=46
note_on channel=0 note=86 velocity=108 time=2
note_on channel=0 note=86 velocity=0 time=46
note_on channel=0 note=83 velocity=108 time=2
note_on channel=0 note=83 velocity=0 time=46
note_on channel=0 note=81 velocity=108 time=2
note_on channel=0 note=81 velocity=0 time=46
note_on channel=0 note=76 velocity=108 time=2
note_on channel=0 note=76 velocity=0 time=46
note_on channel=0 note=74 velocity=108 time=2
note_on channel=0 note=74 velocity=0 time=46
note_on channel=0 note=71 velocity=108 time=2
note_on channel=0 note=71 velocity=0 time=46
note_on channel=0 note=69 velocity=108 time=2
note_on channel=0 note=69 velocity=0 time=46
note_on channel=0 note=71 velocity=108 time=2
note_on channel=0 note=71 velocity=0 time=46
note_on channel=0 note=69 velocity=108 time=2
note_on channel=0 note=69 velocity=0 time=46
note_on channel=0 note=64 velocity=108 time=2
note_on channel=0 note=64 velocity=0 time=46
note_on channel=0 note=62 velocity=108 time=2
note_on channel=0 note=62 velocity=0 time=46
control_change channel=0 control=64 value=0 time=2
control_change channel=0 control=64 value=127 time=0
note_on channel=0 note=64 velocity=108 time=0
note_on channel=0 note=64 velocity=0 time=46
note_on channel=0 note=69 velocity=108 time=2
note_on channel=0 note=69 velocity=0 time=46
note_on channel=0 note=71 velocity=108 time=2
note_on channel=0 note=71 velocity=0 time=46
note_on channel=0 note=74 velocity=108 time=2
note_on channel=0 note=74 velocity=0 time=46
note_on channel=0 note=76 velocity=108 time=2
note_on channel=0 note=76 velocity=0 time=46
note_on channel=0 note=81 velocity=108 time=2
note_on channel=0 note=81 velocity=0 time=46
note_on channel=0 note=69 velocity=108 time=2
note_on channel=0 note=69 velocity=0 time=46
note_on channel=0 note=71 velocity=108 time=2
note_on channel=0 note=71 velocity=0 time=46
note_on channel=0 note=74 velocity=108 time=2
note_on channel=0 note=74 velocity=0 time=46
note_on channel=0 note=76 velocity=108 time=2
note_on channel=0 note=76 velocity=0 time=46
note_on channel=0 note=81 velocity=108 time=2
note_on channel=0 note=81 velocity=0 time=30
note_on channel=0 note=83 velocity=108 time=2
note_on channel=0 note=83 velocity=0 time=30
note_on channel=0 note=86 velocity=108 time=2
note_on channel=0 note=86 velocity=0 time=30
control_change channel=0 control=64 value=0 time=2
control_change channel=0 control=64 value=127 time=0
note_on channel=0 note=88 velocity=108 time=0
note_on channel=0 note=88 velocity=0 time=46
note_on channel=0 note=86 velocity=108 time=2
note_on channel=0 note=86 velocity=0 time=46
note_on channel=0 note=83 velocity=108 time=2
note_on channel=0 note=83 velocity=0 time=46
note_on channel=0 note=81 velocity=108 time=2
note_on channel=0 note=81 velocity=0 time=46
note_on channel=0 note=76 velocity=108 time=2
note_on channel=0 note=76 velocity=0 time=46
note_on channel=0 note=74 velocity=108 time=2
note_on channel=0 note=74 velocity=0 time=46
note_on channel=0 note=71 velocity=108 time=2
note_on channel=0 note=71 velocity=0 time=46
note_on channel=0 note=69 velocity=108 time=2
note_on channel=0 note=69 velocity=0 time=46
note_on channel=0 note=71 velocity=108 time=2
note_on channel=0 note=71 velocity=0 time=30
note_on channel=0 note=69 velocity=108 time=2
note_on channel=0 note=69 velocity=0 time=30
note_on channel=0 note=67 velocity=108 time=2
note_on channel=0 note=67 velocity=0 time=30
note_on channel=0 note=66 velocity=108 time=2
note_on channel=0 note=66 velocity=0 time=30
note_on channel=0 note=64 velocity=108 time=2
note_on channel=0 note=64 velocity=0 time=30
note_on channel=0 note=62 velocity=108 time=2
note_on channel=0 note=62 velocity=0 time=30
control_change channel=0 control=64 value=0 time=2
control_change channel=0 control=64 value=127 time=0
note_on channel=0 note=65 velocity=108 time=0
note_on channel=0 note=65 velocity=0 time=46
note_on channel=0 note=69 velocity=108 time=2
note_on channel=0 note=69 velocity=0 time=46
note_on channel=0 note=71 velocity=108 time=2
note_on channel=0 note=71 velocity=0 time=46
note_on channel=0 note=74 velocity=108 time=2
note_on channel=0 note=74 velocity=0 time=46
note_on channel=0 note=76 velocity=108 time=2
note_on channel=0 note=76 velocity=0 time=46
note_on channel=0 note=81 velocity=108 time=2
note_on channel=0 note=81 velocity=0 time=46
note_on channel=0 note=69 velocity=108 time=2
note_on channel=0 note=69 velocity=0 time=46
note_on channel=0 note=71 velocity=108 time=2
note_on channel=0 note=71 velocity=0 time=46
note_on channel=0 note=74 velocity=108 time=2
note_on channel=0 note=74 velocity=0 time=46
note_on channel=0 note=76 velocity=108 time=2
note_on channel=0 note=76 velocity=0 time=46
note_on channel=0 note=81 velocity=108 time=2
note_on channel=0 note=81 velocity=0 time=30
note_on channel=0 note=83 velocity=108 time=2
note_on channel=0 note=83 velocity=0 time=30
note_on channel=0 note=86 velocity=108 time=2
note_on channel=0 note=86 velocity=0 time=30
control_change channel=0 control=64 value=0 time=2
control_change channel=0 control=64 value=127 time=0
note_on channel=0 note=88 velocity=108 time=0
note_on channel=0 note=88 velocity=0 time=46
note_on channel=0 note=86 velocity=108 time=2
note_on channel=0 note=86 velocity=0 time=46
note_on channel=0 note=83 velocity=108 time=2
note_on channel=0 note=83 velocity=0 time=46
note_on channel=0 note=81 velocity=108 time=2
note_on channel=0 note=81 velocity=0 time=46
note_on channel=0 note=76 velocity=108 time=2
note_on channel=0 note=76 velocity=0 time=46
note_on channel=0 note=74 velocity=108 time=2
note_on channel=0 note=74 velocity=0 time=46
note_on channel=0 note=71 velocity=108 time=2
note_on channel=0 note=71 velocity=0 time=46
note_on channel=0 note=69 velocity=108 time=2
note_on channel=0 note=69 velocity=0 time=46
note_on channel=0 note=71 velocity=108 time=2
note_on channel=0 note=71 velocity=0 time=46
note_on channel=0 note=69 velocity=108 time=2
note_on channel=0 note=69 velocity=0 time=46
note_on channel=0 note=64 velocity=108 time=2
note_on channel=0 note=64 velocity=0 time=46
note_on channel=0 note=62 velocity=108 time=2
note_on channel=0 note=62 velocity=0 time=46
control_change channel=0 control=64 value=0 time=2
control_change channel=0 control=64 value=127 time=0
note_on channel=0 note=65 velocity=108 time=0
note_on channel=0 note=65 velocity=0 time=46
note_on channel=0 note=69 velocity=108 time=2
note_on channel=0 note=69 velocity=0 time=46
note_on channel=0 note=71 velocity=108 time=2
note_on channel=0 note=71 velocity=0 time=46
note_on channel=0 note=74 velocity=108 time=2
note_on channel=0 note=74 velocity=0 time=46
note_on channel=0 note=76 velocity=108 time=2
note_on channel=0 note=76 velocity=0 time=46
note_on channel=0 note=81 velocity=108 time=2
note_on channel=0 note=81 velocity=0 time=46
note_on channel=0 note=83 velocity=108 time=2
note_on channel=0 note=83 velocity=0 time=46
note_on channel=0 note=86 velocity=108 time=2
note_on channel=0 note=86 velocity=0 time=46
note_on channel=0 note=81 velocity=108 time=2
note_on channel=0 note=81 velocity=0 time=46
note_on channel=0 note=83 velocity=108 time=2
note_on channel=0 note=83 velocity=0 time=46
note_on channel=0 note=86 velocity=108 time=2
note_on channel=0 note=86 velocity=0 time=46
note_on channel=0 note=81 velocity=108 time=2
note_on channel=0 note=81 velocity=0 time=46
control_change channel=0 control=64 value=0 time=2
control_change channel=0 control=64 value=127 time=0
note_on channel=0 note=83 velocity=108 time=0
note_on channel=0 note=83 velocity=0 time=46
note_on channel=0 note=86 velocity=108 time=2
note_on channel=0 note=86 velocity=0 time=46
note_on channel=0 note=88 velocity=108 time=2
note_on channel=0 note=88 velocity=0 time=30
note_on channel=0 note=86 velocity=108 time=2
note_on channel=0 note=86 velocity=0 time=30
note_on channel=0 note=88 velocity=108 time=2
note_on channel=0 note=88 velocity=0 time=30
note_on channel=0 note=86 velocity=108 time=2
note_on channel=0 note=86 velocity=0 time=30
note_on channel=0 note=88 velocity=108 time=2
note_on channel=0 note=88 velocity=0 time=30
note_on channel=0 note=86 velocity=108 time=2
note_on channel=0 note=86 velocity=0 time=30
note_on channel=0 note=81 velocity=108 time=2
note_on channel=0 note=81 velocity=0 time=30
note_on channel=0 note=77 velocity=108 time=2
note_on channel=0 note=77 velocity=0 time=30
note_on channel=0 note=76 velocity=108 time=2
note_on channel=0 note=76 velocity=0 time=30
note_on channel=0 note=74 velocity=108 time=2
note_on channel=0 note=74 velocity=0 time=30
note_on channel=0 note=71 velocity=108 time=2
note_on channel=0 note=71 velocity=0 time=30
note_on channel=0 note=69 velocity=108 time=2
note_on channel=0 note=69 velocity=0 time=30
note_on channel=0 note=65 velocity=108 time=2
note_on channel=0 note=65 velocity=0 time=30
note_on channel=0 note=64 velocity=108 time=2
note_on channel=0 note=64 velocity=0 time=30
note_on channel=0 note=62 velocity=108 time=2
note_on channel=0 note=62 velocity=0 time=30
control_change channel=0 control=64 value=0 time=2
control_change channel=0 control=64 value=127 time=0
note_on channel=0 note=64 velocity=108 time=0
note_on channel=0 note=64 velocity=0 time=46
note_on channel=0 note=69 velocity=108 time=2
note_on channel=0 note=69 velocity=0 time=46
note_on channel=0 note=71 velocity=108 time=2
note_on channel=0 note=71 velocity=0 time=46
note_on channel=0 note=74 velocity=108 time=2
note_on channel=0 note=74 velocity=0 time=46
note_on channel=0 note=76 velocity=108 time=2
note_on channel=0 note=76 velocity=0 time=46
note_on channel=0 note=81 velocity=108 time=2
note_on channel=0 note=81 velocity=0 time=46
note_on channel=0 note=69 velocity=108 time=2
note_on channel=0 note=69 velocity=0 time=46
note_on channel=0 note=71 velocity=108 time=2
note_on channel=0 note=71 velocity=0 time=46
note_on channel=0 note=74 velocity=108 time=2
note_on channel=0 note=74 velocity=0 time=46
note_on channel=0 note=76 velocity=108 time=2
note_on channel=0 note=76 velocity=0 time=46
note_on channel=0 note=81 velocity=108 time=2
note_on channel=0 note=81 velocity=0 time=30
note_on channel=0 note=83 velocity=108 time=2
note_on channel=0 note=83 velocity=0 time=30
note_on channel=0 note=86 velocity=108 time=2
note_on channel=0 note=86 velocity=0 time=30
control_change channel=0 control=64 value=0 time=2
control_change channel=0 control=64 value=127 time=0
note_on channel=0 note=88 velocity=108 time=0
note_on channel=0 note=88 velocity=0 time=46
note_on channel=0 note=86 velocity=108 time=2
note_on channel=0 note=86 velocity=0 time=46
note_on channel=0 note=83 velocity=108 time=2
note_on channel=0 note=83 velocity=0 time=46
note_on channel=0 note=81 velocity=108 time=2
note_on channel=0 note=81 velocity=0 time=46
note_on channel=0 note=76 velocity=108 time=2
note_on channel=0 note=76 velocity=0 time=46
note_on channel=0 note=74 velocity=108 time=2
note_on channel=0 note=74 velocity=0 time=46
note_on channel=0 note=71 velocity=108 time=2
note_on channel=0 note=71 velocity=0 time=46
note_on channel=0 note=69 velocity=108 time=2
note_on channel=0 note=69 velocity=0 time=46
note_on channel=0 note=71 velocity=108 time=2
note_on channel=0 note=71 velocity=0 time=46
note_on channel=0 note=69 velocity=108 time=2
note_on channel=0 note=69 velocity=0 time=46
note_on channel=0 note=64 velocity=108 time=2
note_on channel=0 note=64 velocity=0 time=46
note_on channel=0 note=62 velocity=108 time=2
note_on channel=0 note=62 velocity=0 time=46
control_change channel=0 control=64 value=0 time=2
control_change channel=0 control=64 value=127 time=0
note_on channel=0 note=64 velocity=108 time=0
note_on channel=0 note=64 velocity=0 time=46
note_on channel=0 note=69 velocity=108 time=2
note_on channel=0 note=69 velocity=0 time=46
note_on channel=0 note=71 velocity=108 time=2
note_on channel=0 note=71 velocity=0 time=46
note_on channel=0 note=74 velocity=108 time=2
note_on channel=0 note=74 velocity=0 time=46
note_on channel=0 note=76 velocity=108 time=2
note_on channel=0 note=76 velocity=0 time=46
note_on channel=0 note=81 velocity=108 time=2
note_on channel=0 note=81 velocity=0 time=46
note_on channel=0 note=69 velocity=108 time=2
note_on channel=0 note=69 velocity=0 time=46
note_on channel=0 note=71 velocity=108 time=2
note_on channel=0 note=71 velocity=0 time=46
note_on channel=0 note=74 velocity=108 time=2
note_on channel=0 note=74 velocity=0 time=46
note_on channel=0 note=76 velocity=108 time=2
note_on channel=0 note=76 velocity=0 time=46
note_on channel=0 note=81 velocity=108 time=2
note_on channel=0 note=81 velocity=0 time=30
note_on channel=0 note=83 velocity=108 time=2
note_on channel=0 note=83 velocity=0 time=30
note_on channel=0 note=86 velocity=108 time=2
note_on channel=0 note=86 velocity=0 time=30
control_change channel=0 control=64 value=0 time=2
control_change channel=0 control=64 value=127 time=0
note_on channel=0 note=88 velocity=108 time=0
note_on channel=0 note=88 velocity=0 time=46
note_on channel=0 note=86 velocity=108 time=2
note_on channel=0 note=86 velocity=0 time=46
note_on channel=0 note=83 velocity=108 time=2
note_on channel=0 note=83 velocity=0 time=46
note_on channel=0 note=81 velocity=108 time=2
note_on channel=0 note=81 velocity=0 time=46
note_on channel=0 note=76 velocity=108 time=2
note_on channel=0 note=76 velocity=0 time=46
note_on channel=0 note=74 velocity=108 time=2
note_on channel=0 note=74 velocity=0 time=46
note_on channel=0 note=71 velocity=108 time=2
note_on channel=0 note=71 velocity=0 time=46
note_on channel=0 note=69 velocity=108 time=2
note_on channel=0 note=69 velocity=0 time=46
note_on channel=0 note=71 velocity=108 time=2
note_on channel=0 note=71 velocity=0 time=46
note_on channel=0 note=69 velocity=108 time=2
note_on channel=0 note=69 velocity=0 time=46
note_on channel=0 note=64 velocity=108 time=2
note_on channel=0 note=64 velocity=0 time=94
control_change channel=0 control=64 value=0 time=2
control_change channel=0 control=64 value=127 time=0
note_on channel=0 note=65 velocity=108 time=0
note_on channel=0 note=65 velocity=0 time=46
note_on channel=0 note=69 velocity=108 time=2
note_on channel=0 note=69 velocity=0 time=46
note_on channel=0 note=71 velocity=108 time=2
note_on channel=0 note=71 velocity=0 time=46
note_on channel=0 note=74 velocity=108 time=2
note_on channel=0 note=74 velocity=0 time=46
note_on channel=0 note=76 velocity=108 time=2
note_on channel=0 note=76 velocity=0 time=46
note_on channel=0 note=81 velocity=108 time=2
note_on channel=0 note=81 velocity=0 time=46
note_on channel=0 note=83 velocity=108 time=2
note_on channel=0 note=83 velocity=0 time=46
note_on channel=0 note=86 velocity=108 time=2
note_on channel=0 note=86 velocity=0 time=46
note_on channel=0 note=81 velocity=108 time=2
note_on channel=0 note=81 velocity=0 time=46
note_on channel=0 note=83 velocity=108 time=2
note_on channel=0 note=83 velocity=0 time=46
note_on channel=0 note=86 velocity=108 time=2
note_on channel=0 note=86 velocity=0 time=46
note_on channel=0 note=81 velocity=108 time=2
note_on channel=0 note=81 velocity=0 time=46
control_change channel=0 control=64 value=0 time=2
control_change channel=0 control=64 value=127 time=0
note_on channel=0 note=83 velocity=108 time=0
note_on channel=0 note=83 velocity=0 time=46
note_on channel=0 note=86 velocity=108 time=2
note_on channel=0 note=86 velocity=0 time=46
note_on channel=0 note=88 velocity=108 time=2
note_on channel=0 note=88 velocity=0 time=30
note_on channel=0 note=86 velocity=108 time=2
note_on channel=0 note=86 velocity=0 time=30
note_on channel=0 note=88 velocity=108 time=2
note_on channel=0 note=88 velocity=0 time=30
note_on channel=0 note=86 velocity=108 time=2
note_on channel=0 note=86 velocity=0 time=30
note_on channel=0 note=88 velocity=108 time=2
note_on channel=0 note=88 velocity=0 time=30
note_on channel=0 note=86 velocity=108 time=2
note_on channel=0 note=86 velocity=0 time=30
note_on channel=0 note=81 velocity=108 time=2
note_on channel=0 note=81 velocity=0 time=30
note_on channel=0 note=77 velocity=108 time=2
note_on channel=0 note=77 velocity=0 time=30
note_on channel=0 note=76 velocity=108 time=2
note_on channel=0 note=76 velocity=0 time=30
note_on channel=0 note=74 velocity=108 time=2
note_on channel=0 note=74 velocity=0 time=30
note_on channel=0 note=71 velocity=108 time=2
note_on channel=0 note=71 velocity=0 time=30
note_on channel=0 note=69 velocity=108 time=2
note_on channel=0 note=69 velocity=0 time=30
note_on channel=0 note=65 velocity=108 time=2
note_on channel=0 note=65 velocity=0 time=30
note_on channel=0 note=64 velocity=108 time=2
note_on channel=0 note=64 velocity=0 time=30
note_on channel=0 note=62 velocity=108 time=2
note_on channel=0 note=62 velocity=0 time=30
control_change channel=0 control=64 value=0 time=2
control_change channel=0 control=64 value=127 time=0
note_on channel=0 note=71 velocity=108 time=0
note_on channel=0 note=71 velocity=0 time=46
note_on channel=0 note=69 velocity=108 time=2
note_on channel=0 note=69 velocity=0 time=46
note_on channel=0 note=71 velocity=108 time=2
note_on channel=0 note=71 velocity=0 time=46
note_on channel=0 note=74 velocity=108 time=2
note_on channel=0 note=74 velocity=0 time=46
note_on channel=0 note=76 velocity=108 time=2
note_on channel=0 note=76 velocity=0 time=46
note_on channel=0 note=81 velocity=108 time=2
note_on channel=0 note=81 velocity=0 time=46
note_on channel=0 note=88 velocity=108 time=2
note_on channel=0 note=88 velocity=0 time=46
note_on channel=0 note=86 velocity=108 time=2
note_on channel=0 note=86 velocity=0 time=46
note_on channel=0 note=93 velocity=108 time=2
note_on channel=0 note=93 velocity=0 time=46
note_on channel=0 note=95 velocity=108 time=2
note_on channel=0 note=95 velocity=0 time=46
note_on channel=0 note=93 velocity=108 time=2
note_on channel=0 note=93 velocity=0 time=30
note_on channel=0 note=95 velocity=108 time=2
note_on channel=0 note=95 velocity=0 time=30
note_on channel=0 note=98 velocity=108 time=2
note_on channel=0 note=98 velocity=0 time=30
control_change channel=0 control=64 value=0 time=2
control_change channel=0 control=64 value=127 time=0
note_on channel=0 note=102 velocity=108 time=0
note_on channel=0 note=102 velocity=0 time=30
note_on channel=0 note=99 velocity=108 time=2
note_on channel=0 note=99 velocity=0 time=30
note_on channel=0 note=95 velocity=108 time=2
note_on channel=0 note=95 velocity=0 time=30
note_on channel=0 note=93 velocity=108 time=2
note_on channel=0 note=93 velocity=0 time=30
note_on channel=0 note=90 velocity=108 time=2
note_on channel=0 note=90 velocity=0 time=30
note_on channel=0 note=87 velocity=108 time=2
note_on channel=0 note=87 velocity=0 time=30
note_on channel=0 note=83 velocity=108 time=2
note_on channel=0 note=83 velocity=0 time=30
note_on channel=0 note=81 velocity=108 time=2
note_on channel=0 note=81 velocity=0 time=30
note_on channel=0 note=78 velocity=108 time=2
note_on channel=0 note=78 velocity=0 time=30
note_on channel=0 note=75 velocity=108 time=2
note_on channel=0 note=75 velocity=0 time=30
note_on channel=0 note=71 velocity=108 time=2
note_on channel=0 note=71 velocity=0 time=30
note_on channel=0 note=66 velocity=108 time=2
note_on channel=0 note=66 velocity=0 time=30
note_on channel=0 note=63 velocity=108 time=2
note_on channel=0 note=63 velocity=0 time=30
note_on channel=0 note=59 velocity=108 time=2
note_on channel=0 note=59 velocity=0 time=30
note_on channel=0 note=57 velocity=108 time=2
note_on channel=0 note=57 velocity=0 time=30
note_on channel=0 note=54 velocity=108 time=2
note_on channel=0 note=54 velocity=0 time=94
control_change channel=0 control=64 value=0 time=2
control_change channel=0 control=64 value=127 time=0
note_on channel=0 note=64 velocity=92 time=0
note_on channel=0 note=64 velocity=0 time=94
note_on channel=0 note=69 velocity=92 time=2
note_on channel=0 note=69 velocity=0 time=94
note_on channel=0 note=71 velocity=92 time=2
note_on channel=0 note=71 velocity=0 time=94
note_on channel=0 note=74 velocity=92 time=2
note_on channel=0 note=74 velocity=0 time=94
note_on channel=0 note=76 velocity=92 time=2
note_on channel=0 note=76 velocity=0 time=94
note_on channel=0 note=81 velocity=92 time=2
note_on channel=0 note=81 velocity=0 time=94
note_on channel=0 note=64 velocity=92 time=2
note_on channel=0 note=64 velocity=0 time=94
note_on channel=0 note=69 velocity=92 time=2
note_on channel=0 note=69 velocity=0 time=94
note_on channel=0 note=71 velocity=92 time=2
note_on channel=0 note=71 velocity=0 time=94
note_on channel=0 note=74 velocity=92 time=2
note_on channel=0 note=74 velocity=0 time=94
note_on channel=0 note=76 velocity=92 time=2
note_on channel=0 note=76 velocity=0 time=94
note_on channel=0 note=81 velocity=92 time=2
note_on channel=0 note=81 velocity=0 time=94
note_on channel=0 note=64 velocity=92 time=2
note_on channel=0 note=64 velocity=0 time=94
note_on channel=0 note=69 velocity=91 time=2
note_on channel=0 note=69 velocity=0 time=94
note_on channel=0 note=71 velocity=90 time=2
note_on channel=0 note=71 velocity=0 time=94
note_on channel=0 note=74 velocity=89 time=2
note_on channel=0 note=74 velocity=0 time=94
note_on channel=0 note=76 velocity=88 time=2
note_on channel=0 note=76 velocity=0 time=94
note_on channel=0 note=81 velocity=87 time=2
note_on channel=0 note=81 velocity=0 time=94
note_on channel=0 note=64 velocity=86 time=2
note_on channel=0 note=64 velocity=0 time=94
note_on channel=0 note=69 velocity=85 time=2
note_on channel=0 note=69 velocity=0 time=94
note_on channel=0 note=71 velocity=83 time=2
note_on channel=0 note=71 velocity=0 time=94
note_on channel=0 note=74 velocity=81 time=2
note_on channel=0 note=74 velocity=0 time=94
note_on channel=0 note=76 velocity=79 time=2
note_on channel=0 note=76 velocity=0 time=94
note_on channel=0 note=81 velocity=77 time=2
note_on channel=0 note=81 velocity=0 time=94
note_on channel=0 note=76 velocity=75 time=2
note_on channel=0 note=79 velocity=75 time=24
note_on channel=0 note=81 velocity=75 time=24
note_on channel=0 note=83 velocity=75 time=24
note_on channel=0 note=76 velocity=0 time=456
note_on channel=0 note=79 velocity=0 time=0
note_on channel=0 note=81 velocity=0 time=0
note_on channel=0 note=83 velocity=0 time=0
<meta message end_of_track time=0>
<meta message midi_port port=1 time=0>
<meta message track_name name='Left Hand' time=0>
program_change channel=1 program=0 time=0
pitchwheel channel=1 pitch=0 time=0
control_change channel=1 control=7 value=127 time=0
control_change channel=1 control=10 value=64 time=0
control_change channel=1 control=64 value=127 time=288
note_on channel=1 note=41 velocity=92 time=0
note_on channel=1 note=53 velocity=92 time=0
note_on channel=1 note=41 velocity=0 time=720
note_on channel=1 note=53 velocity=0 time=0
control_change channel=1 control=64 value=0 time=48
control_change channel=1 control=64 value=127 time=0
note_on channel=1 note=40 velocity=92 time=0
note_on channel=1 note=52 velocity=92 time=0
note_on channel=1 note=40 velocity=0 time=720
note_on channel=1 note=52 velocity=0 time=0
control_change channel=1 control=64 value=0 time=48
control_change channel=1 control=64 value=127 time=0
note_on channel=1 note=35 velocity=92 time=0
note_on channel=1 note=47 velocity=92 time=0
note_on channel=1 note=35 velocity=0 time=720
note_on channel=1 note=47 velocity=0 time=0
note_on channel=1 note=29 velocity=92 time=48
note_on channel=1 note=41 velocity=92 time=0
note_on channel=1 note=29 velocity=0 time=336
note_on channel=1 note=41 velocity=0 time=0
control_change channel=1 control=64 value=0 time=48
control_change channel=1 control=64 value=127 time=0
note_on channel=1 note=35 velocity=92 time=0
note_on channel=1 note=47 velocity=92 time=0
note_on channel=1 note=35 velocity=0 time=336
note_on channel=1 note=47 velocity=0 time=0
control_change channel=1 control=64 value=127 time=624
note_on channel=1 note=28 velocity=127 time=0
note_on channel=1 note=40 velocity=127 time=0
note_on channel=1 note=28 velocity=0 time=94
note_on channel=1 note=40 velocity=0 time=0
note_on channel=1 note=28 velocity=92 time=2
note_on channel=1 note=40 velocity=92 time=0
note_on channel=1 note=28 velocity=0 time=160
note_on channel=1 note=40 velocity=0 time=0
note_on channel=1 note=28 velocity=127 time=32
note_on channel=1 note=40 velocity=127 time=0
note_on channel=1 note=28 velocity=0 time=94
note_on channel=1 note=40 velocity=0 time=0
note_on channel=1 note=28 velocity=92 time=2
note_on channel=1 note=40 velocity=92 time=0
note_on channel=1 note=28 velocity=0 time=160
note_on channel=1 note=40 velocity=0 time=0
control_change channel=1 control=64 value=0 time=32
control_change channel=1 control=64 value=127 time=0
note_on channel=1 note=29 velocity=127 time=0
note_on channel=1 note=41 velocity=127 time=0
note_on channel=1 note=29 velocity=0 time=94
note_on channel=1 note=41 velocity=0 time=0
note_on channel=1 note=29 velocity=92 time=2
note_on channel=1 note=41 velocity=92 time=0
note_on channel=1 note=29 velocity=0 time=160
note_on channel=1 note=41 velocity=0 time=0
note_on channel=1 note=29 velocity=127 time=32
note_on channel=1 note=41 velocity=127 time=0
note_on channel=1 note=29 velocity=0 time=94
note_on channel=1 note=41 velocity=0 time=0
note_on channel=1 note=29 velocity=92 time=2
note_on channel=1 note=41 velocity=92 time=0
note_on channel=1 note=29 velocity=0 time=160
note_on channel=1 note=41 velocity=0 time=0
control_change channel=1 control=64 value=0 time=32
control_change channel=1 control=64 value=127 time=0
note_on channel=1 note=30 velocity=127 time=0
note_on channel=1 note=42 velocity=127 time=0
note_on channel=1 note=30 velocity=0 time=94
note_on channel=1 note=42 velocity=0 time=0
note_on channel=1 note=30 velocity=92 time=2
note_on channel=1 note=42 velocity=92 time=0
note_on channel=1 note=30 velocity=0 time=160
note_on channel=1 note=42 velocity=0 time=0
note_on channel=1 note=30 velocity=127 time=32
note_on channel=1 note=42 velocity=127 time=0
note_on channel=1 note=30 velocity=0 time=94
note_on channel=1 note=42 velocity=0 time=0
note_on channel=1 note=30 velocity=92 time=2
note_on channel=1 note=42 velocity=92 time=0
note_on channel=1 note=30 velocity=0 time=160
note_on channel=1 note=42 velocity=0 time=0
control_change channel=1 control=64 value=0 time=32
note_on channel=1 note=29 velocity=127 time=0
note_on channel=1 note=41 velocity=127 time=0
note_on channel=1 note=29 velocity=0 time=73
note_on channel=1 note=41 velocity=0 time=0
note_on channel=1 note=29 velocity=127 time=119
note_on channel=1 note=41 velocity=127 time=0
note_on channel=1 note=29 velocity=0 time=73
note_on channel=1 note=41 velocity=0 time=0
note_on channel=1 note=29 velocity=127 time=119
note_on channel=1 note=41 velocity=127 time=0
note_on channel=1 note=29 velocity=0 time=192
note_on channel=1 note=41 velocity=0 time=0
control_change channel=1 control=64 value=0 time=0
control_change channel=1 control=64 value=127 time=0
note_on channel=1 note=24 velocity=127 time=0
note_on channel=1 note=36 velocity=127 time=0
note_on channel=1 note=24 velocity=0 time=94
note_on channel=1 note=36 velocity=0 time=0
note_on channel=1 note=24 velocity=92 time=2
note_on channel=1 note=36 velocity=92 time=0
note_on channel=1 note=24 velocity=0 time=160
note_on channel=1 note=36 velocity=0 time=0
note_on channel=1 note=24 velocity=127 time=32
note_on channel=1 note=36 velocity=127 time=0
note_on channel=1 note=24 velocity=0 time=94
note_on channel=1 note=36 velocity=0 time=0
note_on channel=1 note=24 velocity=92 time=2
note_on channel=1 note=36 velocity=92 time=0
note_on channel=1 note=24 velocity=0 time=160
note_on channel=1 note=36 velocity=0 time=0
control_change channel=1 control=64 value=0 time=32
control_change channel=1 control=64 value=127 time=0
note_on channel=1 note=28 velocity=127 time=0
note_on channel=1 note=40 velocity=127 time=0
note_on channel=1 note=28 velocity=0 time=94
note_on channel=1 note=40 velocity=0 time=0
note_on channel=1 note=28 velocity=92 time=2
note_on channel=1 note=40 velocity=92 time=0
note_on channel=1 note=28 velocity=0 time=160
note_on channel=1 note=40 velocity=0 time=0
note_on channel=1 note=28 velocity=127 time=32
note_on channel=1 note=40 velocity=127 time=0
note_on channel=1 note=28 velocity=0 time=94
note_on channel=1 note=40 velocity=0 time=0
note_on channel=1 note=28 velocity=92 time=2
note_on channel=1 note=40 velocity=92 time=0
note_on channel=1 note=28 velocity=0 time=160
note_on channel=1 note=40 velocity=0 time=0
control_change channel=1 control=64 value=0 time=32
control_change channel=1 control=64 value=127 time=0
note_on channel=1 note=29 velocity=92 time=0
note_on channel=1 note=41 velocity=92 time=0
note_on channel=1 note=29 velocity=0 time=94
note_on channel=1 note=41 velocity=0 time=0
note_on channel=1 note=29 velocity=92 time=2
note_on channel=1 note=41 velocity=92 time=0
note_on channel=1 note=29 velocity=0 time=94
note_on channel=1 note=41 velocity=0 time=0
note_on channel=1 note=29 velocity=92 time=2
note_on channel=1 note=41 velocity=92 time=0
note_on channel=1 note=29 velocity=0 time=94
note_on channel=1 note=41 velocity=0 time=0
note_on channel=1 note=29 velocity=92 time=2
note_on channel=1 note=41 velocity=92 time=0
note_on channel=1 note=29 velocity=0 time=94
note_on channel=1 note=41 velocity=0 time=0
note_on channel=1 note=29 velocity=92 time=2
note_on channel=1 note=41 velocity=92 time=0
note_on channel=1 note=29 velocity=0 time=94
note_on channel=1 note=41 velocity=0 time=0
note_on channel=1 note=29 velocity=92 time=2
note_on channel=1 note=41 velocity=92 time=0
note_on channel=1 note=29 velocity=0 time=94
note_on channel=1 note=41 velocity=0 time=0
control_change channel=1 control=64 value=0 time=2
control_change channel=1 control=64 value=127 time=0
note_on channel=1 note=29 velocity=127 time=0
note_on channel=1 note=41 velocity=127 time=0
note_on channel=1 note=29 velocity=0 time=528
note_on channel=1 note=41 velocity=0 time=0
control_change channel=1 control=64 value=0 time=48
control_change channel=1 control=64 value=127 time=0
note_on channel=1 note=23 velocity=127 time=0
note_on channel=1 note=35 velocity=127 time=0
note_on channel=1 note=23 velocity=0 time=1104
note_on channel=1 note=35 velocity=0 time=0
control_change channel=1 control=64 value=0 time=48
control_change channel=1 control=64 value=127 time=0
note_on channel=1 note=28 velocity=75 time=0
note_on channel=1 note=40 velocity=75 time=0
note_on channel=1 note=28 velocity=0 time=94
note_on channel=1 note=40 velocity=0 time=0
note_on channel=1 note=47 velocity=75 time=2
note_on channel=1 note=47 velocity=0 time=94
note_on channel=1 note=50 velocity=75 time=2
note_on channel=1 note=50 velocity=0 time=94
note_on channel=1 note=52 velocity=75 time=2
note_on channel=1 note=52 velocity=0 time=94
note_on channel=1 note=47 velocity=75 time=2
note_on channel=1 note=47 velocity=0 time=160
note_on channel=1 note=52 velocity=75 time=32
note_on channel=1 note=59 velocity=75 time=0
note_on channel=1 note=52 velocity=0 time=160
note_on channel=1 note=59 velocity=0 time=0
note_on channel=1 note=62 velocity=75 time=32
note_on channel=1 note=62 velocity=0 time=94
note_on channel=1 note=64 velocity=75 time=2
note_on channel=1 note=64 velocity=0 time=256
control_change channel=1 control=64 value=0 time=32
control_change channel=1 control=64 value=127 time=0
note_on channel=1 note=52 velocity=75 time=0
note_on channel=1 note=52 velocity=0 time=160
note_on channel=1 note=62 velocity=75 time=32
note_on channel=1 note=62 velocity=0 time=94
note_on channel=1 note=64 velocity=75 time=2
note_on channel=1 note=64 velocity=0 time=256
control_change channel=1 control=64 value=0 time=32
control_change channel=1 control=64 value=127 time=0
note_on channel=1 note=52 velocity=75 time=0
note_on channel=1 note=52 velocity=0 time=94
note_on channel=1 note=59 velocity=75 time=2
note_on channel=1 note=59 velocity=0 time=94
note_on channel=1 note=62 velocity=75 time=2
note_on channel=1 note=62 velocity=0 time=94
note_on channel=1 note=64 velocity=75 time=2
note_on channel=1 note=64 velocity=0 time=94
note_on channel=1 note=62 velocity=75 time=2
note_on channel=1 note=62 velocity=0 time=94
note_on channel=1 note=59 velocity=75 time=2
note_on channel=1 note=59 velocity=0 time=94
control_change channel=1 control=64 value=0 time=2
control_change channel=1 control=64 value=127 time=0
note_on channel=1 note=24 velocity=92 time=0
note_on channel=1 note=36 velocity=92 time=0
note_on channel=1 note=24 velocity=0 time=94
note_on channel=1 note=36 velocity=0 time=0
note_on channel=1 note=40 velocity=75 time=2
note_on channel=1 note=40 velocity=0 time=94
note_on channel=1 note=45 velocity=75 time=2
note_on channel=1 note=45 velocity=0 time=94
note_on channel=1 note=52 velocity=75 time=2
note_on channel=1 note=52 velocity=0 time=94
note_on channel=1 note=59 velocity=92 time=194
note_on channel=1 note=59 velocity=0 time=94
note_on channel=1 note=52 velocity=75 time=2
note_on channel=1 note=52 velocity=0 time=94
note_on channel=1 note=57 velocity=75 time=2
note_on channel=1 note=57 velocity=0 time=94
note_on channel=1 note=64 velocity=75 time=2
note_on channel=1 note=64 velocity=0 time=94
note_on channel=1 note=38 velocity=75 time=98
note_on channel=1 note=38 velocity=0 time=46
note_on channel=1 note=40 velocity=75 time=2
note_on channel=1 note=40 velocity=0 time=46
control_change channel=1 control=64 value=0 time=2
note_on channel=1 note=28 velocity=92 time=0
note_on channel=1 note=40 velocity=92 time=0
note_on channel=1 note=28 velocity=0 time=36
note_on channel=1 note=40 velocity=0 time=0
note_on channel=1 note=43 velocity=92 time=60
note_on channel=1 note=43 velocity=0 time=94
note_on channel=1 note=42 velocity=92 time=2
note_on channel=1 note=42 velocity=0 time=30
note_on channel=1 note=43 velocity=92 time=2
note_on channel=1 note=43 velocity=0 time=30
note_on channel=1 note=42 velocity=92 time=2
note_on channel=1 note=42 velocity=0 time=30
note_on channel=1 note=38 velocity=92 time=2
note_on channel=1 note=38 velocity=0 time=94
note_on channel=1 note=35 velocity=92 time=2
note_on channel=1 note=35 velocity=0 time=94
note_on channel=1 note=33 velocity=92 time=2
note_on channel=1 note=33 velocity=0 time=46
note_on channel=1 note=35 velocity=92 time=2
note_on channel=1 note=35 velocity=0 time=46
note_on channel=1 note=38 velocity=92 time=2
note_on channel=1 note=38 velocity=0 time=94
note_on channel=1 note=28 velocity=92 time=2
note_on channel=1 note=28 velocity=0 time=30
note_on channel=1 note=30 velocity=92 time=2
note_on channel=1 note=30 velocity=0 time=30
note_on channel=1 note=31 velocity=92 time=2
note_on channel=1 note=31 velocity=0 time=30
note_on channel=1 note=35 velocity=92 time=2
note_on channel=1 note=35 velocity=0 time=94
note_on channel=1 note=28 velocity=92 time=2
note_on channel=1 note=28 velocity=0 time=94
note_on channel=1 note=33 velocity=92 time=2
note_on channel=1 note=33 velocity=0 time=94
note_on channel=1 note=38 velocity=92 time=2
note_on channel=1 note=38 velocity=0 time=94
control_change channel=1 control=64 value=0 time=2
control_change channel=1 control=64 value=127 time=0
note_on channel=1 note=33 velocity=92 time=0
note_on channel=1 note=45 velocity=92 time=0
note_on channel=1 note=33 velocity=0 time=94
note_on channel=1 note=45 velocity=0 time=0
note_on channel=1 note=50 velocity=92 time=2
note_on channel=1 note=52 velocity=92 time=0
note_on channel=1 note=55 velocity=92 time=0
note_on channel=1 note=50 velocity=0 time=94
note_on channel=1 note=52 velocity=0 time=0
note_on channel=1 note=55 velocity=0 time=0
note_on channel=1 note=64 velocity=75 time=2
note_on channel=1 note=64 velocity=0 time=94
note_on channel=1 note=64 velocity=75 time=2
note_on channel=1 note=64 velocity=0 time=94
note_on channel=1 note=62 velocity=75 time=2
note_on channel=1 note=62 velocity=0 time=94
note_on channel=1 note=57 velocity=75 time=2
note_on channel=1 note=57 velocity=0 time=94
control_change channel=1 control=64 value=0 time=2
control_change channel=1 control=64 value=127 time=0
note_on channel=1 note=45 velocity=75 time=0
note_on channel=1 note=45 velocity=0 time=94
note_on channel=1 note=60 velocity=75 time=2
note_on channel=1 note=60 velocity=0 time=94
note_on channel=1 note=64 velocity=75 time=2
note_on channel=1 note=64 velocity=0 time=94
note_on channel=1 note=64 velocity=75 time=2
note_on channel=1 note=64 velocity=0 time=94
note_on channel=1 note=62 velocity=75 time=2
note_on channel=1 note=62 velocity=0 time=94
note_on channel=1 note=57 velocity=75 time=2
note_on channel=1 note=57 velocity=0 time=94
control_change channel=1 control=64 value=0 time=2
control_change channel=1 control=64 value=127 time=0
note_on channel=1 note=33 velocity=75 time=0
note_on channel=1 note=45 velocity=75 time=0
note_on channel=1 note=33 velocity=0 time=94
note_on channel=1 note=45 velocity=0 time=0
note_on channel=1 note=60 velocity=75 time=2
note_on channel=1 note=60 velocity=0 time=94
note_on channel=1 note=64 velocity=75 time=2
note_on channel=1 note=64 velocity=0 time=94
note_on channel=1 note=64 velocity=75 time=2
note_on channel=1 note=64 velocity=0 time=94
note_on channel=1 note=62 velocity=75 time=2
note_on channel=1 note=62 velocity=0 time=94
note_on channel=1 note=57 velocity=75 time=2
note_on channel=1 note=57 velocity=0 time=94
control_change channel=1 control=64 value=0 time=2
note_on channel=1 note=45 velocity=75 time=0
note_on channel=1 note=52 velocity=75 time=0
note_on channel=1 note=45 velocity=0 time=94
note_on channel=1 note=52 velocity=0 time=0
note_on channel=1 note=45 velocity=75 time=2
note_on channel=1 note=52 velocity=75 time=0
note_on channel=1 note=45 velocity=0 time=46
note_on channel=1 note=52 velocity=0 time=0
note_on channel=1 note=50 velocity=75 time=2
note_on channel=1 note=50 velocity=0 time=46
note_on channel=1 note=52 velocity=92 time=2
note_on channel=1 note=52 velocity=0 time=36
note_on channel=1 note=47 velocity=92 time=60
note_on channel=1 note=47 velocity=0 time=36
note_on channel=1 note=45 velocity=92 time=60
note_on channel=1 note=45 velocity=0 time=36
note_on channel=1 note=40 velocity=92 time=60
note_on channel=1 note=40 velocity=0 time=36
note_on channel=1 note=29 velocity=127 time=60
note_on channel=1 note=41 velocity=127 time=0
note_on channel=1 note=29 velocity=0 time=73
note_on channel=1 note=41 velocity=0 time=0
note_on channel=1 note=41 velocity=127 time=119
note_on channel=1 note=53 velocity=127 time=0
note_on channel=1 note=41 velocity=0 time=256
note_on channel=1 note=53 velocity=0 time=0
note_on channel=1 note=29 velocity=127 time=32
note_on channel=1 note=41 velocity=127 time=0
note_on channel=1 note=29 velocity=0 time=46
note_on channel=1 note=41 velocity=0 time=0
note_on channel=1 note=29 velocity=127 time=2
note_on channel=1 note=41 velocity=127 time=0
note_on channel=1 note=29 velocity=0 time=46
note_on channel=1 note=41 velocity=0 time=0
note_on channel=1 note=29 velocity=127 time=2
note_on channel=1 note=41 velocity=127 time=0
note_on channel=1 note=29 velocity=0 time=94
note_on channel=1 note=41 velocity=0 time=0
note_on channel=1 note=48 velocity=92 time=2
note_on channel=1 note=48 velocity=0 time=94
note_on channel=1 note=57 velocity=92 time=2
note_on channel=1 note=57 velocity=0 time=94
note_on channel=1 note=52 velocity=92 time=2
note_on channel=1 note=52 velocity=0 time=94
note_on channel=1 note=53 velocity=92 time=2
note_on channel=1 note=53 velocity=0 time=94
note_on channel=1 note=62 velocity=92 time=2
note_on channel=1 note=62 velocity=0 time=94
note_on channel=1 note=36 velocity=108 time=2
note_on channel=1 note=48 velocity=108 time=0
note_on channel=1 note=36 velocity=0 time=94
note_on channel=1 note=48 velocity=0 time=0
note_on channel=1 note=36 velocity=108 time=2
note_on channel=1 note=48 velocity=108 time=0
note_on channel=1 note=36 velocity=0 time=73
note_on channel=1 note=48 velocity=0 time=0
note_on channel=1 note=36 velocity=108 time=119
note_on channel=1 note=48 velocity=108 time=0
note_on channel=1 note=36 velocity=0 time=73
note_on channel=1 note=48 velocity=0 time=0
note_on channel=1 note=36 velocity=108 time=119
note_on channel=1 note=48 velocity=108 time=0
note_on channel=1 note=36 velocity=0 time=94
note_on channel=1 note=48 velocity=0 time=0
note_on channel=1 note=35 velocity=108 time=2
note_on channel=1 note=47 velocity=108 time=0
note_on channel=1 note=35 velocity=0 time=73
note_on channel=1 note=47 velocity=0 time=0
note_on channel=1 note=35 velocity=108 time=119
note_on channel=1 note=47 velocity=108 time=0
note_on channel=1 note=35 velocity=0 time=73
note_on channel=1 note=47 velocity=0 time=0
note_on channel=1 note=47 velocity=108 time=119
note_on channel=1 note=47 velocity=0 time=46
note_on channel=1 note=42 velocity=108 time=2
note_on channel=1 note=42 velocity=0 time=46
note_on channel=1 note=39 velocity=108 time=2
note_on channel=1 note=39 velocity=0 time=46
note_on channel=1 note=35 velocity=108 time=2
note_on channel=1 note=35 velocity=0 time=46
note_on channel=1 note=24 velocity=92 time=2
note_on channel=1 note=36 velocity=92 time=0
note_on channel=1 note=24 velocity=0 time=94
note_on channel=1 note=36 velocity=0 time=0
note_on channel=1 note=24 velocity=92 time=2
note_on channel=1 note=36 velocity=92 time=0
note_on channel=1 note=24 velocity=0 time=73
note_on channel=1 note=36 velocity=0 time=0
note_on channel=1 note=24 velocity=92 time=119
note_on channel=1 note=36 velocity=92 time=0
note_on channel=1 note=24 velocity=0 time=73
note_on channel=1 note=36 velocity=0 time=0
note_on channel=1 note=24 velocity=92 time=119
note_on channel=1 note=36 velocity=92 time=0
note_on channel=1 note=24 velocity=0 time=94
note_on channel=1 note=36 velocity=0 time=0
note_on channel=1 note=24 velocity=92 time=2
note_on channel=1 note=36 velocity=92 time=0
note_on channel=1 note=24 velocity=0 time=160
note_on channel=1 note=36 velocity=0 time=0
note_on channel=1 note=26 velocity=92 time=416
note_on channel=1 note=38 velocity=92 time=0
note_on channel=1 note=26 velocity=0 time=94
note_on channel=1 note=38 velocity=0 time=0
note_on channel=1 note=26 velocity=92 time=2
note_on channel=1 note=38 velocity=92 time=0
note_on channel=1 note=26 velocity=0 time=73
note_on channel=1 note=38 velocity=0 time=0
note_on channel=1 note=26 velocity=92 time=119
note_on channel=1 note=38 velocity=92 time=0
note_on channel=1 note=26 velocity=0 time=73
note_on channel=1 note=38 velocity=0 time=0
note_on channel=1 note=26 velocity=92 time=119
note_on channel=1 note=38 velocity=92 time=0
note_on channel=1 note=26 velocity=0 time=94
note_on channel=1 note=38 velocity=0 time=0
note_on channel=1 note=26 velocity=92 time=2
note_on channel=1 note=38 velocity=92 time=0
note_on channel=1 note=26 velocity=0 time=160
note_on channel=1 note=38 velocity=0 time=0
note_on channel=1 note=27 velocity=92 time=416
note_on channel=1 note=39 velocity=92 time=0
note_on channel=1 note=27 velocity=0 time=94
note_on channel=1 note=39 velocity=0 time=0
note_on channel=1 note=27 velocity=92 time=2
note_on channel=1 note=39 velocity=92 time=0
note_on channel=1 note=27 velocity=0 time=73
note_on channel=1 note=39 velocity=0 time=0
note_on channel=1 note=27 velocity=92 time=119
note_on channel=1 note=39 velocity=92 time=0
note_on channel=1 note=27 velocity=0 time=73
note_on channel=1 note=39 velocity=0 time=0
note_on channel=1 note=27 velocity=92 time=119
note_on channel=1 note=39 velocity=92 time=0
note_on channel=1 note=27 velocity=0 time=94
note_on channel=1 note=39 velocity=0 time=0
note_on channel=1 note=27 velocity=92 time=2
note_on channel=1 note=39 velocity=92 time=0
note_on channel=1 note=27 velocity=0 time=160
note_on channel=1 note=39 velocity=0 time=0
note_on channel=1 note=27 velocity=92 time=224
note_on channel=1 note=39 velocity=92 time=0
note_on channel=1 note=27 velocity=0 time=160
note_on channel=1 note=39 velocity=0 time=0
note_on channel=1 note=28 velocity=92 time=32
note_on channel=1 note=40 velocity=92 time=0
note_on channel=1 note=28 velocity=0 time=94
note_on channel=1 note=40 velocity=0 time=0
note_on channel=1 note=28 velocity=92 time=2
note_on channel=1 note=40 velocity=92 time=0
note_on channel=1 note=28 velocity=0 time=160
note_on channel=1 note=40 velocity=0 time=0
note_on channel=1 note=28 velocity=92 time=32
note_on channel=1 note=40 velocity=92 time=0
note_on channel=1 note=28 velocity=0 time=94
note_on channel=1 note=40 velocity=0 time=0
note_on channel=1 note=28 velocity=92 time=2
note_on channel=1 note=40 velocity=92 time=0
note_on channel=1 note=28 velocity=0 time=160
note_on channel=1 note=40 velocity=0 time=0
note_on channel=1 note=26 velocity=92 time=32
note_on channel=1 note=38 velocity=92 time=0
note_on channel=1 note=26 velocity=0 time=528
note_on channel=1 note=38 velocity=0 time=0
control_change channel=1 control=64 value=127 time=48
note_on channel=1 note=24 velocity=92 time=0
note_on channel=1 note=36 velocity=92 time=0
note_on channel=1 note=24 velocity=0 time=94
note_on channel=1 note=36 velocity=0 time=0
note_on channel=1 note=36 velocity=92 time=2
note_on channel=1 note=43 velocity=92 time=0
note_on channel=1 note=48 velocity=92 time=0
note_on channel=1 note=52 velocity=92 time=0
note_on channel=1 note=36 velocity=0 time=160
note_on channel=1 note=43 velocity=0 time=0
note_on channel=1 note=48 velocity=0 time=0
note_on channel=1 note=52 velocity=0 time=0
note_on channel=1 note=36 velocity=92 time=32
note_on channel=1 note=43 velocity=92 time=0
note_on channel=1 note=48 velocity=92 time=0
note_on channel=1 note=52 velocity=92 time=0
note_on channel=1 note=36 velocity=0 time=160
note_on channel=1 note=43 velocity=0 time=0
note_on channel=1 note=48 velocity=0 time=0
note_on channel=1 note=52 velocity=0 time=0
note_on channel=1 note=36 velocity=92 time=32
note_on channel=1 note=43 velocity=92 time=0
note_on channel=1 note=48 velocity=92 time=0
note_on channel=1 note=52 velocity=92 time=0
note_on channel=1 note=36 velocity=0 time=94
note_on channel=1 note=43 velocity=0 time=0
note_on channel=1 note=48 velocity=0 time=0
note_on channel=1 note=52 velocity=0 time=0
note_on channel=1 note=36 velocity=92 time=2
note_on channel=1 note=43 velocity=92 time=0
note_on channel=1 note=48 velocity=92 time=0
note_on channel=1 note=52 velocity=92 time=0
note_on channel=1 note=36 velocity=0 time=160
note_on channel=1 note=43 velocity=0 time=0
note_on channel=1 note=48 velocity=0 time=0
note_on channel=1 note=52 velocity=0 time=0
note_on channel=1 note=36 velocity=92 time=32
note_on channel=1 note=43 velocity=92 time=0
note_on channel=1 note=48 velocity=92 time=0
note_on channel=1 note=52 velocity=92 time=0
note_on channel=1 note=36 velocity=0 time=160
note_on channel=1 note=43 velocity=0 time=0
note_on channel=1 note=48 velocity=0 time=0
note_on channel=1 note=52 velocity=0 time=0
note_on channel=1 note=36 velocity=92 time=32
note_on channel=1 note=43 velocity=92 time=0
note_on channel=1 note=48 velocity=92 time=0
note_on channel=1 note=52 velocity=92 time=0
note_on channel=1 note=36 velocity=0 time=160
note_on channel=1 note=43 velocity=0 time=0
note_on channel=1 note=48 velocity=0 time=0
note_on channel=1 note=52 velocity=0 time=0
control_change channel=1 control=64 value=0 time=32
control_change channel=1 control=64 value=127 time=0
note_on channel=1 note=25 velocity=92 time=0
note_on channel=1 note=37 velocity=92 time=0
note_on channel=1 note=25 velocity=0 time=94
note_on channel=1 note=37 velocity=0 time=0
note_on channel=1 note=37 velocity=92 time=2
note_on channel=1 note=46 velocity=92 time=0
note_on channel=1 note=49 velocity=92 time=0
note_on channel=1 note=52 velocity=92 time=0
note_on channel=1 note=37 velocity=0 time=160
note_on channel=1 note=46 velocity=0 time=0
note_on channel=1 note=49 velocity=0 time=0
note_on channel=1 note=52 velocity=0 time=0
note_on channel=1 note=37 velocity=92 time=32
note_on channel=1 note=46 velocity=92 time=0
note_on channel=1 note=49 velocity=92 time=0
note_on channel=1 note=52 velocity=92 time=0
note_on channel=1 note=37 velocity=0 time=160
note_on channel=1 note=46 velocity=0 time=0
note_on channel=1 note=49 velocity=0 time=0
note_on channel=1 note=52 velocity=0 time=0
note_on channel=1 note=37 velocity=92 time=32
note_on channel=1 note=46 velocity=92 time=0
note_on channel=1 note=49 velocity=92 time=0
note_on channel=1 note=52 velocity=92 time=0
note_on channel=1 note=37 velocity=0 time=94
note_on channel=1 note=46 velocity=0 time=0
note_on channel=1 note=49 velocity=0 time=0
note_on channel=1 note=52 velocity=0 time=0
note_on channel=1 note=37 velocity=92 time=2
note_on channel=1 note=46 velocity=92 time=0
note_on channel=1 note=49 velocity=92 time=0
note_on channel=1 note=52 velocity=92 time=0
note_on channel=1 note=37 velocity=0 time=160
note_on channel=1 note=46 velocity=0 time=0
note_on channel=1 note=49 velocity=0 time=0
note_on channel=1 note=52 velocity=0 time=0
note_on channel=1 note=37 velocity=97 time=32
note_on channel=1 note=46 velocity=97 time=0
note_on channel=1 note=49 velocity=97 time=0
note_on channel=1 note=52 velocity=97 time=0
note_on channel=1 note=37 velocity=0 time=160
note_on channel=1 note=46 velocity=0 time=0
note_on channel=1 note=49 velocity=0 time=0
note_on channel=1 note=52 velocity=0 time=0
note_on channel=1 note=37 velocity=102 time=32
note_on channel=1 note=46 velocity=102 time=0
note_on channel=1 note=49 velocity=102 time=0
note_on channel=1 note=52 velocity=102 time=0
note_on channel=1 note=37 velocity=0 time=160
note_on channel=1 note=46 velocity=0 time=0
note_on channel=1 note=49 velocity=0 time=0
note_on channel=1 note=52 velocity=0 time=0
control_change channel=1 control=64 value=0 time=32
control_change channel=1 control=64 value=127 time=0
note_on channel=1 note=35 velocity=127 time=0
note_on channel=1 note=47 velocity=127 time=0
note_on channel=1 note=35 velocity=0 time=94
note_on channel=1 note=47 velocity=0 time=0
note_on channel=1 note=63 velocity=108 time=2
note_on channel=1 note=66 velocity=108 time=0
note_on channel=1 note=69 velocity=108 time=0
note_on channel=1 note=63 velocity=0 time=94
note_on channel=1 note=66 velocity=0 time=0
note_on channel=1 note=69 velocity=0 time=0
note_on channel=1 note=63 velocity=108 time=2
note_on channel=1 note=66 velocity=108 time=0
note_on channel=1 note=69 velocity=108 time=0
note_on channel=1 note=63 velocity=0 time=94
note_on channel=1 note=66 velocity=0 time=0
note_on channel=1 note=69 velocity=0 time=0
note_on channel=1 note=63 velocity=108 time=2
note_on channel=1 note=66 velocity=108 time=0
note_on channel=1 note=69 velocity=108 time=0
note_on channel=1 note=63 velocity=0 time=94
note_on channel=1 note=66 velocity=0 time=0
note_on channel=1 note=69 velocity=0 time=0
note_on channel=1 note=63 velocity=108 time=2
note_on channel=1 note=66 velocity=108 time=0
note_on channel=1 note=69 velocity=108 time=0
note_on channel=1 note=63 velocity=0 time=94
note_on channel=1 note=66 velocity=0 time=0
note_on channel=1 note=69 velocity=0 time=0
note_on channel=1 note=63 velocity=108 time=2
note_on channel=1 note=66 velocity=108 time=0
note_on channel=1 note=69 velocity=108 time=0
note_on channel=1 note=63 velocity=0 time=94
note_on channel=1 note=66 velocity=0 time=0
note_on channel=1 note=69 velocity=0 time=0
note_on channel=1 note=59 velocity=108 time=2
note_on channel=1 note=63 velocity=108 time=0
note_on channel=1 note=59 velocity=0 time=94
note_on channel=1 note=63 velocity=0 time=0
note_on channel=1 note=63 velocity=108 time=2
note_on channel=1 note=66 velocity=108 time=0
note_on channel=1 note=69 velocity=108 time=0
note_on channel=1 note=63 velocity=0 time=94
note_on channel=1 note=66 velocity=0 time=0
note_on channel=1 note=69 velocity=0 time=0
note_on channel=1 note=59 velocity=108 time=2
note_on channel=1 note=63 velocity=108 time=0
note_on channel=1 note=59 velocity=0 time=94
note_on channel=1 note=63 velocity=0 time=0
note_on channel=1 note=63 velocity=108 time=2
note_on channel=1 note=66 velocity=108 time=0
note_on channel=1 note=69 velocity=108 time=0
note_on channel=1 note=63 velocity=0 time=94
note_on channel=1 note=66 velocity=0 time=0
note_on channel=1 note=69 velocity=0 time=0
note_on channel=1 note=59 velocity=108 time=2
note_on channel=1 note=63 velocity=108 time=0
note_on channel=1 note=59 velocity=0 time=94
note_on channel=1 note=63 velocity=0 time=0
note_on channel=1 note=63 velocity=108 time=2
note_on channel=1 note=66 velocity=108 time=0
note_on channel=1 note=69 velocity=108 time=0
note_on channel=1 note=63 velocity=0 time=94
note_on channel=1 note=66 velocity=0 time=0
note_on channel=1 note=69 velocity=0 time=0
control_change channel=1 control=64 value=0 time=2
note_on channel=1 note=54 velocity=108 time=0
note_on channel=1 note=59 velocity=108 time=0
note_on channel=1 note=63 velocity=108 time=0
note_on channel=1 note=66 velocity=108 time=0
note_on channel=1 note=54 velocity=0 time=94
note_on channel=1 note=59 velocity=0 time=0
note_on channel=1 note=63 velocity=0 time=0
note_on channel=1 note=66 velocity=0 time=0
note_on channel=1 note=54 velocity=108 time=2
note_on channel=1 note=59 velocity=108 time=0
note_on channel=1 note=63 velocity=108 time=0
note_on channel=1 note=66 velocity=108 time=0
note_on channel=1 note=54 velocity=0 time=94
note_on channel=1 note=59 velocity=0 time=0
note_on channel=1 note=63 velocity=0 time=0
note_on channel=1 note=66 velocity=0 time=0
note_on channel=1 note=54 velocity=108 time=98
note_on channel=1 note=59 velocity=108 time=0
note_on channel=1 note=63 velocity=108 time=0
note_on channel=1 note=66 velocity=108 time=0
note_on channel=1 note=54 velocity=0 time=94
note_on channel=1 note=59 velocity=0 time=0
note_on channel=1 note=63 velocity=0 time=0
note_on channel=1 note=66 velocity=0 time=0
note_on channel=1 note=54 velocity=108 time=98
note_on channel=1 note=59 velocity=108 time=0
note_on channel=1 note=63 velocity=108 time=0
note_on channel=1 note=66 velocity=108 time=0
note_on channel=1 note=54 velocity=0 time=94
note_on channel=1 note=59 velocity=0 time=0
note_on channel=1 note=63 velocity=0 time=0
note_on channel=1 note=66 velocity=0 time=0
note_on channel=1 note=54 velocity=108 time=2
note_on channel=1 note=59 velocity=108 time=0
note_on channel=1 note=63 velocity=108 time=0
note_on channel=1 note=66 velocity=108 time=0
note_on channel=1 note=54 velocity=0 time=336
note_on channel=1 note=59 velocity=0 time=0
note_on channel=1 note=63 velocity=0 time=0
note_on channel=1 note=66 velocity=0 time=0
control_change channel=1 control=64 value=0 time=48
control_change channel=1 control=64 value=127 time=0
note_on channel=1 note=63 velocity=92 time=0
note_on channel=1 note=63 velocity=0 time=46
note_on channel=1 note=59 velocity=92 time=2
note_on channel=1 note=59 velocity=0 time=46
note_on channel=1 note=54 velocity=92 time=2
note_on channel=1 note=54 velocity=0 time=46
note_on channel=1 note=51 velocity=92 time=2
note_on channel=1 note=51 velocity=0 time=46
control_change channel=1 control=64 value=0 time=2
control_change channel=1 control=64 value=127 time=0
note_on channel=1 note=28 velocity=92 time=0
note_on channel=1 note=28 velocity=0 time=62
note_on channel=1 note=36 velocity=92 time=2
note_on channel=1 note=36 velocity=0 time=62
note_on channel=1 note=40 velocity=92 time=2
note_on channel=1 note=40 velocity=0 time=62
note_on channel=1 note=45 velocity=92 time=2
note_on channel=1 note=45 velocity=0 time=62
note_on channel=1 note=48 velocity=92 time=2
note_on channel=1 note=48 velocity=0 time=62
note_on channel=1 note=52 velocity=92 time=2
note_on channel=1 note=52 velocity=0 time=62
note_on channel=1 note=57 velocity=92 time=2
note_on channel=1 note=57 velocity=0 time=62
note_on channel=1 note=64 velocity=92 time=2
note_on channel=1 note=64 velocity=0 time=62
note_on channel=1 note=71 velocity=92 time=2
note_on channel=1 note=71 velocity=0 time=62
control_change channel=1 control=64 value=0 time=2
control_change channel=1 control=64 value=127 time=0
note_on channel=1 note=69 velocity=92 time=0
note_on channel=1 note=69 velocity=0 time=62
note_on channel=1 note=66 velocity=92 time=2
note_on channel=1 note=66 velocity=0 time=62
note_on channel=1 note=62 velocity=92 time=2
note_on channel=1 note=62 velocity=0 time=62
note_on channel=1 note=59 velocity=92 time=2
note_on channel=1 note=59 velocity=0 time=62
note_on channel=1 note=54 velocity=92 time=2
note_on channel=1 note=54 velocity=0 time=62
note_on channel=1 note=47 velocity=92 time=2
note_on channel=1 note=47 velocity=0 time=62
note_on channel=1 note=42 velocity=92 time=2
note_on channel=1 note=42 velocity=0 time=62
note_on channel=1 note=35 velocity=92 time=2
note_on channel=1 note=35 velocity=0 time=62
note_on channel=1 note=30 velocity=92 time=2
note_on channel=1 note=30 velocity=0 time=62
control_change channel=1 control=64 value=0 time=2
control_change channel=1 control=64 value=127 time=0
note_on channel=1 note=29 velocity=92 time=0
note_on channel=1 note=29 velocity=0 time=62
note_on channel=1 note=36 velocity=92 time=2
note_on channel=1 note=36 velocity=0 time=62
note_on channel=1 note=41 velocity=92 time=2
note_on channel=1 note=41 velocity=0 time=62
note_on channel=1 note=48 velocity=92 time=2
note_on channel=1 note=48 velocity=0 time=62
note_on channel=1 note=52 velocity=92 time=2
note_on channel=1 note=52 velocity=0 time=62
note_on channel=1 note=57 velocity=92 time=2
note_on channel=1 note=57 velocity=0 time=62
note_on channel=1 note=60 velocity=92 time=2
note_on channel=1 note=60 velocity=0 time=62
note_on channel=1 note=64 velocity=92 time=2
note_on channel=1 note=64 velocity=0 time=126
control_change channel=1 control=64 value=0 time=2
control_change channel=1 control=64 value=127 time=0
note_on channel=1 note=59 velocity=92 time=0
note_on channel=1 note=59 velocity=0 time=62
note_on channel=1 note=54 velocity=92 time=2
note_on channel=1 note=54 velocity=0 time=62
note_on channel=1 note=47 velocity=92 time=2
note_on channel=1 note=47 velocity=0 time=62
note_on channel=1 note=39 velocity=92 time=2
note_on channel=1 note=39 velocity=0 time=62
note_on channel=1 note=30 velocity=92 time=2
note_on channel=1 note=30 velocity=0 time=288
control_change channel=1 control=64 value=0 time=32
control_change channel=1 control=64 value=127 time=0
note_on channel=1 note=25 velocity=92 time=0
note_on channel=1 note=25 velocity=0 time=62
note_on channel=1 note=33 velocity=92 time=2
note_on channel=1 note=33 velocity=0 time=62
note_on channel=1 note=37 velocity=92 time=2
note_on channel=1 note=37 velocity=0 time=62
note_on channel=1 note=42 velocity=92 time=2
note_on channel=1 note=42 velocity=0 time=62
note_on channel=1 note=45 velocity=92 time=2
note_on channel=1 note=45 velocity=0 time=62
note_on channel=1 note=49 velocity=92 time=2
note_on channel=1 note=49 velocity=0 time=62
note_on channel=1 note=54 velocity=92 time=2
note_on channel=1 note=54 velocity=0 time=62
note_on channel=1 note=61 velocity=92 time=2
note_on channel=1 note=61 velocity=0 time=62
note_on channel=1 note=68 velocity=92 time=2
note_on channel=1 note=68 velocity=0 time=62
control_change channel=1 control=64 value=0 time=2
control_change channel=1 control=64 value=127 time=0
note_on channel=1 note=66 velocity=92 time=0
note_on channel=1 note=66 velocity=0 time=62
note_on channel=1 note=63 velocity=92 time=2
note_on channel=1 note=63 velocity=0 time=62
note_on channel=1 note=59 velocity=92 time=2
note_on channel=1 note=59 velocity=0 time=62
note_on channel=1 note=56 velocity=92 time=2
note_on channel=1 note=56 velocity=0 time=62
note_on channel=1 note=51 velocity=92 time=2
note_on channel=1 note=51 velocity=0 time=62
note_on channel=1 note=44 velocity=92 time=2
note_on channel=1 note=44 velocity=0 time=62
note_on channel=1 note=39 velocity=92 time=2
note_on channel=1 note=39 velocity=0 time=62
note_on channel=1 note=32 velocity=92 time=2
note_on channel=1 note=32 velocity=0 time=62
note_on channel=1 note=27 velocity=92 time=2
note_on channel=1 note=27 velocity=0 time=62
control_change channel=1 control=64 value=0 time=2
control_change channel=1 control=64 value=127 time=0
note_on channel=1 note=26 velocity=92 time=0
note_on channel=1 note=26 velocity=0 time=62
note_on channel=1 note=33 velocity=92 time=2
note_on channel=1 note=33 velocity=0 time=62
note_on channel=1 note=38 velocity=92 time=2
note_on channel=1 note=38 velocity=0 time=62
note_on channel=1 note=45 velocity=92 time=2
note_on channel=1 note=45 velocity=0 time=62
note_on channel=1 note=50 velocity=92 time=2
note_on channel=1 note=50 velocity=0 time=62
note_on channel=1 note=54 velocity=92 time=2
note_on channel=1 note=54 velocity=0 time=62
note_on channel=1 note=57 velocity=92 time=2
note_on channel=1 note=57 velocity=0 time=62
note_on channel=1 note=62 velocity=92 time=2
note_on channel=1 note=62 velocity=0 time=126
control_change channel=1 control=64 value=0 time=2
control_change channel=1 control=64 value=127 time=0
note_on channel=1 note=56 velocity=92 time=0
note_on channel=1 note=56 velocity=0 time=62
note_on channel=1 note=51 velocity=92 time=2
note_on channel=1 note=51 velocity=0 time=62
note_on channel=1 note=44 velocity=92 time=2
note_on channel=1 note=44 velocity=0 time=62
note_on channel=1 note=36 velocity=92 time=2
note_on channel=1 note=36 velocity=0 time=62
note_on channel=1 note=27 velocity=92 time=2
note_on channel=1 note=27 velocity=0 time=288
control_change channel=1 control=64 value=0 time=32
control_change channel=1 control=64 value=127 time=0
note_on channel=1 note=33 velocity=92 time=0
note_on channel=1 note=45 velocity=92 time=0
note_on channel=1 note=33 velocity=0 time=256
note_on channel=1 note=45 velocity=0 time=0
note_on channel=1 note=57 velocity=60 time=32
note_on channel=1 note=57 velocity=0 time=256
note_on channel=1 note=59 velocity=60 time=32
note_on channel=1 note=59 velocity=0 time=256
note_on channel=1 note=62 velocity=67 time=32
note_on channel=1 note=62 velocity=0 time=256
note_on channel=1 note=29 velocity=75 time=32
note_on channel=1 note=41 velocity=75 time=0
note_on channel=1 note=29 velocity=0 time=528
note_on channel=1 note=41 velocity=0 time=0
control_change channel=1 control=64 value=0 time=1200
control_change channel=1 control=64 value=127 time=0
note_on channel=1 note=28 velocity=127 time=0
note_on channel=1 note=40 velocity=127 time=0
note_on channel=1 note=28 velocity=0 time=256
note_on channel=1 note=40 velocity=0 time=0
note_on channel=1 note=28 velocity=108 time=32
note_on channel=1 note=40 velocity=108 time=0
note_on channel=1 note=28 velocity=0 time=256
note_on channel=1 note=40 velocity=0 time=0
control_change channel=1 control=64 value=0 time=32
control_change channel=1 control=64 value=127 time=0
note_on channel=1 note=29 velocity=108 time=0
note_on channel=1 note=41 velocity=108 time=0
note_on channel=1 note=29 velocity=0 time=256
note_on channel=1 note=41 velocity=0 time=0
note_on channel=1 note=31 velocity=108 time=32
note_on channel=1 note=43 velocity=108 time=0
note_on channel=1 note=31 velocity=0 time=256
note_on channel=1 note=43 velocity=0 time=0
control_change channel=1 control=64 value=0 time=32
control_change channel=1 control=64 value=127 time=0
note_on channel=1 note=28 velocity=108 time=0
note_on channel=1 note=40 velocity=108 time=0
note_on channel=1 note=28 velocity=0 time=256
note_on channel=1 note=40 velocity=0 time=0
note_on channel=1 note=28 velocity=108 time=32
note_on channel=1 note=40 velocity=108 time=0
note_on channel=1 note=28 velocity=0 time=256
note_on channel=1 note=40 velocity=0 time=0
control_change channel=1 control=64 value=0 time=32
control_change channel=1 control=64 value=127 time=0
note_on channel=1 note=28 velocity=108 time=0
note_on channel=1 note=40 velocity=108 time=0
note_on channel=1 note=28 velocity=0 time=160
note_on channel=1 note=40 velocity=0 time=0
note_on channel=1 note=29 velocity=108 time=32
note_on channel=1 note=41 velocity=108 time=0
note_on channel=1 note=29 velocity=0 time=160
note_on channel=1 note=41 velocity=0 time=0
control_change channel=1 control=64 value=0 time=32
control_change channel=1 control=64 value=127 time=0
note_on channel=1 note=26 velocity=108 time=0
note_on channel=1 note=38 velocity=108 time=0
note_on channel=1 note=26 velocity=0 time=160
note_on channel=1 note=38 velocity=0 time=0
note_on channel=1 note=26 velocity=108 time=32
note_on channel=1 note=38 velocity=108 time=0
note_on channel=1 note=26 velocity=0 time=160
note_on channel=1 note=38 velocity=0 time=0
control_change channel=1 control=64 value=0 time=32
control_change channel=1 control=64 value=127 time=0
note_on channel=1 note=28 velocity=127 time=0
note_on channel=1 note=40 velocity=127 time=0
note_on channel=1 note=28 velocity=0 time=336
note_on channel=1 note=40 velocity=0 time=0
note_on channel=1 note=35 velocity=108 time=48
note_on channel=1 note=47 velocity=108 time=0
note_on channel=1 note=35 velocity=0 time=160
note_on channel=1 note=47 velocity=0 time=0
note_on channel=1 note=33 velocity=108 time=32
note_on channel=1 note=45 velocity=108 time=0
note_on channel=1 note=33 velocity=0 time=160
note_on channel=1 note=45 velocity=0 time=0
control_change channel=1 control=64 value=0 time=32
control_change channel=1 control=64 value=127 time=0
note_on channel=1 note=29 velocity=108 time=0
note_on channel=1 note=41 velocity=108 time=0
note_on channel=1 note=29 velocity=0 time=336
note_on channel=1 note=41 velocity=0 time=0
control_change channel=1 control=64 value=0 time=48
control_change channel=1 control=64 value=127 time=0
note_on channel=1 note=28 velocity=127 time=0
note_on channel=1 note=40 velocity=127 time=0
note_on channel=1 note=28 velocity=0 time=544
note_on channel=1 note=40 velocity=0 time=0
control_change channel=1 control=64 value=0 time=32
control_change channel=1 control=64 value=127 time=0
note_on channel=1 note=29 velocity=108 time=0
note_on channel=1 note=41 velocity=108 time=0
note_on channel=1 note=29 velocity=0 time=160
note_on channel=1 note=41 velocity=0 time=0
note_on channel=1 note=26 velocity=108 time=32
note_on channel=1 note=38 velocity=108 time=0
note_on channel=1 note=26 velocity=0 time=160
note_on channel=1 note=38 velocity=0 time=0
control_change channel=1 control=64 value=0 time=32
note_on channel=1 note=26 velocity=108 time=0
note_on channel=1 note=38 velocity=108 time=0
note_on channel=1 note=26 velocity=0 time=73
note_on channel=1 note=38 velocity=0 time=0
control_change channel=1 control=64 value=127 time=119
note_on channel=1 note=28 velocity=127 time=0
note_on channel=1 note=40 velocity=127 time=0
note_on channel=1 note=28 velocity=0 time=336
note_on channel=1 note=40 velocity=0 time=0
control_change channel=1 control=64 value=0 time=48
control_change channel=1 control=64 value=127 time=0
note_on channel=1 note=29 velocity=108 time=0
note_on channel=1 note=41 velocity=108 time=0
note_on channel=1 note=29 velocity=0 time=256
note_on channel=1 note=41 velocity=0 time=0
control_change channel=1 control=64 value=0 time=32
control_change channel=1 control=64 value=127 time=0
note_on channel=1 note=31 velocity=108 time=0
note_on channel=1 note=43 velocity=108 time=0
note_on channel=1 note=31 velocity=0 time=256
note_on channel=1 note=43 velocity=0 time=0
control_change channel=1 control=64 value=0 time=32
control_change channel=1 control=64 value=127 time=0
note_on channel=1 note=28 velocity=127 time=0
note_on channel=1 note=40 velocity=127 time=0
note_on channel=1 note=28 velocity=0 time=256
note_on channel=1 note=40 velocity=0 time=0
note_on channel=1 note=28 velocity=108 time=32
note_on channel=1 note=40 velocity=108 time=0
note_on channel=1 note=28 velocity=0 time=256
note_on channel=1 note=40 velocity=0 time=0
control_change channel=1 control=64 value=0 time=32
control_change channel=1 control=64 value=127 time=0
note_on channel=1 note=28 velocity=127 time=0
note_on channel=1 note=40 velocity=127 time=0
note_on channel=1 note=28 velocity=0 time=160
note_on channel=1 note=40 velocity=0 time=0
control_change channel=1 control=64 value=0 time=32
control_change channel=1 control=64 value=127 time=0
note_on channel=1 note=29 velocity=108 time=0
note_on channel=1 note=41 velocity=108 time=0
note_on channel=1 note=29 velocity=0 time=160
note_on channel=1 note=41 velocity=0 time=0
note_on channel=1 note=26 velocity=108 time=32
note_on channel=1 note=38 velocity=108 time=0
note_on channel=1 note=26 velocity=0 time=160
note_on channel=1 note=38 velocity=0 time=0
note_on channel=1 note=26 velocity=108 time=32
note_on channel=1 note=38 velocity=108 time=0
note_on channel=1 note=26 velocity=0 time=160
note_on channel=1 note=38 velocity=0 time=0
control_change channel=1 control=64 value=0 time=32
control_change channel=1 control=64 value=127 time=0
note_on channel=1 note=28 velocity=127 time=0
note_on channel=1 note=40 velocity=127 time=0
note_on channel=1 note=28 velocity=0 time=336
note_on channel=1 note=40 velocity=0 time=0
note_on channel=1 note=28 velocity=108 time=48
note_on channel=1 note=40 velocity=108 time=0
note_on channel=1 note=28 velocity=0 time=160
note_on channel=1 note=40 velocity=0 time=0
control_change channel=1 control=64 value=0 time=32
control_change channel=1 control=64 value=127 time=0
note_on channel=1 note=28 velocity=127 time=0
note_on channel=1 note=40 velocity=127 time=0
note_on channel=1 note=28 velocity=0 time=336
note_on channel=1 note=40 velocity=0 time=0
control_change channel=1 control=64 value=0 time=48
note_on channel=1 note=35 velocity=127 time=0
note_on channel=1 note=47 velocity=127 time=0
note_on channel=1 note=35 velocity=0 time=142
note_on channel=1 note=47 velocity=0 time=0
note_on channel=1 note=34 velocity=127 time=2
note_on channel=1 note=46 velocity=127 time=0
note_on channel=1 note=34 velocity=0 time=142
note_on channel=1 note=46 velocity=0 time=0
note_on channel=1 note=33 velocity=127 time=2
note_on channel=1 note=45 velocity=127 time=0
note_on channel=1 note=33 velocity=0 time=94
note_on channel=1 note=45 velocity=0 time=0
note_on channel=1 note=32 velocity=127 time=2
note_on channel=1 note=44 velocity=127 time=0
note_on channel=1 note=32 velocity=0 time=94
note_on channel=1 note=44 velocity=0 time=0
note_on channel=1 note=31 velocity=127 time=2
note_on channel=1 note=43 velocity=127 time=0
note_on channel=1 note=31 velocity=0 time=94
note_on channel=1 note=43 velocity=0 time=0
note_on channel=1 note=30 velocity=127 time=2
note_on channel=1 note=42 velocity=127 time=0
note_on channel=1 note=30 velocity=0 time=94
note_on channel=1 note=42 velocity=0 time=0
note_on channel=1 note=29 velocity=127 time=2
note_on channel=1 note=41 velocity=127 time=0
note_on channel=1 note=29 velocity=0 time=94
note_on channel=1 note=41 velocity=0 time=0
note_on channel=1 note=28 velocity=127 time=2
note_on channel=1 note=40 velocity=127 time=0
note_on channel=1 note=28 velocity=0 time=94
note_on channel=1 note=40 velocity=0 time=0
note_on channel=1 note=27 velocity=127 time=2
note_on channel=1 note=39 velocity=127 time=0
note_on channel=1 note=27 velocity=0 time=94
note_on channel=1 note=39 velocity=0 time=0
note_on channel=1 note=26 velocity=127 time=2
note_on channel=1 note=38 velocity=127 time=0
note_on channel=1 note=26 velocity=0 time=46
note_on channel=1 note=38 velocity=0 time=0
note_on channel=1 note=25 velocity=127 time=2
note_on channel=1 note=37 velocity=127 time=0
note_on channel=1 note=25 velocity=0 time=46
note_on channel=1 note=37 velocity=0 time=0
note_on channel=1 note=24 velocity=127 time=2
note_on channel=1 note=36 velocity=127 time=0
note_on channel=1 note=24 velocity=0 time=46
note_on channel=1 note=36 velocity=0 time=0
note_on channel=1 note=23 velocity=127 time=2
note_on channel=1 note=35 velocity=127 time=0
control_change channel=1 control=64 value=127 time=48
note_on channel=1 note=23 velocity=0 time=336
note_on channel=1 note=35 velocity=0 time=0
control_change channel=1 control=64 value=127 time=48
note_on channel=1 note=35 velocity=92 time=0
note_on channel=1 note=35 velocity=0 time=46
note_on channel=1 note=47 velocity=92 time=2
note_on channel=1 note=47 velocity=0 time=46
note_on channel=1 note=35 velocity=92 time=2
note_on channel=1 note=35 velocity=0 time=46
note_on channel=1 note=47 velocity=92 time=2
note_on channel=1 note=47 velocity=0 time=46
note_on channel=1 note=35 velocity=92 time=2
note_on channel=1 note=35 velocity=0 time=46
note_on channel=1 note=47 velocity=92 time=2
note_on channel=1 note=47 velocity=0 time=46
note_on channel=1 note=35 velocity=92 time=2
note_on channel=1 note=35 velocity=0 time=46
note_on channel=1 note=47 velocity=92 time=2
note_on channel=1 note=47 velocity=0 time=46
note_on channel=1 note=35 velocity=127 time=2
note_on channel=1 note=47 velocity=127 time=0
note_on channel=1 note=35 velocity=0 time=336
note_on channel=1 note=47 velocity=0 time=0
control_change channel=1 control=64 value=0 time=48
control_change channel=1 control=64 value=127 time=0
note_on channel=1 note=28 velocity=127 time=0
note_on channel=1 note=40 velocity=127 time=0
note_on channel=1 note=28 velocity=0 time=94
note_on channel=1 note=40 velocity=0 time=0
note_on channel=1 note=28 velocity=92 time=2
note_on channel=1 note=40 velocity=92 time=0
note_on channel=1 note=28 velocity=0 time=160
note_on channel=1 note=40 velocity=0 time=0
note_on channel=1 note=28 velocity=127 time=32
note_on channel=1 note=40 velocity=127 time=0
note_on channel=1 note=28 velocity=0 time=94
note_on channel=1 note=40 velocity=0 time=0
note_on channel=1 note=28 velocity=92 time=2
note_on channel=1 note=40 velocity=92 time=0
note_on channel=1 note=28 velocity=0 time=160
note_on channel=1 note=40 velocity=0 time=0
control_change channel=1 control=64 value=0 time=32
control_change channel=1 control=64 value=127 time=0
note_on channel=1 note=29 velocity=127 time=0
note_on channel=1 note=41 velocity=127 time=0
note_on channel=1 note=29 velocity=0 time=94
note_on channel=1 note=41 velocity=0 time=0
note_on channel=1 note=29 velocity=92 time=2
note_on channel=1 note=41 velocity=92 time=0
note_on channel=1 note=29 velocity=0 time=160
note_on channel=1 note=41 velocity=0 time=0
note_on channel=1 note=29 velocity=127 time=32
note_on channel=1 note=41 velocity=127 time=0
note_on channel=1 note=29 velocity=0 time=94
note_on channel=1 note=41 velocity=0 time=0
note_on channel=1 note=29 velocity=92 time=2
note_on channel=1 note=41 velocity=92 time=0
note_on channel=1 note=29 velocity=0 time=160
note_on channel=1 note=41 velocity=0 time=0
control_change channel=1 control=64 value=0 time=32
control_change channel=1 control=64 value=127 time=0
note_on channel=1 note=30 velocity=127 time=0
note_on channel=1 note=42 velocity=127 time=0
note_on channel=1 note=30 velocity=0 time=94
note_on channel=1 note=42 velocity=0 time=0
note_on channel=1 note=30 velocity=92 time=2
note_on channel=1 note=42 velocity=92 time=0
note_on channel=1 note=30 velocity=0 time=160
note_on channel=1 note=42 velocity=0 time=0
note_on channel=1 note=30 velocity=127 time=32
note_on channel=1 note=42 velocity=127 time=0
note_on channel=1 note=30 velocity=0 time=94
note_on channel=1 note=42 velocity=0 time=0
note_on channel=1 note=30 velocity=92 time=2
note_on channel=1 note=42 velocity=92 time=0
note_on channel=1 note=30 velocity=0 time=160
note_on channel=1 note=42 velocity=0 time=0
control_change channel=1 control=64 value=0 time=32
note_on channel=1 note=29 velocity=127 time=0
note_on channel=1 note=41 velocity=127 time=0
note_on channel=1 note=29 velocity=0 time=73
note_on channel=1 note=41 velocity=0 time=0
note_on channel=1 note=29 velocity=127 time=119
note_on channel=1 note=41 velocity=127 time=0
note_on channel=1 note=29 velocity=0 time=73
note_on channel=1 note=41 velocity=0 time=0
note_on channel=1 note=29 velocity=127 time=119
note_on channel=1 note=41 velocity=127 time=0
note_on channel=1 note=29 velocity=0 time=192
note_on channel=1 note=41 velocity=0 time=0
control_change channel=1 control=64 value=0 time=0
control_change channel=1 control=64 value=127 time=0
note_on channel=1 note=24 velocity=127 time=0
note_on channel=1 note=36 velocity=127 time=0
note_on channel=1 note=24 velocity=0 time=94
note_on channel=1 note=36 velocity=0 time=0
note_on channel=1 note=24 velocity=92 time=2
note_on channel=1 note=36 velocity=92 time=0
note_on channel=1 note=24 velocity=0 time=160
note_on channel=1 note=36 velocity=0 time=0
note_on channel=1 note=24 velocity=127 time=32
note_on channel=1 note=36 velocity=127 time=0
note_on channel=1 note=24 velocity=0 time=94
note_on channel=1 note=36 velocity=0 time=0
note_on channel=1 note=24 velocity=92 time=2
note_on channel=1 note=36 velocity=92 time=0
note_on channel=1 note=24 velocity=0 time=160
note_on channel=1 note=36 velocity=0 time=0
control_change channel=1 control=64 value=0 time=32
control_change channel=1 control=64 value=127 time=0
note_on channel=1 note=28 velocity=127 time=0
note_on channel=1 note=40 velocity=127 time=0
note_on channel=1 note=28 velocity=0 time=94
note_on channel=1 note=40 velocity=0 time=0
note_on channel=1 note=28 velocity=92 time=2
note_on channel=1 note=40 velocity=92 time=0
note_on channel=1 note=28 velocity=0 time=160
note_on channel=1 note=40 velocity=0 time=0
note_on channel=1 note=28 velocity=127 time=32
note_on channel=1 note=40 velocity=127 time=0
note_on channel=1 note=28 velocity=0 time=94
note_on channel=1 note=40 velocity=0 time=0
note_on channel=1 note=28 velocity=92 time=2
note_on channel=1 note=40 velocity=92 time=0
note_on channel=1 note=28 velocity=0 time=160
note_on channel=1 note=40 velocity=0 time=0
control_change channel=1 control=64 value=0 time=32
control_change channel=1 control=64 value=127 time=0
note_on channel=1 note=29 velocity=92 time=0
note_on channel=1 note=41 velocity=92 time=0
note_on channel=1 note=29 velocity=0 time=94
note_on channel=1 note=41 velocity=0 time=0
note_on channel=1 note=29 velocity=92 time=2
note_on channel=1 note=41 velocity=92 time=0
note_on channel=1 note=29 velocity=0 time=94
note_on channel=1 note=41 velocity=0 time=0
note_on channel=1 note=29 velocity=92 time=2
note_on channel=1 note=41 velocity=92 time=0
note_on channel=1 note=29 velocity=0 time=94
note_on channel=1 note=41 velocity=0 time=0
note_on channel=1 note=29 velocity=92 time=2
note_on channel=1 note=41 velocity=92 time=0
note_on channel=1 note=29 velocity=0 time=94
note_on channel=1 note=41 velocity=0 time=0
note_on channel=1 note=29 velocity=92 time=2
note_on channel=1 note=41 velocity=92 time=0
note_on channel=1 note=29 velocity=0 time=94
note_on channel=1 note=41 velocity=0 time=0
note_on channel=1 note=29 velocity=92 time=2
note_on channel=1 note=41 velocity=92 time=0
note_on channel=1 note=29 velocity=0 time=94
note_on channel=1 note=41 velocity=0 time=0
control_change channel=1 control=64 value=0 time=2
note_on channel=1 note=28 velocity=127 time=0
note_on channel=1 note=40 velocity=127 time=0
note_on channel=1 note=28 velocity=0 time=73
note_on channel=1 note=40 velocity=0 time=0
note_on channel=1 note=28 velocity=127 time=119
note_on channel=1 note=40 velocity=127 time=0
note_on channel=1 note=28 velocity=0 time=73
note_on channel=1 note=40 velocity=0 time=0
note_on channel=1 note=28 velocity=127 time=119
note_on channel=1 note=40 velocity=127 time=0
note_on channel=1 note=28 velocity=0 time=192
note_on channel=1 note=40 velocity=0 time=0
control_change channel=1 control=64 value=127 time=0
note_on channel=1 note=28 velocity=127 time=0
note_on channel=1 note=40 velocity=127 time=0
note_on channel=1 note=28 velocity=0 time=94
note_on channel=1 note=40 velocity=0 time=0
note_on channel=1 note=28 velocity=92 time=2
note_on channel=1 note=40 velocity=92 time=0
note_on channel=1 note=28 velocity=0 time=160
note_on channel=1 note=40 velocity=0 time=0
note_on channel=1 note=28 velocity=127 time=32
note_on channel=1 note=40 velocity=127 time=0
note_on channel=1 note=28 velocity=0 time=94
note_on channel=1 note=40 velocity=0 time=0
note_on channel=1 note=28 velocity=92 time=2
note_on channel=1 note=40 velocity=92 time=0
note_on channel=1 note=28 velocity=0 time=160
note_on channel=1 note=40 velocity=0 time=0
control_change channel=1 control=64 value=0 time=32
control_change channel=1 control=64 value=127 time=0
note_on channel=1 note=29 velocity=127 time=0
note_on channel=1 note=41 velocity=127 time=0
note_on channel=1 note=29 velocity=0 time=94
note_on channel=1 note=41 velocity=0 time=0
note_on channel=1 note=29 velocity=92 time=2
note_on channel=1 note=41 velocity=92 time=0
note_on channel=1 note=29 velocity=0 time=160
note_on channel=1 note=41 velocity=0 time=0
note_on channel=1 note=29 velocity=127 time=32
note_on channel=1 note=41 velocity=127 time=0
note_on channel=1 note=29 velocity=0 time=94
note_on channel=1 note=41 velocity=0 time=0
note_on channel=1 note=29 velocity=92 time=2
note_on channel=1 note=41 velocity=92 time=0
note_on channel=1 note=29 velocity=0 time=160
note_on channel=1 note=41 velocity=0 time=0
control_change channel=1 control=64 value=0 time=32
control_change channel=1 control=64 value=127 time=0
note_on channel=1 note=30 velocity=127 time=0
note_on channel=1 note=42 velocity=127 time=0
note_on channel=1 note=30 velocity=0 time=94
note_on channel=1 note=42 velocity=0 time=0
note_on channel=1 note=30 velocity=92 time=2
note_on channel=1 note=42 velocity=92 time=0
note_on channel=1 note=30 velocity=0 time=160
note_on channel=1 note=42 velocity=0 time=0
note_on channel=1 note=30 velocity=127 time=32
note_on channel=1 note=42 velocity=127 time=0
note_on channel=1 note=30 velocity=0 time=94
note_on channel=1 note=42 velocity=0 time=0
note_on channel=1 note=30 velocity=92 time=2
note_on channel=1 note=42 velocity=92 time=0
note_on channel=1 note=30 velocity=0 time=160
note_on channel=1 note=42 velocity=0 time=0
control_change channel=1 control=64 value=0 time=32
note_on channel=1 note=29 velocity=127 time=0
note_on channel=1 note=41 velocity=127 time=0
note_on channel=1 note=29 velocity=0 time=73
note_on channel=1 note=41 velocity=0 time=0
note_on channel=1 note=29 velocity=127 time=119
note_on channel=1 note=41 velocity=127 time=0
note_on channel=1 note=29 velocity=0 time=73
note_on channel=1 note=41 velocity=0 time=0
note_on channel=1 note=29 velocity=127 time=119
note_on channel=1 note=41 velocity=127 time=0
note_on channel=1 note=29 velocity=0 time=192
note_on channel=1 note=41 velocity=0 time=0
control_change channel=1 control=64 value=0 time=0
control_change channel=1 control=64 value=127 time=0
note_on channel=1 note=24 velocity=127 time=0
note_on channel=1 note=36 velocity=127 time=0
note_on channel=1 note=24 velocity=0 time=94
note_on channel=1 note=36 velocity=0 time=0
note_on channel=1 note=24 velocity=92 time=2
note_on channel=1 note=36 velocity=92 time=0
note_on channel=1 note=24 velocity=0 time=160
note_on channel=1 note=36 velocity=0 time=0
note_on channel=1 note=24 velocity=127 time=32
note_on channel=1 note=36 velocity=127 time=0
note_on channel=1 note=24 velocity=0 time=94
note_on channel=1 note=36 velocity=0 time=0
note_on channel=1 note=24 velocity=92 time=2
note_on channel=1 note=36 velocity=92 time=0
note_on channel=1 note=24 velocity=0 time=160
note_on channel=1 note=36 velocity=0 time=0
control_change channel=1 control=64 value=0 time=32
control_change channel=1 control=64 value=127 time=0
note_on channel=1 note=28 velocity=127 time=0
note_on channel=1 note=40 velocity=127 time=0
note_on channel=1 note=28 velocity=0 time=94
note_on channel=1 note=40 velocity=0 time=0
note_on channel=1 note=28 velocity=92 time=2
note_on channel=1 note=40 velocity=92 time=0
note_on channel=1 note=28 velocity=0 time=160
note_on channel=1 note=40 velocity=0 time=0
note_on channel=1 note=28 velocity=127 time=32
note_on channel=1 note=40 velocity=127 time=0
note_on channel=1 note=28 velocity=0 time=94
note_on channel=1 note=40 velocity=0 time=0
note_on channel=1 note=28 velocity=92 time=2
note_on channel=1 note=40 velocity=92 time=0
note_on channel=1 note=28 velocity=0 time=160
note_on channel=1 note=40 velocity=0 time=0
control_change channel=1 control=64 value=0 time=32
control_change channel=1 control=64 value=127 time=0
note_on channel=1 note=29 velocity=127 time=0
note_on channel=1 note=41 velocity=127 time=0
note_on channel=1 note=29 velocity=0 time=94
note_on channel=1 note=41 velocity=0 time=0
note_on channel=1 note=29 velocity=92 time=2
note_on channel=1 note=41 velocity=92 time=0
note_on channel=1 note=29 velocity=0 time=94
note_on channel=1 note=41 velocity=0 time=0
note_on channel=1 note=29 velocity=127 time=98
note_on channel=1 note=41 velocity=127 time=0
note_on channel=1 note=29 velocity=0 time=94
note_on channel=1 note=41 velocity=0 time=0
note_on channel=1 note=29 velocity=92 time=2
note_on channel=1 note=41 velocity=92 time=0
note_on channel=1 note=29 velocity=0 time=94
note_on channel=1 note=41 velocity=0 time=0
control_change channel=1 control=64 value=0 time=98
note_on channel=1 note=30 velocity=127 time=0
note_on channel=1 note=42 velocity=127 time=0
note_on channel=1 note=30 velocity=0 time=73
note_on channel=1 note=42 velocity=0 time=0
note_on channel=1 note=30 velocity=127 time=119
note_on channel=1 note=42 velocity=127 time=0
note_on channel=1 note=30 velocity=0 time=73
note_on channel=1 note=42 velocity=0 time=0
note_on channel=1 note=30 velocity=127 time=119
note_on channel=1 note=42 velocity=127 time=0
note_on channel=1 note=30 velocity=0 time=192
note_on channel=1 note=42 velocity=0 time=0
control_change channel=1 control=64 value=127 time=0
note_on channel=1 note=24 velocity=127 time=0
note_on channel=1 note=36 velocity=127 time=0
note_on channel=1 note=24 velocity=0 time=94
note_on channel=1 note=36 velocity=0 time=0
note_on channel=1 note=24 velocity=127 time=2
note_on channel=1 note=36 velocity=127 time=0
note_on channel=1 note=24 velocity=0 time=160
note_on channel=1 note=36 velocity=0 time=0
note_on channel=1 note=24 velocity=127 time=32
note_on channel=1 note=36 velocity=127 time=0
note_on channel=1 note=24 velocity=0 time=94
note_on channel=1 note=36 velocity=0 time=0
note_on channel=1 note=24 velocity=127 time=2
note_on channel=1 note=36 velocity=127 time=0
note_on channel=1 note=24 velocity=0 time=160
note_on channel=1 note=36 velocity=0 time=0
control_change channel=1 control=64 value=0 time=32
note_on channel=1 note=24 velocity=127 time=0
note_on channel=1 note=36 velocity=127 time=0
note_on channel=1 note=24 velocity=0 time=160
note_on channel=1 note=36 velocity=0 time=0
control_change channel=1 control=64 value=127 time=416
note_on channel=1 note=24 velocity=127 time=0
note_on channel=1 note=36 velocity=127 time=0
note_on channel=1 note=24 velocity=0 time=94
note_on channel=1 note=36 velocity=0 time=0
note_on channel=1 note=24 velocity=127 time=2
note_on channel=1 note=36 velocity=127 time=0
note_on channel=1 note=24 velocity=0 time=160
note_on channel=1 note=36 velocity=0 time=0
note_on channel=1 note=24 velocity=127 time=32
note_on channel=1 note=36 velocity=127 time=0
note_on channel=1 note=24 velocity=0 time=94
note_on channel=1 note=36 velocity=0 time=0
note_on channel=1 note=24 velocity=127 time=2
note_on channel=1 note=36 velocity=127 time=0
note_on channel=1 note=24 velocity=0 time=160
note_on channel=1 note=36 velocity=0 time=0
control_change channel=1 control=64 value=0 time=32
note_on channel=1 note=24 velocity=127 time=0
note_on channel=1 note=36 velocity=127 time=0
note_on channel=1 note=24 velocity=0 time=160
note_on channel=1 note=36 velocity=0 time=0
control_change channel=1 control=64 value=127 time=416
note_on channel=1 note=29 velocity=127 time=0
note_on channel=1 note=41 velocity=127 time=0
note_on channel=1 note=29 velocity=0 time=94
note_on channel=1 note=41 velocity=0 time=0
note_on channel=1 note=29 velocity=127 time=2
note_on channel=1 note=41 velocity=127 time=0
note_on channel=1 note=29 velocity=0 time=160
note_on channel=1 note=41 velocity=0 time=0
note_on channel=1 note=29 velocity=127 time=32
note_on channel=1 note=41 velocity=127 time=0
note_on channel=1 note=29 velocity=0 time=94
note_on channel=1 note=41 velocity=0 time=0
note_on channel=1 note=29 velocity=127 time=2
note_on channel=1 note=41 velocity=127 time=0
note_on channel=1 note=29 velocity=0 time=160
note_on channel=1 note=41 velocity=0 time=0
control_change channel=1 control=64 value=0 time=32
note_on channel=1 note=29 velocity=127 time=0
note_on channel=1 note=41 velocity=127 time=0
note_on channel=1 note=29 velocity=0 time=160
note_on channel=1 note=41 velocity=0 time=0
control_change channel=1 control=64 value=127 time=416
note_on channel=1 note=29 velocity=127 time=0
note_on channel=1 note=41 velocity=127 time=0
note_on channel=1 note=29 velocity=0 time=94
note_on channel=1 note=41 velocity=0 time=0
note_on channel=1 note=29 velocity=127 time=2
note_on channel=1 note=41 velocity=127 time=0
note_on channel=1 note=29 velocity=0 time=160
note_on channel=1 note=41 velocity=0 time=0
note_on channel=1 note=29 velocity=127 time=32
note_on channel=1 note=41 velocity=127 time=0
note_on channel=1 note=29 velocity=0 time=94
note_on channel=1 note=41 velocity=0 time=0
note_on channel=1 note=29 velocity=127 time=2
note_on channel=1 note=41 velocity=127 time=0
note_on channel=1 note=29 velocity=0 time=160
note_on channel=1 note=41 velocity=0 time=0
control_change channel=1 control=64 value=0 time=32
note_on channel=1 note=29 velocity=127 time=0
note_on channel=1 note=41 velocity=127 time=0
note_on channel=1 note=29 velocity=0 time=160
note_on channel=1 note=41 velocity=0 time=0
control_change channel=1 control=64 value=127 time=416
note_on channel=1 note=24 velocity=127 time=0
note_on channel=1 note=36 velocity=127 time=0
note_on channel=1 note=24 velocity=0 time=94
note_on channel=1 note=36 velocity=0 time=0
note_on channel=1 note=24 velocity=127 time=2
note_on channel=1 note=36 velocity=127 time=0
note_on channel=1 note=24 velocity=0 time=160
note_on channel=1 note=36 velocity=0 time=0
note_on channel=1 note=24 velocity=127 time=32
note_on channel=1 note=36 velocity=127 time=0
note_on channel=1 note=24 velocity=0 time=94
note_on channel=1 note=36 velocity=0 time=0
note_on channel=1 note=24 velocity=127 time=2
note_on channel=1 note=36 velocity=127 time=0
note_on channel=1 note=24 velocity=0 time=160
note_on channel=1 note=36 velocity=0 time=0
control_change channel=1 control=64 value=0 time=32
note_on channel=1 note=24 velocity=127 time=0
note_on channel=1 note=36 velocity=127 time=0
note_on channel=1 note=24 velocity=0 time=73
note_on channel=1 note=36 velocity=0 time=0
control_change channel=1 control=64 value=127 time=503
note_on channel=1 note=24 velocity=127 time=0
note_on channel=1 note=36 velocity=127 time=0
note_on channel=1 note=24 velocity=0 time=94
note_on channel=1 note=36 velocity=0 time=0
note_on channel=1 note=24 velocity=127 time=2
note_on channel=1 note=36 velocity=127 time=0
note_on channel=1 note=24 velocity=0 time=160
note_on channel=1 note=36 velocity=0 time=0
note_on channel=1 note=24 velocity=127 time=32
note_on channel=1 note=36 velocity=127 time=0
note_on channel=1 note=24 velocity=0 time=94
note_on channel=1 note=36 velocity=0 time=0
note_on channel=1 note=24 velocity=127 time=2
note_on channel=1 note=36 velocity=127 time=0
note_on channel=1 note=24 velocity=0 time=160
note_on channel=1 note=36 velocity=0 time=0
control_change channel=1 control=64 value=0 time=32
note_on channel=1 note=24 velocity=127 time=0
note_on channel=1 note=36 velocity=127 time=0
note_on channel=1 note=24 velocity=0 time=73
note_on channel=1 note=36 velocity=0 time=0
control_change channel=1 control=64 value=127 time=503
note_on channel=1 note=29 velocity=127 time=0
note_on channel=1 note=41 velocity=127 time=0
note_on channel=1 note=29 velocity=0 time=94
note_on channel=1 note=41 velocity=0 time=0
note_on channel=1 note=29 velocity=127 time=2
note_on channel=1 note=41 velocity=127 time=0
note_on channel=1 note=29 velocity=0 time=160
note_on channel=1 note=41 velocity=0 time=0
note_on channel=1 note=29 velocity=127 time=32
note_on channel=1 note=41 velocity=127 time=0
note_on channel=1 note=29 velocity=0 time=94
note_on channel=1 note=41 velocity=0 time=0
note_on channel=1 note=29 velocity=127 time=2
note_on channel=1 note=41 velocity=127 time=0
note_on channel=1 note=29 velocity=0 time=160
note_on channel=1 note=41 velocity=0 time=0
control_change channel=1 control=64 value=0 time=32
note_on channel=1 note=29 velocity=127 time=0
note_on channel=1 note=41 velocity=127 time=0
note_on channel=1 note=29 velocity=0 time=94
note_on channel=1 note=41 velocity=0 time=0
note_on channel=1 note=29 velocity=127 time=2
note_on channel=1 note=41 velocity=127 time=0
note_on channel=1 note=29 velocity=0 time=160
note_on channel=1 note=41 velocity=0 time=0
note_on channel=1 note=29 velocity=127 time=32
note_on channel=1 note=41 velocity=127 time=0
note_on channel=1 note=29 velocity=0 time=94
note_on channel=1 note=41 velocity=0 time=0
note_on channel=1 note=29 velocity=127 time=2
note_on channel=1 note=41 velocity=127 time=0
note_on channel=1 note=29 velocity=0 time=160
note_on channel=1 note=41 velocity=0 time=0
note_on channel=1 note=54 velocity=92 time=32
note_on channel=1 note=59 velocity=92 time=0
note_on channel=1 note=64 velocity=92 time=0
note_on channel=1 note=54 velocity=0 time=94
note_on channel=1 note=59 velocity=0 time=0
note_on channel=1 note=64 velocity=0 time=0
note_on channel=1 note=54 velocity=92 time=2
note_on channel=1 note=59 velocity=92 time=0
note_on channel=1 note=64 velocity=92 time=0
note_on channel=1 note=54 velocity=0 time=94
note_on channel=1 note=59 velocity=0 time=0
note_on channel=1 note=64 velocity=0 time=0
note_on channel=1 note=54 velocity=92 time=2
note_on channel=1 note=59 velocity=92 time=0
note_on channel=1 note=64 velocity=92 time=0
note_on channel=1 note=54 velocity=0 time=94
note_on channel=1 note=59 velocity=0 time=0
note_on channel=1 note=64 velocity=0 time=0
note_on channel=1 note=54 velocity=92 time=2
note_on channel=1 note=59 velocity=92 time=0
note_on channel=1 note=64 velocity=92 time=0
note_on channel=1 note=54 velocity=0 time=94
note_on channel=1 note=59 velocity=0 time=0
note_on channel=1 note=64 velocity=0 time=0
note_on channel=1 note=54 velocity=92 time=2
note_on channel=1 note=59 velocity=92 time=0
note_on channel=1 note=64 velocity=92 time=0
note_on channel=1 note=54 velocity=0 time=94
note_on channel=1 note=59 velocity=0 time=0
note_on channel=1 note=64 velocity=0 time=0
note_on channel=1 note=54 velocity=92 time=2
note_on channel=1 note=59 velocity=92 time=0
note_on channel=1 note=64 velocity=92 time=0
note_on channel=1 note=54 velocity=0 time=94
note_on channel=1 note=59 velocity=0 time=0
note_on channel=1 note=64 velocity=0 time=0
note_on channel=1 note=54 velocity=92 time=2
note_on channel=1 note=59 velocity=92 time=0
note_on channel=1 note=63 velocity=92 time=0
note_on channel=1 note=54 velocity=0 time=94
note_on channel=1 note=59 velocity=0 time=0
note_on channel=1 note=63 velocity=0 time=0
note_on channel=1 note=54 velocity=92 time=2
note_on channel=1 note=59 velocity=92 time=0
note_on channel=1 note=63 velocity=92 time=0
note_on channel=1 note=54 velocity=0 time=94
note_on channel=1 note=59 velocity=0 time=0
note_on channel=1 note=63 velocity=0 time=0
note_on channel=1 note=54 velocity=92 time=2
note_on channel=1 note=59 velocity=92 time=0
note_on channel=1 note=63 velocity=92 time=0
note_on channel=1 note=54 velocity=0 time=94
note_on channel=1 note=59 velocity=0 time=0
note_on channel=1 note=63 velocity=0 time=0
note_on channel=1 note=54 velocity=92 time=2
note_on channel=1 note=59 velocity=92 time=0
note_on channel=1 note=63 velocity=92 time=0
note_on channel=1 note=54 velocity=0 time=94
note_on channel=1 note=59 velocity=0 time=0
note_on channel=1 note=63 velocity=0 time=0
note_on channel=1 note=54 velocity=92 time=2
note_on channel=1 note=59 velocity=92 time=0
note_on channel=1 note=63 velocity=92 time=0
note_on channel=1 note=54 velocity=0 time=94
note_on channel=1 note=59 velocity=0 time=0
note_on channel=1 note=63 velocity=0 time=0
note_on channel=1 note=54 velocity=127 time=2
note_on channel=1 note=59 velocity=127 time=0
note_on channel=1 note=63 velocity=127 time=0
note_on channel=1 note=54 velocity=0 time=94
note_on channel=1 note=59 velocity=0 time=0
note_on channel=1 note=63 velocity=0 time=0
control_change channel=1 control=64 value=0 time=2
control_change channel=1 control=64 value=127 time=0
note_on channel=1 note=55 velocity=92 time=0
note_on channel=1 note=59 velocity=92 time=0
note_on channel=1 note=55 velocity=0 time=528
note_on channel=1 note=59 velocity=0 time=0
<meta message end_of_track time=0>
<meta message midi_port port=1 time=0>
<meta message track_name name='Staff-1' time=0>
control_change channel=1 control=7 value=127 time=0
control_change channel=1 control=10 value=64 time=0
note_on channel=1 note=55 velocity=92 time=3936
note_on channel=1 note=59 velocity=92 time=0
note_on channel=1 note=64 velocity=92 time=0
note_on channel=1 note=55 velocity=0 time=94
note_on channel=1 note=59 velocity=0 time=0
note_on channel=1 note=64 velocity=0 time=0
note_on channel=1 note=55 velocity=92 time=2
note_on channel=1 note=59 velocity=92 time=0
note_on channel=1 note=64 velocity=92 time=0
note_on channel=1 note=55 velocity=0 time=160
note_on channel=1 note=59 velocity=0 time=0
note_on channel=1 note=64 velocity=0 time=0
note_on channel=1 note=55 velocity=92 time=32
note_on channel=1 note=59 velocity=92 time=0
note_on channel=1 note=64 velocity=92 time=0
note_on channel=1 note=55 velocity=0 time=94
note_on channel=1 note=59 velocity=0 time=0
note_on channel=1 note=64 velocity=0 time=0
note_on channel=1 note=55 velocity=92 time=2
note_on channel=1 note=59 velocity=92 time=0
note_on channel=1 note=64 velocity=92 time=0
note_on channel=1 note=55 velocity=0 time=160
note_on channel=1 note=59 velocity=0 time=0
note_on channel=1 note=64 velocity=0 time=0
control_change channel=1 control=64 value=0 time=32
control_change channel=1 control=64 value=127 time=0
note_on channel=1 note=53 velocity=92 time=0
note_on channel=1 note=59 velocity=92 time=0
note_on channel=1 note=62 velocity=92 time=0
note_on channel=1 note=65 velocity=92 time=0
note_on channel=1 note=53 velocity=0 time=94
note_on channel=1 note=59 velocity=0 time=0
note_on channel=1 note=62 velocity=0 time=0
note_on channel=1 note=65 velocity=0 time=0
note_on channel=1 note=53 velocity=92 time=2
note_on channel=1 note=59 velocity=92 time=0
note_on channel=1 note=62 velocity=92 time=0
note_on channel=1 note=65 velocity=92 time=0
note_on channel=1 note=53 velocity=0 time=160
note_on channel=1 note=59 velocity=0 time=0
note_on channel=1 note=62 velocity=0 time=0
note_on channel=1 note=65 velocity=0 time=0
note_on channel=1 note=53 velocity=92 time=32
note_on channel=1 note=59 velocity=92 time=0
note_on channel=1 note=62 velocity=92 time=0
note_on channel=1 note=65 velocity=92 time=0
note_on channel=1 note=53 velocity=0 time=94
note_on channel=1 note=59 velocity=0 time=0
note_on channel=1 note=62 velocity=0 time=0
note_on channel=1 note=65 velocity=0 time=0
note_on channel=1 note=53 velocity=92 time=2
note_on channel=1 note=59 velocity=92 time=0
note_on channel=1 note=62 velocity=92 time=0
note_on channel=1 note=65 velocity=92 time=0
note_on channel=1 note=53 velocity=0 time=160
note_on channel=1 note=59 velocity=0 time=0
note_on channel=1 note=62 velocity=0 time=0
note_on channel=1 note=65 velocity=0 time=0
note_on channel=1 note=54 velocity=92 time=32
note_on channel=1 note=59 velocity=92 time=0
note_on channel=1 note=64 velocity=92 time=0
note_on channel=1 note=66 velocity=92 time=0
note_on channel=1 note=54 velocity=0 time=94
note_on channel=1 note=59 velocity=0 time=0
note_on channel=1 note=64 velocity=0 time=0
note_on channel=1 note=66 velocity=0 time=0
note_on channel=1 note=54 velocity=92 time=2
note_on channel=1 note=59 velocity=92 time=0
note_on channel=1 note=64 velocity=92 time=0
note_on channel=1 note=66 velocity=92 time=0
note_on channel=1 note=54 velocity=0 time=160
note_on channel=1 note=59 velocity=0 time=0
note_on channel=1 note=64 velocity=0 time=0
note_on channel=1 note=66 velocity=0 time=0
note_on channel=1 note=54 velocity=92 time=32
note_on channel=1 note=59 velocity=92 time=0
note_on channel=1 note=64 velocity=92 time=0
note_on channel=1 note=66 velocity=92 time=0
note_on channel=1 note=54 velocity=0 time=94
note_on channel=1 note=59 velocity=0 time=0
note_on channel=1 note=64 velocity=0 time=0
note_on channel=1 note=66 velocity=0 time=0
note_on channel=1 note=54 velocity=92 time=2
note_on channel=1 note=59 velocity=92 time=0
note_on channel=1 note=64 velocity=92 time=0
note_on channel=1 note=66 velocity=92 time=0
note_on channel=1 note=54 velocity=0 time=160
note_on channel=1 note=59 velocity=0 time=0
note_on channel=1 note=64 velocity=0 time=0
note_on channel=1 note=66 velocity=0 time=0
note_on channel=1 note=53 velocity=92 time=32
note_on channel=1 note=60 velocity=92 time=0
note_on channel=1 note=62 velocity=92 time=0
note_on channel=1 note=65 velocity=92 time=0
note_on channel=1 note=53 velocity=0 time=73
note_on channel=1 note=60 velocity=0 time=0
note_on channel=1 note=62 velocity=0 time=0
note_on channel=1 note=65 velocity=0 time=0
note_on channel=1 note=53 velocity=92 time=119
note_on channel=1 note=60 velocity=92 time=0
note_on channel=1 note=62 velocity=92 time=0
note_on channel=1 note=65 velocity=92 time=0
note_on channel=1 note=53 velocity=0 time=73
note_on channel=1 note=60 velocity=0 time=0
note_on channel=1 note=62 velocity=0 time=0
note_on channel=1 note=65 velocity=0 time=0
note_on channel=1 note=53 velocity=97 time=119
note_on channel=1 note=60 velocity=97 time=0
note_on channel=1 note=62 velocity=97 time=0
note_on channel=1 note=65 velocity=97 time=0
note_on channel=1 note=53 velocity=0 time=192
note_on channel=1 note=60 velocity=0 time=0
note_on channel=1 note=62 velocity=0 time=0
note_on channel=1 note=65 velocity=0 time=0
note_on channel=1 note=55 velocity=92 time=0
note_on channel=1 note=60 velocity=92 time=0
note_on channel=1 note=64 velocity=92 time=0
note_on channel=1 note=55 velocity=0 time=94
note_on channel=1 note=60 velocity=0 time=0
note_on channel=1 note=64 velocity=0 time=0
note_on channel=1 note=55 velocity=92 time=2
note_on channel=1 note=60 velocity=92 time=0
note_on channel=1 note=64 velocity=92 time=0
note_on channel=1 note=55 velocity=0 time=160
note_on channel=1 note=60 velocity=0 time=0
note_on channel=1 note=64 velocity=0 time=0
note_on channel=1 note=55 velocity=92 time=32
note_on channel=1 note=60 velocity=92 time=0
note_on channel=1 note=64 velocity=92 time=0
note_on channel=1 note=55 velocity=0 time=94
note_on channel=1 note=60 velocity=0 time=0
note_on channel=1 note=64 velocity=0 time=0
note_on channel=1 note=55 velocity=92 time=2
note_on channel=1 note=60 velocity=92 time=0
note_on channel=1 note=64 velocity=92 time=0
note_on channel=1 note=55 velocity=0 time=160
note_on channel=1 note=60 velocity=0 time=0
note_on channel=1 note=64 velocity=0 time=0
note_on channel=1 note=55 velocity=92 time=32
note_on channel=1 note=59 velocity=92 time=0
note_on channel=1 note=64 velocity=92 time=0
note_on channel=1 note=55 velocity=0 time=94
note_on channel=1 note=59 velocity=0 time=0
note_on channel=1 note=64 velocity=0 time=0
note_on channel=1 note=55 velocity=92 time=2
note_on channel=1 note=59 velocity=92 time=0
note_on channel=1 note=64 velocity=92 time=0
note_on channel=1 note=55 velocity=0 time=160
note_on channel=1 note=59 velocity=0 time=0
note_on channel=1 note=64 velocity=0 time=0
note_on channel=1 note=55 velocity=92 time=32
note_on channel=1 note=59 velocity=92 time=0
note_on channel=1 note=64 velocity=92 time=0
note_on channel=1 note=55 velocity=0 time=94
note_on channel=1 note=59 velocity=0 time=0
note_on channel=1 note=64 velocity=0 time=0
note_on channel=1 note=55 velocity=92 time=2
note_on channel=1 note=59 velocity=92 time=0
note_on channel=1 note=64 velocity=92 time=0
note_on channel=1 note=55 velocity=0 time=160
note_on channel=1 note=59 velocity=0 time=0
note_on channel=1 note=64 velocity=0 time=0
note_on channel=1 note=59 velocity=92 time=32
note_on channel=1 note=62 velocity=92 time=0
note_on channel=1 note=65 velocity=92 time=0
note_on channel=1 note=59 velocity=0 time=94
note_on channel=1 note=62 velocity=0 time=0
note_on channel=1 note=65 velocity=0 time=0
note_on channel=1 note=59 velocity=92 time=2
note_on channel=1 note=62 velocity=92 time=0
note_on channel=1 note=65 velocity=92 time=0
note_on channel=1 note=59 velocity=0 time=94
note_on channel=1 note=62 velocity=0 time=0
note_on channel=1 note=65 velocity=0 time=0
note_on channel=1 note=59 velocity=92 time=2
note_on channel=1 note=62 velocity=92 time=0
note_on channel=1 note=65 velocity=92 time=0
note_on channel=1 note=59 velocity=0 time=94
note_on channel=1 note=62 velocity=0 time=0
note_on channel=1 note=65 velocity=0 time=0
note_on channel=1 note=59 velocity=92 time=2
note_on channel=1 note=62 velocity=92 time=0
note_on channel=1 note=65 velocity=92 time=0
note_on channel=1 note=59 velocity=0 time=94
note_on channel=1 note=62 velocity=0 time=0
note_on channel=1 note=65 velocity=0 time=0
note_on channel=1 note=59 velocity=92 time=2
note_on channel=1 note=62 velocity=92 time=0
note_on channel=1 note=65 velocity=92 time=0
note_on channel=1 note=59 velocity=0 time=94
note_on channel=1 note=62 velocity=0 time=0
note_on channel=1 note=65 velocity=0 time=0
note_on channel=1 note=59 velocity=92 time=2
note_on channel=1 note=62 velocity=92 time=0
note_on channel=1 note=65 velocity=92 time=0
note_on channel=1 note=59 velocity=0 time=94
note_on channel=1 note=62 velocity=0 time=0
note_on channel=1 note=65 velocity=0 time=0
note_on channel=1 note=59 velocity=92 time=2
note_on channel=1 note=62 velocity=92 time=0
note_on channel=1 note=65 velocity=92 time=0
note_on channel=1 note=59 velocity=0 time=528
note_on channel=1 note=62 velocity=0 time=0
note_on channel=1 note=65 velocity=0 time=0
note_on channel=1 note=35 velocity=92 time=17616
note_on channel=1 note=47 velocity=92 time=0
note_on channel=1 note=35 velocity=0 time=256
note_on channel=1 note=47 velocity=0 time=0
note_on channel=1 note=35 velocity=92 time=32
note_on channel=1 note=47 velocity=92 time=0
note_on channel=1 note=35 velocity=0 time=160
note_on channel=1 note=47 velocity=0 time=0
note_on channel=1 note=35 velocity=92 time=32
note_on channel=1 note=47 velocity=92 time=0
note_on channel=1 note=35 velocity=0 time=160
note_on channel=1 note=47 velocity=0 time=0
note_on channel=1 note=35 velocity=92 time=32
note_on channel=1 note=47 velocity=92 time=0
note_on channel=1 note=35 velocity=0 time=160
note_on channel=1 note=47 velocity=0 time=0
note_on channel=1 note=39 velocity=92 time=32
note_on channel=1 note=51 velocity=92 time=0
note_on channel=1 note=39 velocity=0 time=94
note_on channel=1 note=51 velocity=0 time=0
note_on channel=1 note=39 velocity=92 time=2
note_on channel=1 note=51 velocity=92 time=0
note_on channel=1 note=39 velocity=0 time=94
note_on channel=1 note=51 velocity=0 time=0
note_on channel=1 note=39 velocity=92 time=98
note_on channel=1 note=51 velocity=92 time=0
note_on channel=1 note=39 velocity=0 time=94
note_on channel=1 note=51 velocity=0 time=0
note_on channel=1 note=39 velocity=92 time=98
note_on channel=1 note=51 velocity=92 time=0
note_on channel=1 note=39 velocity=0 time=94
note_on channel=1 note=51 velocity=0 time=0
note_on channel=1 note=39 velocity=92 time=2
note_on channel=1 note=51 velocity=92 time=0
note_on channel=1 note=39 velocity=0 time=336
note_on channel=1 note=51 velocity=0 time=0
control_change channel=1 control=64 value=127 time=9456
control_change channel=1 control=64 value=127 time=4608
control_change channel=1 control=64 value=127 time=1344
note_on channel=1 note=55 velocity=92 time=2688
note_on channel=1 note=59 velocity=92 time=0
note_on channel=1 note=64 velocity=92 time=0
note_on channel=1 note=55 velocity=0 time=94
note_on channel=1 note=59 velocity=0 time=0
note_on channel=1 note=64 velocity=0 time=0
note_on channel=1 note=55 velocity=92 time=2
note_on channel=1 note=59 velocity=92 time=0
note_on channel=1 note=64 velocity=92 time=0
note_on channel=1 note=55 velocity=0 time=160
note_on channel=1 note=59 velocity=0 time=0
note_on channel=1 note=64 velocity=0 time=0
note_on channel=1 note=55 velocity=92 time=32
note_on channel=1 note=59 velocity=92 time=0
note_on channel=1 note=64 velocity=92 time=0
note_on channel=1 note=55 velocity=0 time=94
note_on channel=1 note=59 velocity=0 time=0
note_on channel=1 note=64 velocity=0 time=0
note_on channel=1 note=55 velocity=92 time=2
note_on channel=1 note=59 velocity=92 time=0
note_on channel=1 note=64 velocity=92 time=0
note_on channel=1 note=55 velocity=0 time=160
note_on channel=1 note=59 velocity=0 time=0
note_on channel=1 note=64 velocity=0 time=0
control_change channel=1 control=64 value=0 time=32
control_change channel=1 control=64 value=127 time=0
note_on channel=1 note=53 velocity=92 time=0
note_on channel=1 note=59 velocity=92 time=0
note_on channel=1 note=62 velocity=92 time=0
note_on channel=1 note=65 velocity=92 time=0
note_on channel=1 note=53 velocity=0 time=94
note_on channel=1 note=59 velocity=0 time=0
note_on channel=1 note=62 velocity=0 time=0
note_on channel=1 note=65 velocity=0 time=0
note_on channel=1 note=53 velocity=92 time=2
note_on channel=1 note=59 velocity=92 time=0
note_on channel=1 note=62 velocity=92 time=0
note_on channel=1 note=65 velocity=92 time=0
note_on channel=1 note=53 velocity=0 time=160
note_on channel=1 note=59 velocity=0 time=0
note_on channel=1 note=62 velocity=0 time=0
note_on channel=1 note=65 velocity=0 time=0
note_on channel=1 note=53 velocity=92 time=32
note_on channel=1 note=59 velocity=92 time=0
note_on channel=1 note=62 velocity=92 time=0
note_on channel=1 note=65 velocity=92 time=0
note_on channel=1 note=53 velocity=0 time=94
note_on channel=1 note=59 velocity=0 time=0
note_on channel=1 note=62 velocity=0 time=0
note_on channel=1 note=65 velocity=0 time=0
note_on channel=1 note=53 velocity=92 time=2
note_on channel=1 note=59 velocity=92 time=0
note_on channel=1 note=62 velocity=92 time=0
note_on channel=1 note=65 velocity=92 time=0
note_on channel=1 note=53 velocity=0 time=160
note_on channel=1 note=59 velocity=0 time=0
note_on channel=1 note=62 velocity=0 time=0
note_on channel=1 note=65 velocity=0 time=0
note_on channel=1 note=54 velocity=92 time=32
note_on channel=1 note=59 velocity=92 time=0
note_on channel=1 note=64 velocity=92 time=0
note_on channel=1 note=66 velocity=92 time=0
note_on channel=1 note=54 velocity=0 time=94
note_on channel=1 note=59 velocity=0 time=0
note_on channel=1 note=64 velocity=0 time=0
note_on channel=1 note=66 velocity=0 time=0
note_on channel=1 note=54 velocity=92 time=2
note_on channel=1 note=59 velocity=92 time=0
note_on channel=1 note=64 velocity=92 time=0
note_on channel=1 note=66 velocity=92 time=0
note_on channel=1 note=54 velocity=0 time=160
note_on channel=1 note=59 velocity=0 time=0
note_on channel=1 note=64 velocity=0 time=0
note_on channel=1 note=66 velocity=0 time=0
note_on channel=1 note=54 velocity=92 time=32
note_on channel=1 note=59 velocity=92 time=0
note_on channel=1 note=64 velocity=92 time=0
note_on channel=1 note=66 velocity=92 time=0
note_on channel=1 note=54 velocity=0 time=94
note_on channel=1 note=59 velocity=0 time=0
note_on channel=1 note=64 velocity=0 time=0
note_on channel=1 note=66 velocity=0 time=0
note_on channel=1 note=54 velocity=92 time=2
note_on channel=1 note=59 velocity=92 time=0
note_on channel=1 note=64 velocity=92 time=0
note_on channel=1 note=66 velocity=92 time=0
note_on channel=1 note=54 velocity=0 time=160
note_on channel=1 note=59 velocity=0 time=0
note_on channel=1 note=64 velocity=0 time=0
note_on channel=1 note=66 velocity=0 time=0
note_on channel=1 note=53 velocity=92 time=32
note_on channel=1 note=60 velocity=92 time=0
note_on channel=1 note=62 velocity=92 time=0
note_on channel=1 note=65 velocity=92 time=0
note_on channel=1 note=53 velocity=0 time=73
note_on channel=1 note=60 velocity=0 time=0
note_on channel=1 note=62 velocity=0 time=0
note_on channel=1 note=65 velocity=0 time=0
note_on channel=1 note=53 velocity=92 time=119
note_on channel=1 note=60 velocity=92 time=0
note_on channel=1 note=62 velocity=92 time=0
note_on channel=1 note=65 velocity=92 time=0
note_on channel=1 note=53 velocity=0 time=73
note_on channel=1 note=60 velocity=0 time=0
note_on channel=1 note=62 velocity=0 time=0
note_on channel=1 note=65 velocity=0 time=0
note_on channel=1 note=53 velocity=97 time=119
note_on channel=1 note=60 velocity=97 time=0
note_on channel=1 note=62 velocity=97 time=0
note_on channel=1 note=65 velocity=97 time=0
note_on channel=1 note=53 velocity=0 time=192
note_on channel=1 note=60 velocity=0 time=0
note_on channel=1 note=62 velocity=0 time=0
note_on channel=1 note=65 velocity=0 time=0
note_on channel=1 note=55 velocity=92 time=0
note_on channel=1 note=60 velocity=92 time=0
note_on channel=1 note=64 velocity=92 time=0
note_on channel=1 note=55 velocity=0 time=94
note_on channel=1 note=60 velocity=0 time=0
note_on channel=1 note=64 velocity=0 time=0
note_on channel=1 note=55 velocity=92 time=2
note_on channel=1 note=60 velocity=92 time=0
note_on channel=1 note=64 velocity=92 time=0
note_on channel=1 note=55 velocity=0 time=160
note_on channel=1 note=60 velocity=0 time=0
note_on channel=1 note=64 velocity=0 time=0
note_on channel=1 note=55 velocity=92 time=32
note_on channel=1 note=60 velocity=92 time=0
note_on channel=1 note=64 velocity=92 time=0
note_on channel=1 note=55 velocity=0 time=94
note_on channel=1 note=60 velocity=0 time=0
note_on channel=1 note=64 velocity=0 time=0
note_on channel=1 note=55 velocity=92 time=2
note_on channel=1 note=60 velocity=92 time=0
note_on channel=1 note=64 velocity=92 time=0
note_on channel=1 note=55 velocity=0 time=160
note_on channel=1 note=60 velocity=0 time=0
note_on channel=1 note=64 velocity=0 time=0
note_on channel=1 note=55 velocity=92 time=32
note_on channel=1 note=59 velocity=92 time=0
note_on channel=1 note=64 velocity=92 time=0
note_on channel=1 note=55 velocity=0 time=94
note_on channel=1 note=59 velocity=0 time=0
note_on channel=1 note=64 velocity=0 time=0
note_on channel=1 note=55 velocity=92 time=2
note_on channel=1 note=59 velocity=92 time=0
note_on channel=1 note=64 velocity=92 time=0
note_on channel=1 note=55 velocity=0 time=160
note_on channel=1 note=59 velocity=0 time=0
note_on channel=1 note=64 velocity=0 time=0
note_on channel=1 note=55 velocity=92 time=32
note_on channel=1 note=59 velocity=92 time=0
note_on channel=1 note=64 velocity=92 time=0
note_on channel=1 note=55 velocity=0 time=94
note_on channel=1 note=59 velocity=0 time=0
note_on channel=1 note=64 velocity=0 time=0
note_on channel=1 note=55 velocity=92 time=2
note_on channel=1 note=59 velocity=92 time=0
note_on channel=1 note=64 velocity=92 time=0
note_on channel=1 note=55 velocity=0 time=160
note_on channel=1 note=59 velocity=0 time=0
note_on channel=1 note=64 velocity=0 time=0
note_on channel=1 note=59 velocity=92 time=32
note_on channel=1 note=62 velocity=92 time=0
note_on channel=1 note=65 velocity=92 time=0
note_on channel=1 note=59 velocity=0 time=94
note_on channel=1 note=62 velocity=0 time=0
note_on channel=1 note=65 velocity=0 time=0
note_on channel=1 note=59 velocity=92 time=2
note_on channel=1 note=62 velocity=92 time=0
note_on channel=1 note=65 velocity=92 time=0
note_on channel=1 note=59 velocity=0 time=94
note_on channel=1 note=62 velocity=0 time=0
note_on channel=1 note=65 velocity=0 time=0
note_on channel=1 note=59 velocity=92 time=2
note_on channel=1 note=62 velocity=92 time=0
note_on channel=1 note=65 velocity=92 time=0
note_on channel=1 note=59 velocity=0 time=94
note_on channel=1 note=62 velocity=0 time=0
note_on channel=1 note=65 velocity=0 time=0
note_on channel=1 note=59 velocity=92 time=2
note_on channel=1 note=62 velocity=92 time=0
note_on channel=1 note=65 velocity=92 time=0
note_on channel=1 note=59 velocity=0 time=94
note_on channel=1 note=62 velocity=0 time=0
note_on channel=1 note=65 velocity=0 time=0
note_on channel=1 note=59 velocity=92 time=2
note_on channel=1 note=62 velocity=92 time=0
note_on channel=1 note=65 velocity=92 time=0
note_on channel=1 note=59 velocity=0 time=94
note_on channel=1 note=62 velocity=0 time=0
note_on channel=1 note=65 velocity=0 time=0
note_on channel=1 note=59 velocity=92 time=2
note_on channel=1 note=62 velocity=92 time=0
note_on channel=1 note=65 velocity=92 time=0
note_on channel=1 note=59 velocity=0 time=94
note_on channel=1 note=62 velocity=0 time=0
note_on channel=1 note=65 velocity=0 time=0
note_on channel=1 note=59 velocity=92 time=2
note_on channel=1 note=64 velocity=92 time=0
note_on channel=1 note=59 velocity=0 time=73
note_on channel=1 note=64 velocity=0 time=0
note_on channel=1 note=59 velocity=92 time=119
note_on channel=1 note=64 velocity=92 time=0
note_on channel=1 note=59 velocity=0 time=73
note_on channel=1 note=64 velocity=0 time=0
note_on channel=1 note=59 velocity=97 time=119
note_on channel=1 note=64 velocity=97 time=0
note_on channel=1 note=59 velocity=0 time=192
note_on channel=1 note=64 velocity=0 time=0
note_on channel=1 note=55 velocity=92 time=0
note_on channel=1 note=59 velocity=92 time=0
note_on channel=1 note=64 velocity=92 time=0
note_on channel=1 note=55 velocity=0 time=94
note_on channel=1 note=59 velocity=0 time=0
note_on channel=1 note=64 velocity=0 time=0
note_on channel=1 note=55 velocity=92 time=2
note_on channel=1 note=59 velocity=92 time=0
note_on channel=1 note=64 velocity=92 time=0
note_on channel=1 note=55 velocity=0 time=160
note_on channel=1 note=59 velocity=0 time=0
note_on channel=1 note=64 velocity=0 time=0
note_on channel=1 note=55 velocity=92 time=32
note_on channel=1 note=59 velocity=92 time=0
note_on channel=1 note=64 velocity=92 time=0
note_on channel=1 note=55 velocity=0 time=94
note_on channel=1 note=59 velocity=0 time=0
note_on channel=1 note=64 velocity=0 time=0
note_on channel=1 note=55 velocity=92 time=2
note_on channel=1 note=59 velocity=92 time=0
note_on channel=1 note=64 velocity=92 time=0
note_on channel=1 note=55 velocity=0 time=160
note_on channel=1 note=59 velocity=0 time=0
note_on channel=1 note=64 velocity=0 time=0
control_change channel=1 control=64 value=0 time=32
control_change channel=1 control=64 value=127 time=0
note_on channel=1 note=53 velocity=92 time=0
note_on channel=1 note=59 velocity=92 time=0
note_on channel=1 note=62 velocity=92 time=0
note_on channel=1 note=65 velocity=92 time=0
note_on channel=1 note=53 velocity=0 time=94
note_on channel=1 note=59 velocity=0 time=0
note_on channel=1 note=62 velocity=0 time=0
note_on channel=1 note=65 velocity=0 time=0
note_on channel=1 note=53 velocity=92 time=2
note_on channel=1 note=59 velocity=92 time=0
note_on channel=1 note=62 velocity=92 time=0
note_on channel=1 note=65 velocity=92 time=0
note_on channel=1 note=53 velocity=0 time=160
note_on channel=1 note=59 velocity=0 time=0
note_on channel=1 note=62 velocity=0 time=0
note_on channel=1 note=65 velocity=0 time=0
note_on channel=1 note=53 velocity=92 time=32
note_on channel=1 note=59 velocity=92 time=0
note_on channel=1 note=62 velocity=92 time=0
note_on channel=1 note=65 velocity=92 time=0
note_on channel=1 note=53 velocity=0 time=94
note_on channel=1 note=59 velocity=0 time=0
note_on channel=1 note=62 velocity=0 time=0
note_on channel=1 note=65 velocity=0 time=0
note_on channel=1 note=53 velocity=92 time=2
note_on channel=1 note=59 velocity=92 time=0
note_on channel=1 note=62 velocity=92 time=0
note_on channel=1 note=65 velocity=92 time=0
note_on channel=1 note=53 velocity=0 time=160
note_on channel=1 note=59 velocity=0 time=0
note_on channel=1 note=62 velocity=0 time=0
note_on channel=1 note=65 velocity=0 time=0
note_on channel=1 note=54 velocity=92 time=32
note_on channel=1 note=59 velocity=92 time=0
note_on channel=1 note=64 velocity=92 time=0
note_on channel=1 note=66 velocity=92 time=0
note_on channel=1 note=54 velocity=0 time=94
note_on channel=1 note=59 velocity=0 time=0
note_on channel=1 note=64 velocity=0 time=0
note_on channel=1 note=66 velocity=0 time=0
note_on channel=1 note=54 velocity=92 time=2
note_on channel=1 note=59 velocity=92 time=0
note_on channel=1 note=64 velocity=92 time=0
note_on channel=1 note=66 velocity=92 time=0
note_on channel=1 note=54 velocity=0 time=160
note_on channel=1 note=59 velocity=0 time=0
note_on channel=1 note=64 velocity=0 time=0
note_on channel=1 note=66 velocity=0 time=0
note_on channel=1 note=54 velocity=92 time=32
note_on channel=1 note=59 velocity=92 time=0
note_on channel=1 note=64 velocity=92 time=0
note_on channel=1 note=66 velocity=92 time=0
note_on channel=1 note=54 velocity=0 time=94
note_on channel=1 note=59 velocity=0 time=0
note_on channel=1 note=64 velocity=0 time=0
note_on channel=1 note=66 velocity=0 time=0
note_on channel=1 note=54 velocity=92 time=2
note_on channel=1 note=59 velocity=92 time=0
note_on channel=1 note=64 velocity=92 time=0
note_on channel=1 note=66 velocity=92 time=0
note_on channel=1 note=54 velocity=0 time=160
note_on channel=1 note=59 velocity=0 time=0
note_on channel=1 note=64 velocity=0 time=0
note_on channel=1 note=66 velocity=0 time=0
note_on channel=1 note=53 velocity=92 time=32
note_on channel=1 note=60 velocity=92 time=0
note_on channel=1 note=62 velocity=92 time=0
note_on channel=1 note=65 velocity=92 time=0
note_on channel=1 note=53 velocity=0 time=73
note_on channel=1 note=60 velocity=0 time=0
note_on channel=1 note=62 velocity=0 time=0
note_on channel=1 note=65 velocity=0 time=0
note_on channel=1 note=53 velocity=92 time=119
note_on channel=1 note=60 velocity=92 time=0
note_on channel=1 note=62 velocity=92 time=0
note_on channel=1 note=65 velocity=92 time=0
note_on channel=1 note=53 velocity=0 time=73
note_on channel=1 note=60 velocity=0 time=0
note_on channel=1 note=62 velocity=0 time=0
note_on channel=1 note=65 velocity=0 time=0
note_on channel=1 note=53 velocity=97 time=119
note_on channel=1 note=60 velocity=97 time=0
note_on channel=1 note=62 velocity=97 time=0
note_on channel=1 note=65 velocity=97 time=0
note_on channel=1 note=53 velocity=0 time=192
note_on channel=1 note=60 velocity=0 time=0
note_on channel=1 note=62 velocity=0 time=0
note_on channel=1 note=65 velocity=0 time=0
note_on channel=1 note=55 velocity=92 time=0
note_on channel=1 note=60 velocity=92 time=0
note_on channel=1 note=64 velocity=92 time=0
note_on channel=1 note=55 velocity=0 time=94
note_on channel=1 note=60 velocity=0 time=0
note_on channel=1 note=64 velocity=0 time=0
note_on channel=1 note=55 velocity=92 time=2
note_on channel=1 note=60 velocity=92 time=0
note_on channel=1 note=64 velocity=92 time=0
note_on channel=1 note=55 velocity=0 time=160
note_on channel=1 note=60 velocity=0 time=0
note_on channel=1 note=64 velocity=0 time=0
note_on channel=1 note=55 velocity=92 time=32
note_on channel=1 note=60 velocity=92 time=0
note_on channel=1 note=64 velocity=92 time=0
note_on channel=1 note=55 velocity=0 time=94
note_on channel=1 note=60 velocity=0 time=0
note_on channel=1 note=64 velocity=0 time=0
note_on channel=1 note=55 velocity=92 time=2
note_on channel=1 note=60 velocity=92 time=0
note_on channel=1 note=64 velocity=92 time=0
note_on channel=1 note=55 velocity=0 time=160
note_on channel=1 note=60 velocity=0 time=0
note_on channel=1 note=64 velocity=0 time=0
note_on channel=1 note=55 velocity=92 time=32
note_on channel=1 note=59 velocity=92 time=0
note_on channel=1 note=64 velocity=92 time=0
note_on channel=1 note=55 velocity=0 time=94
note_on channel=1 note=59 velocity=0 time=0
note_on channel=1 note=64 velocity=0 time=0
note_on channel=1 note=55 velocity=92 time=2
note_on channel=1 note=59 velocity=92 time=0
note_on channel=1 note=64 velocity=92 time=0
note_on channel=1 note=55 velocity=0 time=160
note_on channel=1 note=59 velocity=0 time=0
note_on channel=1 note=64 velocity=0 time=0
note_on channel=1 note=55 velocity=92 time=32
note_on channel=1 note=59 velocity=92 time=0
note_on channel=1 note=64 velocity=92 time=0
note_on channel=1 note=55 velocity=0 time=94
note_on channel=1 note=59 velocity=0 time=0
note_on channel=1 note=64 velocity=0 time=0
note_on channel=1 note=55 velocity=92 time=2
note_on channel=1 note=59 velocity=92 time=0
note_on channel=1 note=64 velocity=92 time=0
note_on channel=1 note=55 velocity=0 time=160
note_on channel=1 note=59 velocity=0 time=0
note_on channel=1 note=64 velocity=0 time=0
note_on channel=1 note=53 velocity=92 time=32
note_on channel=1 note=57 velocity=92 time=0
note_on channel=1 note=60 velocity=92 time=0
note_on channel=1 note=64 velocity=92 time=0
note_on channel=1 note=53 velocity=0 time=94
note_on channel=1 note=57 velocity=0 time=0
note_on channel=1 note=60 velocity=0 time=0
note_on channel=1 note=64 velocity=0 time=0
note_on channel=1 note=53 velocity=92 time=2
note_on channel=1 note=57 velocity=92 time=0
note_on channel=1 note=60 velocity=92 time=0
note_on channel=1 note=64 velocity=92 time=0
note_on channel=1 note=53 velocity=0 time=94
note_on channel=1 note=57 velocity=0 time=0
note_on channel=1 note=60 velocity=0 time=0
note_on channel=1 note=64 velocity=0 time=0
note_on channel=1 note=53 velocity=92 time=98
note_on channel=1 note=57 velocity=92 time=0
note_on channel=1 note=60 velocity=92 time=0
note_on channel=1 note=64 velocity=92 time=0
note_on channel=1 note=53 velocity=0 time=94
note_on channel=1 note=57 velocity=0 time=0
note_on channel=1 note=60 velocity=0 time=0
note_on channel=1 note=64 velocity=0 time=0
note_on channel=1 note=57 velocity=92 time=2
note_on channel=1 note=60 velocity=92 time=0
note_on channel=1 note=64 velocity=92 time=0
note_on channel=1 note=65 velocity=92 time=0
note_on channel=1 note=57 velocity=0 time=94
note_on channel=1 note=60 velocity=0 time=0
note_on channel=1 note=64 velocity=0 time=0
note_on channel=1 note=65 velocity=0 time=0
note_on channel=1 note=57 velocity=92 time=98
note_on channel=1 note=59 velocity=92 time=0
note_on channel=1 note=62 velocity=92 time=0
note_on channel=1 note=66 velocity=92 time=0
note_on channel=1 note=57 velocity=0 time=73
note_on channel=1 note=59 velocity=0 time=0
note_on channel=1 note=62 velocity=0 time=0
note_on channel=1 note=66 velocity=0 time=0
note_on channel=1 note=57 velocity=92 time=119
note_on channel=1 note=59 velocity=92 time=0
note_on channel=1 note=62 velocity=92 time=0
note_on channel=1 note=66 velocity=92 time=0
note_on channel=1 note=57 velocity=0 time=160
note_on channel=1 note=59 velocity=0 time=0
note_on channel=1 note=62 velocity=0 time=0
note_on channel=1 note=66 velocity=0 time=0
note_on channel=1 note=57 velocity=97 time=32
note_on channel=1 note=59 velocity=97 time=0
note_on channel=1 note=62 velocity=97 time=0
note_on channel=1 note=67 velocity=97 time=0
note_on channel=1 note=57 velocity=0 time=192
note_on channel=1 note=59 velocity=0 time=0
note_on channel=1 note=62 velocity=0 time=0
note_on channel=1 note=67 velocity=0 time=0
note_on channel=1 note=55 velocity=92 time=0
note_on channel=1 note=60 velocity=92 time=0
note_on channel=1 note=64 velocity=92 time=0
note_on channel=1 note=55 velocity=0 time=94
note_on channel=1 note=60 velocity=0 time=0
note_on channel=1 note=64 velocity=0 time=0
note_on channel=1 note=55 velocity=92 time=2
note_on channel=1 note=60 velocity=92 time=0
note_on channel=1 note=64 velocity=92 time=0
note_on channel=1 note=55 velocity=0 time=160
note_on channel=1 note=60 velocity=0 time=0
note_on channel=1 note=64 velocity=0 time=0
note_on channel=1 note=55 velocity=92 time=32
note_on channel=1 note=60 velocity=92 time=0
note_on channel=1 note=64 velocity=92 time=0
note_on channel=1 note=55 velocity=0 time=94
note_on channel=1 note=60 velocity=0 time=0
note_on channel=1 note=64 velocity=0 time=0
note_on channel=1 note=55 velocity=92 time=2
note_on channel=1 note=60 velocity=92 time=0
note_on channel=1 note=64 velocity=92 time=0
note_on channel=1 note=55 velocity=0 time=160
note_on channel=1 note=60 velocity=0 time=0
note_on channel=1 note=64 velocity=0 time=0
note_on channel=1 note=55 velocity=92 time=32
note_on channel=1 note=60 velocity=92 time=0
note_on channel=1 note=64 velocity=92 time=0
note_on channel=1 note=55 velocity=0 time=160
note_on channel=1 note=60 velocity=0 time=0
note_on channel=1 note=64 velocity=0 time=0
note_on channel=1 note=55 velocity=92 time=416
note_on channel=1 note=60 velocity=92 time=0
note_on channel=1 note=64 velocity=92 time=0
note_on channel=1 note=55 velocity=0 time=94
note_on channel=1 note=60 velocity=0 time=0
note_on channel=1 note=64 velocity=0 time=0
note_on channel=1 note=55 velocity=92 time=2
note_on channel=1 note=60 velocity=92 time=0
note_on channel=1 note=64 velocity=92 time=0
note_on channel=1 note=55 velocity=0 time=160
note_on channel=1 note=60 velocity=0 time=0
note_on channel=1 note=64 velocity=0 time=0
note_on channel=1 note=55 velocity=92 time=32
note_on channel=1 note=60 velocity=92 time=0
note_on channel=1 note=64 velocity=92 time=0
note_on channel=1 note=55 velocity=0 time=94
note_on channel=1 note=60 velocity=0 time=0
note_on channel=1 note=64 velocity=0 time=0
note_on channel=1 note=55 velocity=92 time=2
note_on channel=1 note=60 velocity=92 time=0
note_on channel=1 note=64 velocity=92 time=0
note_on channel=1 note=55 velocity=0 time=160
note_on channel=1 note=60 velocity=0 time=0
note_on channel=1 note=64 velocity=0 time=0
note_on channel=1 note=55 velocity=92 time=32
note_on channel=1 note=60 velocity=92 time=0
note_on channel=1 note=64 velocity=92 time=0
note_on channel=1 note=55 velocity=0 time=160
note_on channel=1 note=60 velocity=0 time=0
note_on channel=1 note=64 velocity=0 time=0
note_on channel=1 note=71 velocity=92 time=224
note_on channel=1 note=71 velocity=0 time=46
note_on channel=1 note=69 velocity=92 time=2
note_on channel=1 note=69 velocity=0 time=46
note_on channel=1 note=66 velocity=92 time=2
note_on channel=1 note=66 velocity=0 time=46
note_on channel=1 note=64 velocity=92 time=2
note_on channel=1 note=64 velocity=0 time=46
note_on channel=1 note=53 velocity=92 time=2
note_on channel=1 note=57 velocity=92 time=0
note_on channel=1 note=60 velocity=92 time=0
note_on channel=1 note=64 velocity=92 time=0
note_on channel=1 note=53 velocity=0 time=94
note_on channel=1 note=57 velocity=0 time=0
note_on channel=1 note=60 velocity=0 time=0
note_on channel=1 note=64 velocity=0 time=0
note_on channel=1 note=53 velocity=92 time=2
note_on channel=1 note=57 velocity=92 time=0
note_on channel=1 note=60 velocity=92 time=0
note_on channel=1 note=64 velocity=92 time=0
note_on channel=1 note=53 velocity=0 time=160
note_on channel=1 note=57 velocity=0 time=0
note_on channel=1 note=60 velocity=0 time=0
note_on channel=1 note=64 velocity=0 time=0
note_on channel=1 note=53 velocity=92 time=32
note_on channel=1 note=57 velocity=92 time=0
note_on channel=1 note=60 velocity=92 time=0
note_on channel=1 note=64 velocity=92 time=0
note_on channel=1 note=53 velocity=0 time=94
note_on channel=1 note=57 velocity=0 time=0
note_on channel=1 note=60 velocity=0 time=0
note_on channel=1 note=64 velocity=0 time=0
note_on channel=1 note=53 velocity=92 time=2
note_on channel=1 note=57 velocity=92 time=0
note_on channel=1 note=60 velocity=92 time=0
note_on channel=1 note=64 velocity=92 time=0
note_on channel=1 note=53 velocity=0 time=160
note_on channel=1 note=57 velocity=0 time=0
note_on channel=1 note=60 velocity=0 time=0
note_on channel=1 note=64 velocity=0 time=0
note_on channel=1 note=53 velocity=92 time=32
note_on channel=1 note=57 velocity=92 time=0
note_on channel=1 note=60 velocity=92 time=0
note_on channel=1 note=64 velocity=92 time=0
note_on channel=1 note=53 velocity=0 time=160
note_on channel=1 note=57 velocity=0 time=0
note_on channel=1 note=60 velocity=0 time=0
note_on channel=1 note=64 velocity=0 time=0
note_on channel=1 note=53 velocity=92 time=416
note_on channel=1 note=57 velocity=92 time=0
note_on channel=1 note=60 velocity=92 time=0
note_on channel=1 note=64 velocity=92 time=0
note_on channel=1 note=53 velocity=0 time=94
note_on channel=1 note=57 velocity=0 time=0
note_on channel=1 note=60 velocity=0 time=0
note_on channel=1 note=64 velocity=0 time=0
note_on channel=1 note=53 velocity=92 time=2
note_on channel=1 note=57 velocity=92 time=0
note_on channel=1 note=60 velocity=92 time=0
note_on channel=1 note=64 velocity=92 time=0
note_on channel=1 note=53 velocity=0 time=160
note_on channel=1 note=57 velocity=0 time=0
note_on channel=1 note=60 velocity=0 time=0
note_on channel=1 note=64 velocity=0 time=0
note_on channel=1 note=53 velocity=92 time=32
note_on channel=1 note=57 velocity=92 time=0
note_on channel=1 note=60 velocity=92 time=0
note_on channel=1 note=64 velocity=92 time=0
note_on channel=1 note=53 velocity=0 time=94
note_on channel=1 note=57 velocity=0 time=0
note_on channel=1 note=60 velocity=0 time=0
note_on channel=1 note=64 velocity=0 time=0
note_on channel=1 note=53 velocity=92 time=2
note_on channel=1 note=57 velocity=92 time=0
note_on channel=1 note=60 velocity=92 time=0
note_on channel=1 note=64 velocity=92 time=0
note_on channel=1 note=53 velocity=0 time=160
note_on channel=1 note=57 velocity=0 time=0
note_on channel=1 note=60 velocity=0 time=0
note_on channel=1 note=64 velocity=0 time=0
note_on channel=1 note=53 velocity=92 time=32
note_on channel=1 note=57 velocity=92 time=0
note_on channel=1 note=60 velocity=92 time=0
note_on channel=1 note=64 velocity=92 time=0
note_on channel=1 note=53 velocity=0 time=160
note_on channel=1 note=57 velocity=0 time=0
note_on channel=1 note=60 velocity=0 time=0
note_on channel=1 note=64 velocity=0 time=0
note_on channel=1 note=71 velocity=92 time=224
note_on channel=1 note=71 velocity=0 time=46
note_on channel=1 note=69 velocity=92 time=2
note_on channel=1 note=69 velocity=0 time=46
note_on channel=1 note=65 velocity=92 time=2
note_on channel=1 note=65 velocity=0 time=46
note_on channel=1 note=64 velocity=92 time=2
note_on channel=1 note=64 velocity=0 time=46
note_on channel=1 note=55 velocity=92 time=2
note_on channel=1 note=60 velocity=92 time=0
note_on channel=1 note=64 velocity=92 time=0
note_on channel=1 note=55 velocity=0 time=94
note_on channel=1 note=60 velocity=0 time=0
note_on channel=1 note=64 velocity=0 time=0
note_on channel=1 note=55 velocity=92 time=2
note_on channel=1 note=60 velocity=92 time=0
note_on channel=1 note=64 velocity=92 time=0
note_on channel=1 note=55 velocity=0 time=160
note_on channel=1 note=60 velocity=0 time=0
note_on channel=1 note=64 velocity=0 time=0
note_on channel=1 note=55 velocity=92 time=32
note_on channel=1 note=60 velocity=92 time=0
note_on channel=1 note=64 velocity=92 time=0
note_on channel=1 note=55 velocity=0 time=94
note_on channel=1 note=60 velocity=0 time=0
note_on channel=1 note=64 velocity=0 time=0
note_on channel=1 note=55 velocity=92 time=2
note_on channel=1 note=60 velocity=92 time=0
note_on channel=1 note=64 velocity=92 time=0
note_on channel=1 note=55 velocity=0 time=160
note_on channel=1 note=60 velocity=0 time=0
note_on channel=1 note=64 velocity=0 time=0
note_on channel=1 note=55 velocity=92 time=32
note_on channel=1 note=60 velocity=92 time=0
note_on channel=1 note=64 velocity=92 time=0
note_on channel=1 note=55 velocity=0 time=160
note_on channel=1 note=60 velocity=0 time=0
note_on channel=1 note=64 velocity=0 time=0
note_on channel=1 note=55 velocity=92 time=416
note_on channel=1 note=60 velocity=92 time=0
note_on channel=1 note=64 velocity=92 time=0
note_on channel=1 note=55 velocity=0 time=94
note_on channel=1 note=60 velocity=0 time=0
note_on channel=1 note=64 velocity=0 time=0
note_on channel=1 note=55 velocity=92 time=2
note_on channel=1 note=60 velocity=92 time=0
note_on channel=1 note=64 velocity=92 time=0
note_on channel=1 note=55 velocity=0 time=160
note_on channel=1 note=60 velocity=0 time=0
note_on channel=1 note=64 velocity=0 time=0
note_on channel=1 note=55 velocity=92 time=32
note_on channel=1 note=60 velocity=92 time=0
note_on channel=1 note=64 velocity=92 time=0
note_on channel=1 note=55 velocity=0 time=94
note_on channel=1 note=60 velocity=0 time=0
note_on channel=1 note=64 velocity=0 time=0
note_on channel=1 note=55 velocity=92 time=2
note_on channel=1 note=60 velocity=92 time=0
note_on channel=1 note=64 velocity=92 time=0
note_on channel=1 note=55 velocity=0 time=160
note_on channel=1 note=60 velocity=0 time=0
note_on channel=1 note=64 velocity=0 time=0
note_on channel=1 note=55 velocity=92 time=32
note_on channel=1 note=60 velocity=92 time=0
note_on channel=1 note=64 velocity=92 time=0
note_on channel=1 note=55 velocity=0 time=160
note_on channel=1 note=60 velocity=0 time=0
note_on channel=1 note=64 velocity=0 time=0
note_on channel=1 note=71 velocity=92 time=224
note_on channel=1 note=71 velocity=0 time=46
note_on channel=1 note=69 velocity=92 time=2
note_on channel=1 note=69 velocity=0 time=46
note_on channel=1 note=66 velocity=92 time=2
note_on channel=1 note=66 velocity=0 time=46
note_on channel=1 note=64 velocity=127 time=2
note_on channel=1 note=64 velocity=0 time=46
note_on channel=1 note=53 velocity=92 time=2
note_on channel=1 note=57 velocity=92 time=0
note_on channel=1 note=60 velocity=92 time=0
note_on channel=1 note=64 velocity=92 time=0
note_on channel=1 note=53 velocity=0 time=94
note_on channel=1 note=57 velocity=0 time=0
note_on channel=1 note=60 velocity=0 time=0
note_on channel=1 note=64 velocity=0 time=0
note_on channel=1 note=53 velocity=92 time=2
note_on channel=1 note=57 velocity=92 time=0
note_on channel=1 note=60 velocity=92 time=0
note_on channel=1 note=64 velocity=92 time=0
note_on channel=1 note=53 velocity=0 time=160
note_on channel=1 note=57 velocity=0 time=0
note_on channel=1 note=60 velocity=0 time=0
note_on channel=1 note=64 velocity=0 time=0
note_on channel=1 note=53 velocity=92 time=32
note_on channel=1 note=57 velocity=92 time=0
note_on channel=1 note=60 velocity=92 time=0
note_on channel=1 note=64 velocity=92 time=0
note_on channel=1 note=53 velocity=0 time=94
note_on channel=1 note=57 velocity=0 time=0
note_on channel=1 note=60 velocity=0 time=0
note_on channel=1 note=64 velocity=0 time=0
note_on channel=1 note=53 velocity=92 time=2
note_on channel=1 note=57 velocity=92 time=0
note_on channel=1 note=60 velocity=92 time=0
note_on channel=1 note=64 velocity=92 time=0
note_on channel=1 note=53 velocity=0 time=160
note_on channel=1 note=57 velocity=0 time=0
note_on channel=1 note=60 velocity=0 time=0
note_on channel=1 note=64 velocity=0 time=0
note_on channel=1 note=53 velocity=92 time=32
note_on channel=1 note=57 velocity=92 time=0
note_on channel=1 note=60 velocity=92 time=0
note_on channel=1 note=64 velocity=92 time=0
note_on channel=1 note=53 velocity=0 time=94
note_on channel=1 note=57 velocity=0 time=0
note_on channel=1 note=60 velocity=0 time=0
note_on channel=1 note=64 velocity=0 time=0
note_on channel=1 note=53 velocity=92 time=2
note_on channel=1 note=57 velocity=92 time=0
note_on channel=1 note=60 velocity=92 time=0
note_on channel=1 note=64 velocity=92 time=0
note_on channel=1 note=53 velocity=0 time=160
note_on channel=1 note=57 velocity=0 time=0
note_on channel=1 note=60 velocity=0 time=0
note_on channel=1 note=64 velocity=0 time=0
note_on channel=1 note=53 velocity=92 time=32
note_on channel=1 note=57 velocity=92 time=0
note_on channel=1 note=60 velocity=92 time=0
note_on channel=1 note=64 velocity=92 time=0
note_on channel=1 note=53 velocity=0 time=94
note_on channel=1 note=57 velocity=0 time=0
note_on channel=1 note=60 velocity=0 time=0
note_on channel=1 note=64 velocity=0 time=0
note_on channel=1 note=53 velocity=92 time=2
note_on channel=1 note=57 velocity=92 time=0
note_on channel=1 note=60 velocity=92 time=0
note_on channel=1 note=64 velocity=92 time=0
note_on channel=1 note=53 velocity=0 time=160
note_on channel=1 note=57 velocity=0 time=0
note_on channel=1 note=60 velocity=0 time=0
note_on channel=1 note=64 velocity=0 time=0
note_on channel=1 note=23 velocity=92 time=32
note_on channel=1 note=35 velocity=92 time=0
note_on channel=1 note=23 velocity=0 time=94
note_on channel=1 note=35 velocity=0 time=0
note_on channel=1 note=23 velocity=92 time=2
note_on channel=1 note=35 velocity=92 time=0
note_on channel=1 note=23 velocity=0 time=94
note_on channel=1 note=35 velocity=0 time=0
note_on channel=1 note=23 velocity=92 time=2
note_on channel=1 note=35 velocity=92 time=0
note_on channel=1 note=23 velocity=0 time=94
note_on channel=1 note=35 velocity=0 time=0
note_on channel=1 note=23 velocity=92 time=2
note_on channel=1 note=35 velocity=92 time=0
note_on channel=1 note=23 velocity=0 time=94
note_on channel=1 note=35 velocity=0 time=0
note_on channel=1 note=23 velocity=92 time=2
note_on channel=1 note=35 velocity=92 time=0
note_on channel=1 note=23 velocity=0 time=94
note_on channel=1 note=35 velocity=0 time=0
note_on channel=1 note=23 velocity=92 time=2
note_on channel=1 note=35 velocity=92 time=0
note_on channel=1 note=23 velocity=0 time=94
note_on channel=1 note=35 velocity=0 time=0
note_on channel=1 note=23 velocity=92 time=2
note_on channel=1 note=35 velocity=92 time=0
note_on channel=1 note=23 velocity=0 time=94
note_on channel=1 note=35 velocity=0 time=0
note_on channel=1 note=23 velocity=92 time=2
note_on channel=1 note=35 velocity=92 time=0
note_on channel=1 note=23 velocity=0 time=94
note_on channel=1 note=35 velocity=0 time=0
note_on channel=1 note=23 velocity=92 time=2
note_on channel=1 note=35 velocity=92 time=0
note_on channel=1 note=23 velocity=0 time=94
note_on channel=1 note=35 velocity=0 time=0
note_on channel=1 note=23 velocity=92 time=2
note_on channel=1 note=35 velocity=92 time=0
note_on channel=1 note=23 velocity=0 time=94
note_on channel=1 note=35 velocity=0 time=0
note_on channel=1 note=23 velocity=92 time=2
note_on channel=1 note=35 velocity=92 time=0
note_on channel=1 note=23 velocity=0 time=94
note_on channel=1 note=35 velocity=0 time=0
note_on channel=1 note=23 velocity=92 time=2
note_on channel=1 note=35 velocity=92 time=0
note_on channel=1 note=23 velocity=0 time=46
note_on channel=1 note=35 velocity=0 time=0
note_on channel=1 note=24 velocity=92 time=2
note_on channel=1 note=36 velocity=92 time=0
note_on channel=1 note=24 velocity=0 time=576
note_on channel=1 note=36 velocity=0 time=0
<meta message end_of_track time=0>
